<?xml version="1.0" encoding="UTF-8"?>
<svg id="Layer_1" xmlns="http://www.w3.org/2000/svg" version="1.1" viewBox="0 0 686.2 321.2">
  <!-- Generator: Adobe Illustrator 29.5.1, SVG Export Plug-In . SVG Version: 2.1.0 Build 141)  -->
  <defs>
    <style>
      .st0 {
        fill: #fbdf95;
      }

      .st1 {
        fill: #f1a83e;
      }

      .st2 {
        fill: #d47624;
      }

      .st3 {
        fill: #f6c267;
      }

      .st4 {
        fill: #fcd886;
      }

      .st5 {
        fill: #fde4a2;
      }

      .st6 {
        fill: #a55126;
      }

      .st7 {
        fill: #dd903f;
      }

      .st8 {
        fill: #facf80;
      }

      .st9 {
        fill: #d16a17;
      }

      .st10 {
        fill: #f8c260;
      }

      .st11 {
        fill: #f8d47f;
      }

      .st12 {
        fill: #bc621f;
      }

      .st13 {
        fill: #e1913a;
      }

      .st14 {
        fill: #dd9041;
      }

      .st15 {
        fill: #f7ce76;
      }

      .st16 {
        fill: #f2be5d;
      }

      .st17 {
        fill: #fce18c;
      }

      .st18 {
        fill: #ec941b;
      }

      .st19 {
        fill: #c16a2f;
      }

      .st20 {
        fill: #e98928;
      }

      .st21 {
        fill: #d4631e;
      }

      .st22 {
        fill: #e18837;
      }

      .st23 {
        fill: #f6e4a7;
      }

      .st24 {
        fill: #d1701c;
      }

      .st25 {
        fill: #de8633;
      }

      .st26 {
        fill: #d8893c;
      }

      .st27 {
        fill: #d47c3d;
      }

      .st28 {
        fill: #f5c666;
      }

      .st29 {
        fill: #fef0c5;
      }

      .st30 {
        fill: #c76d28;
      }

      .st31 {
        fill: #f4c367;
      }

      .st32 {
        fill: #cb7334;
      }

      .st33 {
        fill: #f9ca6e;
      }

      .st34 {
        fill: #de7721;
      }

      .st35 {
        fill: #f5b741;
      }

      .st36 {
        fill: #fbcd6f;
      }

      .st37 {
        fill: #e5a455;
      }

      .st38 {
        fill: #eeb963;
      }

      .st39 {
        fill: #d7873d;
      }

      .st40 {
        fill: #fedd92;
      }

      .st41 {
        fill: #fdc654;
      }

      .st42 {
        fill: #e77b12;
      }

      .st43 {
        fill: #e37a1b;
      }

      .st44 {
        fill: #e89f44;
      }

      .st45 {
        fill: #fbe09f;
      }

      .st46 {
        fill: #fcd469;
      }

      .st47 {
        fill: #e6ac5d;
      }

      .st48 {
        fill: #eca44e;
      }

      .st49 {
        fill: #f6c657;
      }

      .st50 {
        fill: #e69e44;
      }

      .st51 {
        fill: #f8ae3e;
      }

      .st52 {
        fill: #fbdd7f;
      }

      .st53 {
        fill: #e5a246;
      }

      .st54 {
        fill: #f8ca69;
      }

      .st55 {
        fill: #f49317;
      }

      .st56 {
        fill: #b5956d;
      }

      .st57 {
        fill: #d3853d;
      }

      .st58 {
        fill: #cf7b3a;
      }

      .st59 {
        fill: #f3b95c;
      }

      .st60 {
        fill: #fcdd7d;
      }

      .st61 {
        fill: #c06025;
      }

      .st62 {
        fill: #d8852c;
      }

      .st63 {
        fill: #eece8c;
      }

      .st64 {
        fill: #fadc83;
      }

      .st65 {
        fill: #fce4a5;
      }

      .st66 {
        fill: #eeab51;
      }

      .st67 {
        fill: #fde9a4;
      }

      .st68 {
        fill: #f5ca7c;
      }

      .st69 {
        fill: #fee5a1;
      }

      .st70 {
        fill: #d66d29;
      }

      .st71 {
        fill: #e57d20;
      }

      .st72 {
        fill: #eba45b;
      }

      .st73 {
        fill: #fee09b;
      }

      .st74 {
        fill: #efc85e;
      }

      .st75 {
        fill: #b44e29;
      }

      .st76 {
        fill: #fef1c2;
      }

      .st77 {
        fill: #f8ca71;
      }

      .st78 {
        fill: #fedf9b;
      }

      .st79 {
        fill: #e49f44;
      }

      .st80 {
        fill: #c3a467;
      }

      .st81 {
        fill: #c87130;
      }

      .st82 {
        fill: #f5c05f;
      }

      .st83 {
        fill: #e77b16;
      }

      .st84 {
        fill: #fceab4;
      }

      .st85 {
        fill: #fee39f;
      }

      .st86 {
        fill: #eb832a;
      }

      .st87 {
        fill: #f2ba66;
      }

      .st88 {
        fill: #c46d1d;
      }

      .st89 {
        fill: #cc7635;
      }

      .st90 {
        fill: #ea8524;
      }

      .st91 {
        fill: #efa954;
      }

      .st92 {
        fill: #f2c469;
      }

      .st93 {
        fill: #d8843c;
      }

      .st94 {
        fill: #eea652;
      }

      .st95 {
        fill: #f9d06c;
      }

      .st96 {
        fill: #db7739;
      }

      .st97 {
        fill: #b25d29;
      }

      .st98 {
        fill: #e7a346;
      }

      .st99 {
        fill: #f2b65d;
      }

      .st100 {
        fill: #d87a26;
      }

      .st101 {
        fill: #dd7a18;
      }

      .st102 {
        fill: #ec972d;
      }

      .st103 {
        fill: #e69443;
      }

      .st104 {
        fill: #f1c65f;
      }

      .st105 {
        fill: #feecb5;
      }

      .st106 {
        fill: #d27c35;
      }

      .st107 {
        fill: #e59d42;
      }

      .st108 {
        fill: #da9447;
      }

      .st109 {
        fill: #fbce79;
      }

      .st110 {
        fill: #c86516;
      }

      .st111 {
        fill: #feecaf;
      }

      .st112 {
        fill: #f2b246;
      }

      .st113 {
        fill: #fce183;
      }

      .st114 {
        fill: #f1a441;
      }

      .st115 {
        fill: #f9cb74;
      }

      .st116 {
        fill: #efa84f;
      }

      .st117 {
        fill: #faeede;
      }

      .st118 {
        fill: #f3b755;
      }

      .st119 {
        fill: #cd6c28;
      }

      .st120 {
        fill: #ed992b;
      }

      .st121 {
        fill: #feefb1;
      }

      .st122 {
        fill: #f6a137;
      }

      .st123 {
        fill: #ac5227;
      }

      .st124 {
        fill: #b25b29;
      }

      .st125 {
        fill: #fcce6c;
      }

      .st126 {
        fill: #fce392;
      }

      .st127 {
        fill: #d6782d;
      }

      .st128 {
        fill: #ef8d15;
      }

      .st129 {
        fill: #fde184;
      }

      .st130 {
        fill: #eeb15d;
      }

      .st131 {
        fill: #c06028;
      }

      .st132 {
        fill: #fad37f;
      }

      .st133 {
        fill: #c15f1d;
      }

      .st134 {
        fill: #ce6b2b;
      }

      .st135 {
        fill: #efab4d;
      }

      .st136 {
        fill: #fde9b3;
      }

      .st137 {
        fill: #c8682a;
      }

      .st138 {
        fill: #e59f46;
      }

      .st139 {
        fill: #cd6414;
      }

      .st140 {
        fill: #c65d20;
      }

      .st141 {
        fill: #f0d384;
      }

      .st142 {
        fill: #f7d687;
      }

      .st143 {
        fill: #ef9a28;
      }

      .st144 {
        fill: #bf6224;
      }

      .st145 {
        fill: #f0c56c;
      }

      .st146 {
        fill: #fde4a5;
      }

      .st147 {
        fill: #f1a74a;
      }

      .st148 {
        fill: #e3a455;
      }

      .st149 {
        fill: #f8db8b;
      }

      .st150 {
        fill: #eeb156;
      }

      .st151 {
        fill: #f8ce78;
      }

      .st152 {
        fill: #be6729;
      }

      .st153 {
        fill: #c9a771;
      }

      .st154 {
        fill: #e2913e;
      }

      .st155 {
        fill: #f5c169;
      }

      .st156 {
        fill: #fde39f;
      }

      .st157 {
        fill: #e29c49;
      }

      .st158 {
        fill: #ce6d1a;
      }

      .st159 {
        fill: #faf2ac;
      }

      .st160 {
        fill: #e59139;
      }

      .st161 {
        fill: #e7d5c4;
      }

      .st162 {
        fill: #efb056;
      }

      .st163 {
        fill: #fee4a3;
      }

      .st164 {
        fill: #f49e23;
      }

      .st165 {
        fill: #e89140;
      }

      .st166 {
        fill: #ecd9cd;
      }

      .st167 {
        fill: #da873b;
      }

      .st168 {
        fill: #fdee92;
      }

      .st169 {
        fill: #fedf9c;
      }

      .st170 {
        fill: #d77b2e;
      }

      .st171 {
        fill: #fcb336;
      }

      .st172 {
        fill: #fedf9e;
      }

      .st173 {
        fill: #eca245;
      }

      .st174 {
        fill: #fcde88;
      }

      .st175 {
        fill: #eca850;
      }

      .st176 {
        fill: #f5c349;
      }

      .st177 {
        fill: #d97c29;
      }

      .st178 {
        fill: #fbce70;
      }

      .st179 {
        fill: #d5853b;
      }

      .st180 {
        fill: #d07526;
      }

      .st181 {
        fill: #af5925;
      }

      .st182 {
        fill: #c76726;
      }

      .st183 {
        fill: #fee9ab;
      }

      .st184 {
        fill: #eaaa4e;
      }

      .st185 {
        fill: #a75628;
      }

      .st186 {
        fill: #f5cc7e;
      }

      .st187 {
        fill: #e9b25d;
      }

      .st188 {
        fill: #f8ab48;
      }

      .st189 {
        fill: #dc7317;
      }

      .st190 {
        fill: #c76824;
      }

      .st191 {
        fill: #eb9b44;
      }

      .st192 {
        fill: #f3c065;
      }

      .st193 {
        fill: #f2ad4f;
      }

      .st194 {
        fill: #ca7637;
      }

      .st195 {
        fill: #b25a25;
      }

      .st196 {
        fill: #ea8826;
      }

      .st197 {
        fill: #fcd17c;
      }

      .st198 {
        fill: #ea8f24;
      }

      .st199 {
        fill: #f3b44d;
      }

      .st200 {
        fill: #e0913c;
      }

      .st201 {
        fill: #f2b45b;
      }

      .st202 {
        fill: #e08f41;
      }

      .st203 {
        fill: #fce286;
      }

      .st204 {
        fill: #e3dad0;
      }

      .st205 {
        fill: #dc8e3f;
      }

      .st206 {
        fill: #f6d27f;
      }

      .st207 {
        fill: #f3be62;
      }

      .st208 {
        fill: #fcecb8;
      }

      .st209 {
        fill: #dd8f42;
      }

      .st210 {
        fill: #b55b24;
      }

      .st211 {
        fill: #c26325;
      }

      .st212 {
        fill: #fbc060;
      }

      .st213 {
        fill: #fbd583;
      }

      .st214 {
        fill: #ce7627;
      }

      .st215 {
        fill: #ee8514;
      }

      .st216 {
        fill: #f3a340;
      }

      .st217 {
        fill: #f2a522;
      }

      .st218 {
        fill: #f5ece2;
      }

      .st219 {
        fill: #f0c272;
      }

      .st220 {
        fill: #df8538;
      }

      .st221 {
        fill: #fee39e;
      }

      .st222 {
        fill: #e19944;
      }

      .st223 {
        fill: #da8f3e;
      }

      .st224 {
        fill: #f18a1d;
      }

      .st225 {
        fill: #f7d481;
      }
    </style>
  </defs>
  <path class="st85" d="M371.2,31.7h-1.1l-9.8,11.5c-1.7.8-5.1-.8-5.3-2.6,0,.4,0,1-.3,1-2.3.2-14.2.3-15.5-.5s-.3-.3-.3-.5c1.6.5,2.6,1.3,3,2.5-.8.2-1.9-.7-2,.7-.6,9.4,0,20.1,0,29.6-.1.4-.3.4-.5,0l-1.1-5.7c-1.7.9-3.7,1.1-6.1.4-9.2,0-10.2,9.4-7.9,16.4l-.8.8c-.4.5-.7.7-.8.5l-.5,6.1c-.5,1.2-1.4,1.1-1.6,0-.4-7.5-.5-15.9-.5-23.8s.2-.2.5-.3h-.5c-.1-2.4-.3-4.8-.5-7.2v-16.9h-15.4c-.4-.9-.2-1.3.7-1.4,4.7.8,26.8-1.1,7.7-1.3-4.3,0-8.8,0-13.1.7s-6.2,1.5-9.8,5.1v1c9.3,10,17.2,21.8,19,35.8-.1,1.9-1.5,4.9-3.5,4,.4,2.4-4.2,2.3-6,2.2s-6.6-1-5.9-3.2c-2.4.3-4-4.9-3.5-7-2.1-.8-2.7-4.2-2-6-.7,0-1-.6-1.3-1.2-6.4-12.6-13.2-25.8-28.7-28.4-4.4-.7-8.9,0-13.3.9l-1.5-.7c1.4-2.9,6.7-5.6,9.3-7.3s3.7-3.6,5.8-3.6c4.2,0,15,4.4,19,6.4s7,4.9,9.1,5.8.9.4,1.5.2l9.3-18.4,5.9,2c18.3-1.1,38.2,1.4,56.2,0s9.6-2.2,13.9-4c2,2.1-.6,4.8-1.7,6.5h-.1Z"/>
  <path class="st169" d="M173.3,19.7c2.7,2.6,6,5.2,9.8,7.9,2.9,2.5,12.7,11.2,10,15.1-2.5,1.5-4.8,3.4-6.9,5.7-1.9-.4-3.7-.3-5.6.4-1.8-1-3.6-1.8-5.3-2.3l-1.4-.4c-7.5-10.8-19.9-19.9-33.2-21.5l-1-1c0,.4-.1.9-.4,1-.8.2-9,.1-10.1,0l-.7-1c1.4,1.3,1.4,2.7,0,4,1.4,7.5,1.1,15.4-.5,22.9.4,4.8.4,9.6,0,14.4l-1.2.8c-3.5,3.8-13.6,3.9-17.2.2-.4-2-.4-4,0-6-1-2.5-1-5,0-7.5,0-4.4-.2-8.8-.5-12.9-.3-1.1-.5-2.2-.5-3.5h-.7c-.6-3.9-1.3-7.7-2.2-11.4-6.3.2-11.1,1.2-15.4,6.1-6.1-5.3-12.1-11.1-17.6-17.1s-4.2-4.8-4.4-8c.3-.8,1-.6,1.6-.4,1.8.5,5.4,2.9,7.7,3.8,10.7,4,22.5,3.8,33.7,4.1,20.7.5,42.6-2.5,61.9,6.4v.2Z"/>
  <path class="st137" d="M165.8,254.5c-1.2,5.3-20,21.2-25.4,24.1s-12.2,6.3-15.2,6.7,2.2-2.4,2.4-2.6c3.4-2.3,5.4-4.2,8.3-6.9,0-1.4.9-2.6,2.7-3.6-1.4,1.4-2.9,2.1-4.7,2.1-23.7,15.4-55.2,22.6-82.1,10.9,0-.7,0-1.3.8-1.3,20.6,4,41.9-1.7,60.9-9.9l6.5-2.1c-.8-2.3-.8-4.1,1.5-6,.6-.5,2.5-1.5,1.7-2.5-8.5,5.4-17.8,9.7-27.5,12.3-28.7,7.8-64.4,5.7-82.7-20.7-.5-2.6,3-.5,4.1.8,4.8,5.8,9.5,8.6,16.6,10.9,7.1,2.3,13.1,3.4,19.7,4.6l.8,1.1,1.2-.4c28.2,3.5,54.4-7.1,78.4-21-.2-.3-.5-.9-.3-1,1.8-1.3,14.2-10,15.1-9.9l1,.5c.5.9.3,1.4-.5,2l1,.5-4,6c.1,2-1.1,4.2-2.4,5.8.9-1.2,2-1.8,3.4-1.8,4.5-3.7,9-4.9,13.6-3.6l1.1-.7c2.6-3.4,4.3-3.9,5.2-1.6,4.8-7.7,8.9-15.7,12.4-24.2l3-4.2c-1.1-1.1.3-2.7,1.5-1.5v1.4c-5,12.4-10.5,25.3-18.4,35.9h.3Z"/>
  <path class="st69" d="M585.6,61.5l-1.2.3c-.2,1.4-.8,2.6-1.8,3.6.8,3.8-3.2,8.6-5.8,11.5-4.2,4.6-9.4,8.1-14.7,11.4.8.7,1.5,1.5,2.1,2.5,2.2,1.4,3.8,2.9,5.5,5,.5,2.4,1.7,4.6,3.7,6.9,5.3,10.3,11.5,19.9,18.4,28.9.5,1.2,0,2.1-1.2,1.6-.9,0-1.5-.4-2-1.1-8-10-15.1-20.7-21.3-32.1l-2.2-.3c-8.3,1.4-12.1-1.8-16.9-8l-1.9.2c0,1.6-3.7,2.9-5,2-5.7,3.9-6.2.2-5.1-4.6l-.4-.9c.2-4,.2-8.7,0-13l1-1c1.2,0,1.7.8,1.6,2.7-.6,2.5-.3,4.4.8,5.8,0,1.7.2,3.4.6,5,9-2.9,18.1-7.4,23.1-16.1l1.2-.3c1.7-1.5,2.6-3.6,2.9-6.4l.8-.2-.2-4.8-1.2-1.2c-2.6-13.1-16-19.7-28.3-18.3-.5,2.1-.6,4.2-.3,6.4l-1,.6c.3,5,.3,9.9,0,14.9l-1.2.2c-.8,5.9-3.5,3.9-6.4.8-3.4,1.1-5.3.2-5.7-2.7l.4,26.5-1,.6c0,.4-.3.4-.5,0-.2,2.4-.4,4.7-.5,7,.4,2.8.3,5.6,0,8.5-1.5,4.8-2.5,0-2.1-2.7v-23.4c.3-.6.7-.7,1.2-.7-.2-2.5,0-4.6.9-6.4-1.4-6.1-1.3-12.9-.2-19,.2-1.7,0-3.3-.3-4.8l-1.1-.9c-.5-5.3-5.1-9.1-9.3-10.5-.8-1-1.4-1.1-1-3,20.5,2.6,44.1-4.2,62.6,7.3s13.4,13,13,22.6v-.4Z"/>
  <path class="st89" d="M341.9,253c1.8.1,3.3,3.4,2.5,5,1.8,2.3,2.6,4.7,2.9,7.8l.5,5c.2-1.8.9-2.6,2-2.4.2,4.1-.3,8-1.5,11.9-1.1,1.7-2.5,3.3-4.1,4.8-3.8,13.6-14.4,20.4-27,25.4-20.9,8.3-49.3,3.4-63-15.6.3,1.1,0,1.7-.9,1.8-4.2-6.2-5.7-10.5-6.5-17.9.1-5.1,1.2-10,3.1-14.8l1.4-.6c1.6-3.7,3.4-3.8,7.1-2.8s4.6,1.9,3.9,3.3l.3,1.1c-1.2,1.3-3.8,4.5-2.2,5.8-.5,1.6-1,4.8-1,6.5-3.9,18.8,15.8,31.6,33.1,31.9,14.9.3,33.6-11.1,35.1-26.9s0-9.6-2.5-12.4c-.6-2-2.4-5.7-3.5-7.5l.2-1c-4.1-7.5-10.4-12.5-17.5-17.1-1.5-1.2-1.9-2.3-1.2-3.3l1.5-.2c9,7.6,18.8,8.4,30.1,6.2,2.9.4,5.3,2.3,7.2,5.9h0Z"/>
  <path class="st172" d="M368.3,41.6c.9-1.2,2-2.5,3-3.7s5.2-8,6.2-8.2c13.7-.4,27.6.5,41.3,0s6.6-.3,9.4-.5c4.9-.4,7.9-3,12.7-3,.5.5-1,4.9-2,5.5l-.5-.5c-2.8,4.7-6.3,8.7-10.4,12.2l-1.5-.3-1.1.4c-2.1-2.5-17.4-3.4-17.5-1.5s-.1.8-.3,1.2v42.8c-.5,4.9-2.7,1.6-3-1.5-.4,0-.4-.3,0-.5-1.9-1.1,1.2-4.3,2.5-2.5-.4,0-1-.2-1-.5-.6-7.9-.3-17.8,1-25.4-.7,2.7-1.2,5.5-1.4,8.3-.9,3.2-3.8,2.3-6.1,1.2-1.9-.2-9.3.9-8.8,3.8-.2,4.5.3,9.3.9,13.6l-.5,1c-.3,8.4-.6,16.9-.5,25.3.9,3.5.9,5-3.2,5.4l-.2-6.8c-.2-21.2.1-42.5,0-63.7h-3c.4-.9,1.4-1.6,3-1.9-6.1.2-12.2.5-18.3.9l-.6-1h-.1Z"/>
  <path class="st45" d="M542.3,191.8l-.6-.5c-2.2,3.7-4.8,6.8-7.9,9.3-5.8-2.4-12.6-4.1-18.8-2.3.5.8.7,1.8.7,2.7.6,12.6.2,25.7-.2,38.1-1.2,5.5-2.6.3-2.9-2.1l-.8-.7c1.2-4.3,1.2-8.5.2-12.4-8.8-8.9-10.9,1.4-10.2,9.2l-1.1.4c-2,0-2.6-4-2.6-5.9l.2-6.7-.6-.4c0-7,.2-13.9-.5-20.9-.4-.5-6.9.7-8-.5l.3-1c.5,0,9.3.2,8.9,0-3.5-1.9-24.5-.8-26.6,5h-1l.2-3,7-15.4c1.8.8,3.3,2.2,5.4,2.5,9.5,1.2,24.3,0,34.4,0s12.2.7,17.8,0,7.8-3.1,9-3c2.8.2-1,6.5-2.2,7.5h0Z"/>
  <path class="st40" d="M286.7,183.4c.7.4.7,1.2,0,2.5-.7,3.8-2.6,4.3-1.9,9.6,1.7,11.8,29.4,27.9,38.9,35.2s9.5,7.6,13.7,11.9c-.7.4-1.3.6-2,.1-7.6-5.4-15.4-10.7-23.3-15.8-7.4-4.7-17.7-9.8-21.7,1.3-.9,1.9-1.9,2.5-3.3,2-2.4.2-7.2-3-7.5-5.5-.4-.3-.9-.3-1.4,0-7.2-7-13.5-15.2-14-25.5l-1-1.4c.1-2,0-3.5.5-5.5,1-.4,1.6.5,1.7,2.6,1.2-3.2,6.7-14.4,10.6-13.8l2.1,1.3c2.9-.5,5.1,0,6.7,1.5.5-.7.8-1,1.8-.6h0Z"/>
  <path class="st163" d="M340.4,165.4c1.7,3.7-1.8,10-3.7,13.5-4.9,8.4-10.3,16.5-16.1,24.5-3.1,3-1.3-5.6-.7-6.7.3-2.7.3-5.3.2-7.9l-1.1-.6c-5-13.4-22-14.4-31.4-4.7l-.8-.2c-.6.5-.8,1.5-1.7,1.5s-1.3-1.2-2.1-1.4c-1.4-.4-3.4.2-4.9-.1s-1.4-1.7-2.8-1.3-5.7,6.5-6.7,8.3-2,5-2.3,5.2c-2.9,1.9-1.4-1.9-2.5-3.3,4.4-20.3,27.5-27.7,45.9-24.7,8.5,1.4,14.5,5.9,23.1,1.9s6-4.4,7.6-4.1h0Z"/>
  <path class="st78" d="M593.1,200.8c-.5-.1-.7-.3-.6-.8-2.6,6.3-6.4,12.6-11.3,17.2.4,2.6-3.6,1.4-1.5-.5l-.4-.6c4-18-24.7-21.4-25-3.4.7,3.5,1.7,5.4,4.2,8,5.9,6,14.1,10.1,20.7,15.4l-.8.8c-4.4-.7-8.5-2.6-12.2-5.6-3.6-1.6-7.5-.9-11.6,2.2-2.1,1.2-3.3,1-5.2-.4-2.3.3-6.7-4.1-6-6.5-.4-.5-.9-.8-1.4-.8-1.2-3.3-2.2-6.7-3-10.2,1.8-13.4,15.5-22.9,28.6-22.4,6.7.3,14.4,4.7,20.6,2.2s4.2-3.8,6.2-3.2,0,7.2-1.2,8.4v.2Z"/>
  <path class="st73" d="M450.8,39.1c1.8-3.3-2.2-3.7-2-7,4.7.7,9.4.3,14.2.5,10.9.4,25.1,1.6,35.8.5,2.6-.3,4.1-2.1,6.4-2s.8,1.8.8,2.8c-.1,1.7-.6,3.1-1,4.7-2.7,4.8-5.1,9.9-7.2,15.3-.6,1.7-1.6,3-2.7,4.1.8,2.3-2.1,3.1-2.1.5.7-4.1,1-8.8-2.8-11.5l-.6-1.5h-1.7c-15.8-10.4-33.9.6-39.3,17l-1.3.9-.9-.3c-.7,2.6-11.1,4.2-12.2,3.6-4.3-2.2,3.6-13,6.3-14.8,6.1-2.7,8-6.3,10.5-12s1.1-1.1.5-.7-.4,0-.7-.2h0Z"/>
  <path class="st221" d="M482.7,249c-.9-.3-1.2-1.1-.9-2.5-1.7-1.1-2.3-3.2-1.8-6.2-9.5,6.3-14.2-5.7-13.7-13.3l-1.3-.8c-5.1-13.4-16.7-26.9-32.5-23.5l-1.5-.7c-.6,0-.9-.4-1-1-.8-1.5,3.1-4,4.5-3.5-.2,1.4.5,1.2,1.5.7,3.6-1.7,3-4.7,8.7-4.2,17,1.7,31.9,17.1,36.7,32.9,2,6.6,1.9,12.2,1.9,19s.3,2.2-.5,2.7v.4Z"/>
  <path class="st137" d="M16.6,245c-.4-1.2-2.5-7.1.4-6,5,11.1,17.3,16.7,28.3,20.4l.6.6,2.2-.5c15.7,3,32.7,1.1,48-1.5.4-1.6,3.8-2.6,5-1.5,5.7-1.9,11.2-4.1,16.7-6.7,2.9.3,5.6-.1,8-1.3,1.4-.4,3.1-.2,2.2,1.5,0,2-3.6,4.5-5.5,4,0,.4-.3.7-.5,1.1-1.8,3-19.3,9.9-23.7,11.4-13.4,4.7-28.5,7.8-42.4,5.5-.2,0-.4-.3-.5-.6-2.6.2-2.9-2.2-.7-3.6l-7.5-.8c0-1.8-1-2.4-3.1-1.9l-.6-1.1c-9.9-1.9-21.7-10.4-26.9-18.9h0Z"/>
  <path class="st179" d="M110.6,154c0-4.3,12.4-5.7,14.8-4.5,2,3.2,2.9,7,2.7,11.5l1.1.4c.9,5.7,3,9.9,8.9,11.5,0,.6-.8.7-1,1-.7.6-1.6,1-2.5,1.1l-15.1,14.9c-5.3,2.9-8.7,4.9-11.4,10.6-.9.8-1.7,1.4-2.4.2,0-3.8.5-7.6,1.7-11.5l3.3-35.3h-.1Z"/>
  <path class="st17" d="M505.5,113.2c.3,1.3-2.9,3.4-4.2,4s-2.9.9-4.5.5c-2.7-1.5-5.4-2.8-8.2-4l-2.2.5c-17.1-3.1-34.5-.8-51.5,1.8l-31.1,5.7c-.8,0-1.5-.2-2.2-.6-18.5,4.4-36.6,9.1-54.4,14-1.8.5-3.1.6-3.3-1.6.3-2.4,1.9-2.4,4.1-3.1,24.7-8.8,57.5-16,83.5-19.8h2.5c2.7-.2,6.2-.5,8.9-.8s-.7,0-.9-.2c2.3-.5,5.4-.8,7.7-1,13.3-.8,27.5-1.3,40.8-.5s13.3,1.4,15.2,5h-.2Z"/>
  <path class="st5" d="M348.9,198.3c-1.7-2.5.8-2.4,2.7-2.5,8.4-.5,18.7.5,27.4.5s2.5-.8,2.8-.5c.4.4,0,1.9-.5,2.5-1.1-1.2-3.4,1.2-4.2,2.3-2.4,3.1-3.2,6.7-3.5,10.5-.3,9.7-.4,19.4-.4,29.1s-1.1,3.6-2.3,2.1c-3.3,1.1-6.6,1.1-9.8.2-.8.7-.9.1-.8-.9-1.5.2-2.4-1.2-2.4-2.7.3-7.7.7-15.5,1.4-23.2l-.7-.4c-.3-7.3-1.2-15.6-9.8-17h0Z"/>
  <path class="st201" d="M129,198.3c2.4.6.4,3.8-1.3,4.8-3.5,1-5.3,3.1-5.6,6.3,2.3.6,3.7,2.7,4.4,4.8l.2,1.1c-4,4-8.1,8-11.9,12.3l4.8-4c.5,0,1,.1,1.4.5l.4,1.2c2.1-.7,5-1.2,6.4.8,1.7-.5,2.9-.4,3.6.4l.4,1.2c-4.1,3.7-20.3,17-24.6,16.5s-.7-.1-1.1-.3c-5.2,1.7-15.8-1-8.1-7.1,0-.5.3-1,.6-1.4.7-.5,1.4-1.1,2-1.7-2.1-.1-4,3-6.5,3.2-.4-.8,0-1.6,1.1-2.2-1.6-1.3-1.2-2.8,1-4.5v-.7c12.1-8.5,21.2-21.7,32.7-31.3h0Z"/>
  <path class="st4" d="M188.7,201.8c.6.8.7,1.4.1,1.9-4.1,1.5-7.8,3.8-11.3,6.4l-1.3-.3-.5,1.6c-6.7,5.1-12.3,11.4-16.8,18.8l-1.6.5h-1.3c-2.2-2.5-5.2-3.1-8.3-1.8l-8.3,3.7c-.9.1-1.3,0-1.6-1,.4-.6.7-1.2,1.2-1.8s.9-1.1,1.4-1.5c13.3-10.8,28.2-19.9,42.7-27.5l-.4-.6c-3,.8-5.9,1.9-8.7,3.3l-.9-.7c-4.8,2.5-9.7,4.8-14.7,7l-8.4,5h-1.8c-3.6,1.9-4.7,2.4-7.5-1s-2.2-3.8-1-4.5c.1-.4.3-.8.6-1.2,1.8-2.3,17.1-9.4,20-9.5s.8.1,1.3.3c7.1-2.1,14.6-2.9,22.1-3.5,2.6.4,3.7,4.3,4.8,6.4h.2Z"/>
  <path class="st205" d="M445.4,119.2c.8,0,1.2.2.9,1l13.4-1.2c.6,0,1.2.3,1.6.8h1.5c6.7,7.1,14.3,12.3,22.9,15.7l.4.7,1-.8c4.7,1,9.5.1,13.5-2.5,1,0,1.3.7.9,2.3v1.3c-.2,1.5-7.5,12.3-9.2,14.6s-2.1,1.1-2.5.9l-17.3-8.6c-10.4-4.9-19-11.7-25.8-20.5-1.5,0-2.8-.2-4-.6-.4-.5-1.8-.8-1.5-2,1.4,0,2.8-.8,4-1h.2Z"/>
  <path class="st163" d="M398.6,236.6c2.2-17.1,14.4-34.3,31.1-39.8l-4.5,3,.7,2-.3,1.8c-7.3,8.2-10.6,17.9-11.6,28.6s.4,11,.5,2l1-.6.9,1.8c-.2,8,1,16.1,4.2,23.5l-.2,2c.9,5.3,4.2,9.5,7.6,13.6.3,1.6-.3,2.3-1.6,1.3-1.4,1-3.2-1.7-3-3l-2.4-2c-4.7-7.7-8.4-16-9.9-25l-9.6-3.8-.5-1-.4,1.4c.5,3.4-1.1,9.1-1.9,2.6v-8.5h-.1Z"/>
  <path class="st183" d="M173.3,19.7c13.9,6.4,28,21.5,29.7,37.2,1.7,15.7.4,7.5-.4,10.6l-.9-.7c.3-1.1,0-2-.6-2.8-.3,0-.5-.2-.4-.3.6-3.5,1.1-.6-.5,1.2-1.6,1.8-13.3,4.5-16.3,3.8s-2.1-.6-2.6-1.8c.5,2.8,0,4.1-1.5,4.1l-1.1-1c.5-3.9.7-7.7.6-11.4-1.3-1.4-2.1-3.3-2.5-5.8-1.2-2.2-1.7-4.2-1.5-6.1.5-.4,0-1.7,1-1.3,1.4.6,3,2.3,4.4,2.6s1.7-.7,2.7-.7,1.6.6,2.4.5,3.9-4,4.6-4.5c.9-.8,2.4-.2,2.3-2.2-.3-2.9-6.2-8.9-8.5-11s-7-5.2-10.2-8.2-1.5-1.1-.7-2v-.2Z"/>
  <path class="st111" d="M450.8,39.1c.7-.6.8-1.3,1.5-1.5,0,4.4-3.3,9.8-6.7,12.4s-3.9,2-5.7,3.7-8,10.5-5.4,12.1c2.3-.5,6.4-.5,8.4-1.2s4.6-5.2,4.4-1.3l.8.7c-.6,1-1,2.1-1.3,3.3,1,.9.8,1-.5,1-1,3.7-.5,6,1.5,7,4.5.5,9.4.7,14.5.5,2.1,0,14.6,1.3,15.3,2.4s-.6,3.1-1.7,1.6c0,.4,0,1-.3,1-4.1.5-13.7.4-18,0l-.6-1v.7c-3.7.3-7.2,1.2-10.4,2.6,0,1.1-.5,1.8-1.3,2.2.8,2.2.6,2.8-2,2.4-4-1-7.8-2.2-11.5-3.5.5,2.6.3,4.8-.4,6.6,0,1.5-.4,2.8-2,1.6-1-4.5-1.5-9-1.5-13.6,1.3-18.6,10-28,22.9-39.8h0Z"/>
  <path class="st138" d="M214.1,89.3c2,.4,4,.4,6,0,1.5,11.8,3.6,23.7,10.1,34l.3,2.3c-1,.3-2.3.3-3.7.2-5.4,4.1-6.9,4.7-10.7-1.7h-1.1l-4.1-7.9c-.8-2.3-1.9-3-3.2-2-1.3-3.3-2.1-5.4-3-9,.6-5.2.7-10.4.4-15.7,0-1.3.2-2.4,1.5-3.1s7.5,1.3,7.6,2.8h-.1Z"/>
  <path class="st202" d="M251.4,262.9c-.8-2.5,2.5-6,4.3-7.9,11.9-12.3,31.5-10.6,37.8,6.1,0-.7.4-1,1.2-1.1.3,2,.2,5.5,0,7.5-3.7,5.1-10,7.7-16.4,8.4-1,.5-2,.8-3,1-.4-.2-.5-.1-.5-.7-.1-2.4,2.4-2.3,4-2.7,2.6-1.2,3.1-2.9,3.2-5.5,0-10.3-12.9-8.9-18.4-3.7l-1.2-.2c-3.4-2.4-8.2-5-10.9-.5-.4-.1-.4-.3,0-.5v-.2Z"/>
  <path class="st213" d="M184.2,190.3l-1.6.9c-7.9-.6-15.3-.8-23.2.3-1.2.2-10.9,3.4-10.8,4.3,1.6,0,2.5.4,2.7,1.4l-1.3,1.6c-8.1,3.4-15.1,8.9-21.6,14.8l-2,.5c-1.8-.2-1.8-2.1-2.9-3s-2.5-.9-2.6-1c-.3-.3,1.1-4.7,1.4-5.2,1.1-1.7,7.5-2.2,6.5-6.7,14.8-12.5,31-15.6,49.8-10.3s4.4.9,5.4,2.3h.2Z"/>
  <path class="st30" d="M488.6,113.7c4.2,1.4,7.8,3.5,10.9,6.3,7.9-.7,0,4.9-2.9,3.1-3.8-8.1-18.8-7.6-26.4-7.5-2.6-.8-4.9-.5-6.8.8l-.9-.8c0,.4-.2,1-.4,1-3.4.3-8.9.3-12.3,0l-.7-1c0,1.5-2.3,1.7-3.2,1l-5,.4c-15.6.7-39,6.4-54.4,10.5-15.4,4.1-28.1,8-41.3,13.4-.9-.5-.6-1.3-.7-2-.5-3.5-.2-3.7,3.2-4,17.9-5.1,35.9-9.7,54-13.9,25.3-4.8,62.1-13.2,87-7.5v.2Z"/>
  <path class="st26" d="M336.4,108.7c.3,2.7.4,5.4.5,8.2,1.5.9,1.2,2.8,0,4,.4,0,.9.2,1,.4.5,2.6.3,12.3,0,15.2l-1,.7h1.1c.2,2.9.6,5.8,1,8.7l-.6,1h-1.3c-5.8-5.8-12.5-11.2-19.1-15.9.1-.3.4-.9.5-1,2.7,0,4-2.2,3.8-6.5l.5-12c-.2-3.5,3.5-5.6,6.6-5.3s6,1.1,7,2.5Z"/>
  <path class="st115" d="M337.4,242.5c1.2,1.2,2.4,2.6,3.5,4-.2.8-.9,1.5-2,2-3-2.1-6-4.4-8.9-6.9-6.9-4.5-21.2-5.6-28.7-2.5l-1.2-.5c-3.8-.8-8.3-3.7-11.4-6.2s-1.2-1.5-1.6-2.3c2.7-1.1,3.9-7,6.4-8.3,5.8-3.1,11.7,0,16.8,2.8s12.5,8.2,18.3,12c2.8,1.9,5.7,4.5,8.8,5.9h0Z"/>
  <path class="st50" d="M535.9,88.4c1.5-.3,1,.8,1,1.7v4.7l4.5-1v1.1c-2,1.2-2.5,2.4-1.5,3.4v.5c0,8.3-.3,16.6-.6,25l-.4-.2-1-.5c-.2-8.3,0-16.5.3-24.6l.7-.3c-.3.7-.8,1.3-1.5,1.9.5,6.5,0,12.9-1,19l-1.2.2c-6.5-5.2-11.6,4.2-11.6,10.1l-1.1.7-.6-3.5c0-10.6.3-21.2.6-31.8-.5-2.3-.4-4.7,0-7h.5l1-.8c3.8,2.4,7.4,2.6,11,.7l1,.6h-.1Z"/>
  <path class="st191" d="M25.6,223.6l1.2.2c-.4,7.4,2.5,10.7,7.8,15.5,2.2,3.6,3,4.1,2.5,1.5l.9-.8c7.6,6.4,22,8,31.6,7,9.6-1,21.3-5.2,29.1-11.4,1.5,1.6-2.2,3.8-2.4,4.8-.8,3.1,8,3.4,9.9,3.6-.4,1.4-1.7,2.4-4.1,2.9l-15.1,2.6c.6.8.3,1.3-.2,2-1.8,2.5-23.9,3.9-26.8,2.2s-.7-.5-1-.8l-1.2-.8c-10.1-1.9-25.6-4.9-32-13.5s-3.1-4.9-.6-5.1c.6,1.4,1.6,3.2,3,4-2-5.6-3.8-7.6-2.5-13.9h-.1Z"/>
  <path class="st194" d="M557.3,253.5c-.7,1.7-1.4,3.3-2,5-2.2.8-3,6.9-2.9,9.4.4,6.5,11.8,14.8,17.6,16.3s10.2-5.2,11.9-8.9l1.2-.3c.8-1.6,2.5-2.1,5.3-1.5,3.4-3.5,6.4-3.3,4.2,2-1.3,2-2.4,3.2-4,5-.5,0-.8-.3-1.2-.6-5.8,4-11.5,8.1-17.1,12.5-2.9,2.2-5.9,1.7-9.2-1.5-6.8-5.7-13.9-10.7-21.4-15.2l-.3-1.2c-.3-.3-.6-.7-.5-1,3.2-6.6,10-13.7,15.2-18.9s2.3-2,3.2-1h0Z"/>
  <path class="st11" d="M128.5,68l1,.7-.3,10c0,5,.4,5.4,1.3,1.2.8.5.5,1.9.5,2.7.2,18.5-.4,37-.5,55.5-1.6,3.3-2.6-.9-2.5-3.1l-.5-8.4c-1.5-3.4-1.4-8.4,0-11.9-.7,0-1.1-.4-1.1-1.4l-15.2,3.7c0,1.2-.2,1.8-.9,1.8v41.4c-.2,1.3-.9,1.6-2.2,1.3.2-6.2,0-12.3-.6-18.4,0-17.2-.3-34.5-.5-51.7.9.4,1.1,4.2,1,5.5-.3-12.3-.2-24.6.3-36.9h1.2v6.1c1.5,5.8,1.4,12.1,0,17.9-.6,4-.7,9.1.9,12.9,0,4.5.5,8.7,1.3,12.8,5.5,0,10.6-.5,15.3-1.3-.6-4.6-.3-8.9.9-13-1.5-10-1.6-20.3,0-30.3v-14.4c.3-.3.9-.6,1.1-.3,1.5,2.1.2,14.6-.6,17.7h0Z"/>
  <path class="st107" d="M391.1,83.4l1-.4c3.6,1.1,7.5,1.1,11.8,0l.6,1v.5l.9,3c-.3,7.3-.2,14.5.2,21.8,1,0,1.7.3,1.9,1.1v1.5c-.4,1.3-3.2,1.4-4.5,1.5-.3-.8.1-1.3,1.2-1.5-5.4.3-12.8,1-16.6,4.5-.9-1-.5-7-.5-9l.5,6.5c4-.2,2.1-2.3,2-5.2-.2-7.1.2-16.2.5-23.4s-.5-2,1-1.7v-.2Z"/>
  <path class="st58" d="M513,260c.5.3.9,1.1,1.1,1.6-.5,8.1,0,16,1.9,23.6l1,.6c.3,1.5,2.2,6.3,2,7.2-.5,1.8-1.9.1-2.5-.2-.9-3.8-16.1-18.8-18.9-19-.3.7-.9.6-1.5.1-.4-.6-1.4-.6-1-2.2s1.8-1.3,2-1.3c.1-.5.3-.4.5,0,1,.2,1.4-.8,1.4-3.1s.3-3.5,1.1-4.4c.4-2.8.5-5.6.4-8.4-.4-6.2,5.8-6.2,9.2-2.6l2.5.2c.5,2.5.8,5.1.8,7.8h0Z"/>
  <path class="st32" d="M374.2,282.3l1.1-1c6.4.4,12.8.2,19.2-.5,2.3-1.6,4.2-3.9,5.9-6.8,1.6-.9,2.5.4,3.1,1.9l1.1-.5c.8,3.5.7,7.3-.5,10.7s-3.5,5.9-8.5,4.2c.6-.5,1.2-.9,2-1,2.8-.4,2.9-.5-.3-.6-14-.4-28.1-.7-42.1-.2-.3,1.4-2.1,1.4-3.4,1.3-1.1-.5-1.7.2-.5-2,1.8-1.1,3.7-2.5,5.5-4.1l1,.6,1.1-1.4c-.6-3.1,6.3-11.7,8.4-12.6s4.2,0,4.3,3l.8,7.8c.3,1.1.6,1.6,1.8,1.3h0Z"/>
  <path class="st210" d="M348.4,280.3c-11.7,40.3-72.2,50.4-95,16.4.2-2.7-2.2-4.7-2.5-7.2s.1-.7,1-.7c5.2,10.9,13.1,16.5,24,21,7.1,2.9,10.8,3.4,18.5,3.4s13.9,0,20-2.4,15.7-7.6,18.3-9.5,5.3-5.3,6.6-7.3,3.4-8.5,4.3-9.6c1.4-1.6,2.1-1.5,4.1-4.4s.5-.4.6.4h.1Z"/>
  <path class="st98" d="M305.1,87.4c1.1-1,1.5-.5,1.9.8v9.8c0,1.4.6,2,1.6,2.8-.3,2.7-1,5.9-2,8.5l-1-.5c-1.2,3.7-2.6,7.4-4.4,10.9s-.4.4-.7.6-.6.3-1,.4c-1.4.5-1.6-.6-1.4-1.8,1.3-5.2-1.1-5.6-7.4-1.1l-1.1-.5c-.7-3.2.2-8.2,2-10.9.6-6.5.5-12.9-.5-19.1.4-1,1-1.2,2-.8,2.6,2.3,9,3.1,11.9,1h.1Z"/>
  <path class="st156" d="M221.5,73.9c1.5,1.4.9,5-.5,6.5,1.2.9,1,2.4-.5,2.5-.4,2.2-.5,4.4-.2,6.7-.1.3-5.1,0-6.2-.2-2.3-.4-4.8-1.7-6.3-1.9s-1-.2-1.4.4c-.9,1.3.2,11.5-.3,14.2s-1.3,2-1.5,3.3c-3.3-14.1-1.5-25.3,4.5-38.3h.8c5.6-7.3,12-2.5,11,5.6l.6,1.4v-.2Z"/>
  <path class="st130" d="M360.3,241.5c3.4,2.2,7.8,1.2,11.5.2,1.1-1.5.2-21.6.4-25.3.3-6.4.5-14.1,6-18.4s3.4-2.6,3,.3c-3.2,4.5-5.8,3.7-6.5,11.2-1,11.2,0,23.2,0,34.3s-.5,23.8.5,35.6h16.7c.2,0,2.1-.8,2.5-1,4.5-3,.1-9.7,1.7-12.1,2.5-3.9,8,7,8.5,9.1l-1,6c-.6.8-.9,0-1-.7-.3-2.1.7-4.6-1.2-6.2-2.1,1.9-3.5,6.6-6.6,7.3-5.8,1.4-14.3.4-20.5.6-1,.5-1.6-.2-1.8-1.2-2-12.3-2.5-24.9-2.2-37.5-3.2,1.1-6.2,1.1-9.1.1-.6,11-1.1,22.1-1.6,33.2l-.8,1.4-.7-.4c.2-10.6.3-21.3.3-32.2s.4-4.1,2-4.2h0Z"/>
  <path class="st14" d="M401.1,241.1c1.8-.4,8.3,4,10.9,3.6,1.6,10.4,5.9,19.5,11.5,28.3-.9.6-2.1.5-3.6,0-4.3.2-7.7-.9-10.3-3.4-1.4-.3-2.4-1.3-3.1-3.1l-.9.6c-1.9-2.5-2.9-5.5-4-8.5l-.2-2.6c-1.7-4.9-1.3-9.8-.3-14.8h0Z"/>
  <path class="st157" d="M463.3,226.1c1.2-1.1,1.7,0,2.1,1.2l.9-.2c2,5.6,2.2,15.1,10.2,13.9s2.9-2,4.8-2.4c-.4,1.5-.3,5.2,0,6.7s1.3,0,1.5.3,0,2.8,0,3.5c0,1.6-.3,2.3-.5,3.5-.3,1.5-.8,2.1-1.6,1.6-1.6,5.4-4.1,10.3-7.3,14.7-1.7,1.9-6.3,4.8-8,2.1-.3-1.7,0-3.5.9-5.5,1.2-5,3.2-21.6.8-25.9s-.4,0-.7,0l-1-1c-.6-3.8-1.5-7.5-2.7-11.2l.7-1.2h0Z"/>
  <path class="st121" d="M209.1,67c1.8-4,3.5-7.5,6.1-11.1,6-8.4,17.4-17.2,27.3-20.5s1.3-.6,1.5,0c-2,1-3.1,1.8-4.2,3.7s-1.4.7.2,1.5l-.7,2c-8.2,8.1-14.4,18.1-16.4,29.6l-1.3,1.7c-2.3,0-1.3-2.7-1.5-4.2-.7-3.5-2.1-6.6-6.3-4.9s-4.9,5.9-4.6,2.1h-.1Z"/>
  <path class="st87" d="M31,211.2c-8.8-.3-11.3,12.1-10,19.2-2.3,6-7.6-4.5-7.9-7.2,2.2-14.1,20.1-24.9,33.3-18.1s9.4,10.1,6.1,16.5-2.1,2.7-3.1,2.9c-2.7.7-.6-1.3-.4-1.9,1.1-3.2,1.5-5.6-.6-8.6-3.9-5.7-11.7-5.1-17.4-2.7h0Z"/>
  <path class="st53" d="M336.4,83.9c.5,8.3.4,16.6,0,24.9-4.2,0-5.5-2.7-10.1-.9s-3,6.9-3.3,10.6-.4,8.3-1.1,10.8-2.2,1.7-3.4.9c.2-.2.3-.3.5-.5,1.3-1.8,1.7-3.6,2-5.9,0-12.6.6-25.2,1.7-37.7.3-.9,2.3-.6,3.3-.2l.7-1c2.7-.4,5.3-1,7.9-1.8l.8.9h1Z"/>
  <path class="st167" d="M230.5,125.7c.4-.4.8-.5,1.2-.3,3.4,5.3,7.8,9.6,13.2,13,9,5.5,12.8,5.1,22.2,3.3s.5.4.7.8c-1.1,1.9-1.4,2.1-3,3.5-4.8,3.2-10,2.9-15.7,1.9-9.9-1.6-18.4-6.3-26-12.6s-4-3.7-3.5-5.2l-1.1-1.3c-1.4-.1-4.2-3.5-2.4-4.7,1.3.8,3.1,3.8,4.7,4,2.6.2,5-5.8,9.7-2.5h0Z"/>
  <path class="st195" d="M577.2,134.1c.7-.3,1.4-.3,1.9.3,19.2,23,48.9,39.3,79.7,31.1,0-.4.3-.4.5,0h1.7c1.6,1.4-5.1,3.4-6.2,3.6l-.5.9c-34.3,8.5-62.8-13.1-83.1-38.3,0-.3-.2-.6-.2-.8.2-2.3,5.6,2.5,6.2,3.3h0Z"/>
  <path class="st0" d="M446.4,68.5c.4,0,.8,0,1,.4-.5,4.1-.2,5.8,1,5.1,0,0,.7,1.5.8,1.5,9.9-.6,20.5.7,30.3,0s7.7-1.8,11.7-2c.4,1.7-.5,2.7-1,4l-1,.2-6.3,9-1.1.2c-.4,2.3-2.4,2.2-5.8-.3-9.5-1.3-19.2-1.3-29.1-.2l-.9-1c-.1.4-.3.4-.5,0,0-2.4-.1-2.9,2.3-3.9s7.5-1.5,9.4-1.5h18.9s1.5-.5,1.2-1l-14.2-2.4c-4.1-.3-12.8.8-16-.9s-.9-5.2-.6-7.1h0Z"/>
  <path class="st91" d="M325,269.9c1.7-.7,2.3,2.5,2.6,3.6,5.6,19.6-14.4,35.3-32.2,36.7s-32-7-36.4-21.3c-1-3.1-2.5-9.1.4-11.5,0,18.2,17.7,31.3,35.1,30.3,18.6-1.1,36.3-18.3,30.6-37.8h-.1Z"/>
  <path class="st197" d="M579.2,236.1c4.2,1.6,13.3,10.2,15.3,14.3,3,5.9,3.1,10.9,1.6,17.1l-.8-.2c-.7-9.1-2.7-17.8-11-22.8v-1.4c0,0-2.5-.6-2.5-.6-2.4-1.9-5-3.7-7.6-5.2l-8.8,7.1-1.2-.3-2-.2c-4.3-2.7-8.3-5.7-12.2-8.9l-.7-1.9c.9.3,1.5.5,2.5.3,2.9-.7,6.2-3,8.7-3.8,5.5-1.7,9.6,4.1,14.2,5.8,1.1.4,3.5.4,4.5.7Z"/>
  <path class="st3" d="M149.9,107.8c3.2-.7,6.4-1.2,9.7-1.3l7.9-3.2c2.7-1.2,4.3-.3,3.8,2.7.6,0,1,.3,1.4.8l-.2,1.4c-7.9,4.3-13.6,10.2-16.9,17.6-1.2,1.8-1.6,2-3.2,0-4.1-6.3-8.7-11.9-14-17l-1,.4c-1.3-3.5,1.2-2.1,3.7-2.5s5.2-.8,7.3-1.4c1.6.2,1.1,1.4-.3,1.8.8-.3,1.3,0,1.8.7Z"/>
  <path class="st173" d="M431.4,90.8c-.4-2.8-.7-5.5-.5-8.5,4.6,1.7,9.2,4.7,14.4,4.5v-1.5h.5c.6.9,1.3,1.5,2.2,1.8l.2,1.2-1,1c0,4.1,1.6,7.9,3.4,11.5l-.4,1.4c0,.4,0,1-.2,1-2.4.5-15.2,3-16.7,2.8s-.8-.2-1.1-.8c-.5-1-.6-1.4-1-2.5-.3-1.3.4-1.5,1.4-.6l-2.2-9.8c.4-.3.7-.8.7-1.5h.3Z"/>
  <path class="st193" d="M13.1,223.1c2.4.9,3.1,7.5,5.3,7.9s1.6-.3,1.7-.4c.1-.2-.5-3.2-.4-4.7.4-6.3,2.6-14.4,9.7-15.7s2-.4,1.7,1c-8.8,3.7-9.7,14.5-6,22.4-.9,1.4.8,4.5,1.8,5.4,7.4,7.3,20.9,10.2,30.8,12.4s.8.6,1.2,1.5l-1.1.9c-5-.6-10.1-1.3-15-2.5s-9.1-3.1-14.5-7.1.3.2.4.5,0,.6,0,.9c3.6,4.8-5.5,2-7.4.1-1.5-2.1-2.9-4.1-4.2-6l-2.8-7.5c-2-2.1-2.3-5-1-8.5v-.5h-.2Z"/>
  <path class="st9" d="M200.6,68.5c-.1-.7.8-1.4,1.3-.8.8.9-1.3,7.8-1.8,9.2-5.6,20.9-23.3,28.2-37.3,41-4.7,4.3-6.1,7.2-7,13.7-1.5,1.1-6.3-7.2-7.2-8.4-2.5-3.3-5.1-6.5-7.7-9.7s-2.7-2.1-3.5-4.2c0-.9.4-1.8,1.5-1.3s4.2,4.2,5,5c3.9,4.2,6.8,9.3,10.4,13.7,2.3-10,11.1-14.2,18.4-19.9l.5-1.7c3.4-2.7,6.7-5.4,9.7-8.5l1.7-.3c.2-2.3,2.2-4.6,4.5-5l.3-2c4.7-5.7,8.3-12.2,9.8-19.4l1.3-1.5h.1Z"/>
  <path class="st27" d="M191.7,212.7c.6-.8,1.8-4.2,3.5-2.2s-2.5,14.3-3.7,17.7c-4.3,11.5-10.3,23.4-21,30.3-10.7,6.9-3.7,2.5-5.6,2.6-1.2-1.2,4.9-6.9,5.7-8,3.6-5,6.9-12.3,9.7-17.9l1-.2,2.8-5.3c4.2-5.4,8.1-11.2,10.2-17.5-.9,1-1.8,1.2-2.5.6h0Z"/>
  <path class="st220" d="M32,260.9c3.2,1.6,5.6,2.2,9.1,3.1s1.9.8,2.4-.1c1.7.3,4.4-.7,5.5,1.5l-2,.5c1.2,0,8.1.7,8.4,1,1.2,1.5-1.4,2.5-1.4,2.7s1.4,1.2,1.5,1.7c0,.5-.4.8-1,1-8.4-1.4-24.1-4.5-30.8-9.2s-5.4-5.5-8.2-7.7-2-1.3-2.2-.5c-6.5-9.3-9.1-16.3-7.5-27.9l1.2.4c0,4.9.5,9.8,1.2,14.6,1.5,0,2.6.8,3.6,1.8l6.6,8.8c3.5,4.3,8.4,7.2,13.8,8.1l-.2.2Z"/>
  <path class="st88" d="M326.5,144.6c.8.8,3.3,1.8,1.1,2.9-28,8.8-55.3,19.8-82,31.9-2.3,1-6.6,3.9-8.6,4.3s-1.9-.8-2.5-1.8v-1.1c15-7.8,32.2-14.8,49.2-20.3,8.6-4.9,17.8-8.6,27.4-10.9,3.7-3.3,10.5-5.5,15.4-5h0Z"/>
  <path class="st113" d="M223.5,82.9c-.6,21.5,5.8,46.4,26.8,56.5,21,10.1,11.6,2.5,18.4,1.2.5,1.4-.8,1.6-1,2-2.3-.1-4,1.2-6.3,1.4-10.2,1.2-20.8-6.2-27.3-13.4s-2.4-4-3.7-5c-7.1-10.7-10.2-23-10.9-35.8-2,.3-3.7-.2-5.5-.5,7.8.4,5.3-.2,6-5.7s.4-.7.5-.8l1,.4c-.3,7.6.5,7.6.6,0,.1-.7.7-.6,1.3-.4h0Z"/>
  <path class="st144" d="M501.6,135.1c-.6-1.7.6-3.9,2.5-4,3-2.3,1.6,1.1.4,2.8l-.4,1.2c-2.8,4.5-6.2,8.7-8.9,13.3s-3.3,7.3-3.6,7.5c-1.6,1-3.5-2.1-4.8-2.8-17.3-11.1-30.4-12.6-43.9-30.9.9-.9,3.5-.7,4.5-.2s5.9,7,7.5,8.5c9.9,9,23.5,14.3,35.2,20.6l1.6-.7c3-5.3,6.7-10.1,9.9-15.2h0Z"/>
  <path class="st126" d="M206.6,188.8c-.9-2-3.5-4.6-2.9-7.1s4-5.7,5-7.5c3-5.4,6.2-15.9,13.6-16.3s-1.2,3.2-1.4,3.5c-1.8,3.2-3.1,7.5-5,10.9s-2.2,2.8-2.7,4.5c2.1-1.8,4.7-4.2,6.2-6.5,2.1-3.3,2.7-9.5,7.5-9.4s1.3.4.8,1-3.1.7-3.7,2-1.1,3.6-1.2,3.8c0,.7.6,1.1.9,1.6.6,1.2.9,2.2,0,3.4-3.8,3.1-6.9,6.5-9.2,10.4h-.7c-.3,1.5-1.5,2.7-3.5,3.6,1,3.2-1.5,4.9-3.5,2h-.2Z"/>
  <path class="st160" d="M121.6,265.9c-.8.7-1.1,3.4-1,4.2s1.3,1.8,1,2.3-6.6,2.2-7.9,2.8c-20,8.4-35.2,12.5-57.5,10.7-1.6-.1-3-1.4-4.2-.5-.7-.3-7.6-3.3-6.5-4.5,21.7,5.3,45.3,1.6,65.1-8.3,3.6-1.8,7.8-4.2,11-6.7Z"/>
  <path class="st118" d="M107.6,143.1c2.1,5.5.5,12.1,1,17.9l1.5-.8v-43.9l16.7-4c1.2-.3.7,1.7.7,2.5-.8,1.5-4.8,3.4-6.8,3.9-2.9.7-5.9,1.2-8.9,1.1l-.6-.6c.5,9.5.5,19,.4,28.5s-.2,2.1-.3,3.2-.4,2.1-.7,3.2c-.2,16-.4,31.2-5,46.8l.6,1.5c-1.5,4.3-3.8,8.4-6.5,12.1l-1.5.4c-.2-.6-.4-.3-.2-1.3.9-4.4,4.3-9.5,5.6-14.4,4.8-17.8,4.1-37.5,4-55.9v-.2Z"/>
  <path class="st57" d="M594.6,271.9c-.8,1.9-1,2-2,3.5v-3.5c-.5-.6-3.2,2.2-3.8,2.4-1.2.3-4-.7-5.6.6l-.8-.9c.5-3.1.8-7.6-1.2-9.6,0-.2-1.4-3.3-1.5-3.5l-.3-.9c.8-2.6-.6-5-4.3-7.2v-1.3c0,0,1.2-.5,1.2-.5,3.7,2.8,7.5,4.4,11.7,4.9,4.3-2.1,5.2-1.1,6.4,3.1,1,3.6,1.2,9.3.4,13h-.2Z"/>
  <path class="st67" d="M189.2,91.3c-1.4,1.7-2.9,3.4-4.5,5-1.1,1-2,.5-2.7-1.5-3.5-.3-6.8-.7-10.1-1.1-5,7-13.6,12.5-22,14-3.1.2-8.3,2.9-10.4-.3,2.3-.3,4.6-.6,6.9-1.1s3.4-.6,2.1-1.2c8.9-2.7,18.8-10.5,23.5-18.6s2.7-7.2,4.4-10.8c.5-2.4.9-4.1,3.5-4.5,1.6,2-.1,6.2-1.2,8.6-2.6,3-6.8,10.5.5,8.4l2,.4c4.4-1.3,7.2-.5,8.2,2.6h-.2Z"/>
  <path class="st154" d="M233.5,186.3c-.4.7,0,1.4,1,2,1.3,2.5,6.7,7.5.3,7.5s-2.3-.5-3.5-.6h-11.2c-.8.6,0,.9.7,1,1.6.2,3.6-.1,5.2,0,0,.8-.2,1.6-.5,2.5-.2,1.5-4.2.9-5.4.5-3.6-1.5-4.3-2.3-.7-5.2.7-1.2-9.1-.7-9.8,0l-1-.7c-.2-.3-.3-.7-.5-1,0-1.1,1.2-2,3.6-2.5,4.4-5.2,11.1-7.6,17.8-6.4,1-.3,2-.5,2.9-.5.5,1.1.8,3.1,1,3.5h0Z"/>
  <path class="st139" d="M175.3,46.6c1.9,3.4,3.4,8.1,4,11.9.9,2.7.3,9.5-2,4-2.1-20.9-26.1-39-46.8-35.8-.4,1.9-1.1,2.2-2,1v-4h11.2c12.3,0,29.7,12.4,35.6,22.9h0Z"/>
  <path class="st52" d="M291.7,106.3c-.4,3.8-1,7.2-2,10.9.2.3.3.6.4.9.9,2.9-7.3,17.6-9.7,20.5s-.5.3-1,.3c-.4,1.9-1.3,2.8-2.7,2.7v1.3c-.2.9-7.2,7.4-8.5,5.6-.8,1.5-2.7,2.4-3.5.5,9.1-8.6,16.7-17,20.8-29.2s2.4-19.9,3.1-32c-1.3-4.9,3.3-2.9,2.7.6.6,5.9.7,11.9.3,17.8h.1Z"/>
  <path class="st131" d="M137,173.9c-10,12.3-22.3,26-33.1,37.8-1,1-4.3,5-5.7,3.9s0-.7,0-.9c3.1-4,6-9.1,7.5-13.9,3.3-.9,3.2-4.4,5.2-6.5s6.2-3.4,8.6-5.6l14.8-14.8h2.8-.1Z"/>
  <path class="st120" d="M171.8,193.3c1.6-.2,3.2-.2,4.8,0s.3.5.2,1c-6.3.7-9.9,1.6-15.9,3.5l-.5.8c-8.8,2.7-17.1,7-24.4,12.6h-.9c-2.5,4.9-5.4,7.8-10.3,10.8-1.2,1.5-2.4,2.2-3.6,2.1-2.4.8-4.7,4.6-7.2,5s-1,0-.7-.7c.6-1.4,11.5-12.4,13.4-14.2,7.2-6.7,15.5-13.5,24.9-16.9l.3-1.2c6.3-1.9,12.9-3.3,19.4-3.8l.7,1h-.2Z"/>
  <path class="st222" d="M584.1,243c4.9,3.8,8.2,5.9,9.8,12.3s.6,8.4,2.1,12c-.5,2-.8,2.7-1.5,4.5v-9.2c-.5-2.2-.2-3.9-1.7-5.7-2.2-2.8-2.7-.1-5.5,0s-9.1-3.6-12.1-5.4c-2.3.4-5.8-2.2-6.5-4.5l.8-1c4.3-1.1,8.5-2.3,12.7-3.7l1.8.7h.1Z"/>
  <path class="st97" d="M536.4,274.4c1.2-.3,2.2-.3,3,0,1.7.6,3.7,1.6,5.1,2.6,3.7,2.3,19.6,15.7,22,15.8s1.2-.2,1.9-.6c1.5-.8,6.1-4.2,7.5-5.4,3.7-3.1,3.1-2.9,7.6-5.4s5.1-5.2,5.1-1.1c-4.7,5-8.7,6.8-13.9,10.7s-5,4.7-7.8,6.7c-7.3-6.2-15.1-11.9-23.1-17.2s-6.5-3.3-7.5-4.4-.3-1.1,0-1.7h.1Z"/>
  <path class="st119" d="M546.3,91.8c.8-.3,1.5-.3,2.2,0,6,7.5,12.2,15.6,15.7,24.5,4.5,5.6,9,11.2,13.4,16.8l-.4,1.1c-1-.8-2.8-1.7-4-2.2s-1.7-1.2-2-.2c-6.7-8.3-13.6-18.2-19.1-27.4-.8-1.3-3.4-7.5-3.7-7.7-1.7-1.2-6.4,1.7-8.5,1.8-4.3,0,0-3.6,1.5-4.5s3.4-1.4,5-2h-.1Z"/>
  <path class="st19" d="M447.8,288.3c-1.4-2.1,2.9-5.8,5-5,5-2.5,8.4-7.5,11.2-12.2l1.2-.2c5.6.8,8.6-3.9,10.9-8.3s2.7-7.7,3.8-9.2,1.7.6,2.2-1c-1.9,12.4-11.9,25.5-22.5,31.9s-9.7,5.7-11.8,3.9h0Z"/>
  <path class="st129" d="M316,142.1c1-.3,1.6.4,1.3,1.4-.5,1.6-10.9,6.2-13.2,6.5l-1.1,1.3c-9.7,3.3-19.2,7-28.6,11.2l-5.1,1.4c-4.6,2.2-4.5-1.8-.8-3.6,1.9-.7,3.2-1.3,3.8-1.9,14.6-5.9,28.7-11.6,43.8-16.4h0Z"/>
  <path class="st182" d="M279.7,224.6c2.5,2.3,4.8,3.6,7.5,5.5,4.2,3,8.6,5.6,12.9,8.5,1.6-.4,3.3.9,3,2.5,1.7,4,7.3,5.9,10.2,8.4s8.3,9,9,10.9.9,2.3-.8,2c-8.6-13.5-31.5-24-43.8-35.8-1.3-2-.1-3.6,2-2h0Z"/>
  <path class="st189" d="M108.6,36.1l.5,6c.5,2.1.4,4.4,0,6.5,0,1.3-1.1,1.3-1.8,0,0-5.7-.3-11.4-1.2-17.1-.4-1.1-.9-4.3-1-4.4-.8-.7-8.9,1.2-10.3,1.9s-1.9,1.6-2.6,2.3-1,3.5-3,2.5c-4.3-5.4-9.7-9.9-14.2-15.2s-8.1-9-6.7-12.9c1.4,3,3.9,5.9,6.2,8.5,4.9,5.5,10.9,10.5,15.9,15.9,3.4-5.8,9.6-6.1,15.7-6.2,1.5.9,2.3,10.1,2.5,12.2h0Z"/>
  <path class="st203" d="M610.5,149.5c2.3,2.5,5,4.8,8.2,6.7.6.9.4,1.4-.7,1.7-4.5-.7-10-4.6-12.4-8.5-6.3-4.4-10.7-9.8-15.3-15.6s0-.6.4-.8c0,0,.8-.5.3-1.5-1.5-2.8-6.3-8.2-8.4-11.5-3.6-5.6-6.5-11.3-9.8-17s-5.3-5.9-2.9-7.3c5,6.1,8.7,14.7,13,21.5,7.2,11.4,17.2,23.7,27.8,32.2h-.2Z"/>
  <path class="st61" d="M219.5,130.1c1.4,1.2,2.9,3.4,4.5,4.7,10,8.6,24.7,14.6,38.1,12.2,1.1-.2,1.9-2.2,2.7-1-7.7,6.6-12.3,6.6-21.8,3.6-11.5-3.6-18.8-9.8-26-19-1-2.6,1.3-3,2.5-.5h0Z"/>
  <path class="st114" d="M96.2,229.6c2.9,0-1.7,3.4-1,4l2.5.7c-1.2.7-2.4,2-3.5,2.7-8.1,5.7-23.3,9-32.6,4.5s-2.3-1.2-2.2-2.5c12.9,3.1,26.3-2.1,36.8-9.5h0Z"/>
  <path class="st132" d="M294.6,260l-.7,5c-2.2-5.2-3-9-7.8-12.6-12.5-9.5-28.5-2.3-34.8,10.7-1.2,2.1-2.5.6-2-1.5,2.4-5.6,7.5-11.4,13.1-14,10.9-5,29.9-1,32.2,12.5h0Z"/>
  <path class="st190" d="M543.3,226.6c1.3,2.5,3.8,4.5,6,6.5,4.8,4.4,9.5,7.3,14.9,10.9,2.2,0,3.6,1,4.5,3,2.2,1.4,4.2,3.1,6.5,4.5,2.3,2.7,8.1,5.3,4.5,9.5-7-11.6-29.5-17.9-37.8-31.8-.2-1.7-.5-5,1.5-2.5h-.1Z"/>
  <path class="st110" d="M287.7,73.4c-.4,4.5-3.2-1.9-3.9-3.9l-1.1-1.6c-5.6-11.3-19.2-24.6-32.9-22.7-2.3.3-9.4,4.1-6.8-1.1,9.2-2.1,15.9-2.6,24.3,2.3,10.5,6.1,16.2,16.2,20.4,27.1h0Z"/>
  <path class="st178" d="M272.3,158.5c1.2.4-.5.8-.8.9-2.6,1-4.7,1.8-4.6,5.1.8-.1,1.6-.4,2.5-.5-.3.4-.5.8-.9,1.1s-.6.6-1,.8c-11,4.9-22.2,9.7-33.2,14l-1.2-1.4c-.3-.7-2-1.9-.5-3.2,13.1-5.9,26.4-11.3,39.8-16.7h-.1Z"/>
  <path class="st81" d="M208.6,193.3c2.4-.9,9.6-1.8,11.4-.2s-.4,1.8-.7,2.2.2.9.2,1c-.3.2-2.3-.3-1.2,1s5.5,1.5,7.2,1.5l.8-.8,7.6,1.2c2.8,1.5,5.6,2.6,8.5,3.1.4,1.5-.4,2.6-1.9,2.9-4.2.9-14.6-2.8-19.8-3.3s-5.3.6-6.9,0-4.1-6.3-5.2-8.5h0Z"/>
  <path class="st158" d="M489.6,45.6c1.1.9,1.7,2.9,0,3.5-1.2-1.2-6.7-3.7-8.5-4.2-15.6-4.6-28,6.7-31.8,21.1h-.8c-.2,1.3-1.3,3.6-1.7,1.5.2-1.1.1-2.7.5-4,5.7-18.4,24.8-30.2,42.3-17.9Z"/>
  <path class="st59" d="M583.1,274.9c-1.2,4-8,11-12.6,10.3s-11.2-5.7-13.6-7.8c-5.8-5.2-6.9-9.4-4.4-16.8s1.3-4.7,2.6-2.1c-3.5,10.8.7,16.3,10.1,21.5,3.9,2.1,5.7,3.5,9.8.6s7.1-10,6-16.1c1.4-.2,1.2-.1,1.7,1,1.1,2.5,1.1,6.9.2,9.5h.2Z"/>
  <path class="st108" d="M408.1,148.5h-1.3c-5-3.9-11.5-8.8-14.2-14.5.1-2-1.3-2.5-4.4-1.4-.2-.5-.9-1.1-.5-2,.8-.2,1.6-.5,2.4-.5,5-.5,9.9-1.3,14.8-2.6,1,0,1.5.9,1.6,1.9-.8,5.7.4,11.7,1.9,17.2l-.5,1.9h.2Z"/>
  <path class="st180" d="M306.6,109.2c-.4,4.8-6.2,14.9-9,19.1-7.3,10.5-16,17.8-28.3,21.7-2.5.9-3.5,0-1-1.5,2.5-1.1,6.6-4.9,8.5-7,.7-.4,1.3,0,1.7,1,.2-4.4,1.3-4.5,5.5-4.4,6-4.5,10.8-10.3,14.6-17.5h1.1c2.6-4.9,4.8-10.5,6-15.9,1.4.6,1.1,3.2,1,4.5h-.1Z"/>
  <path class="st8" d="M177.8,219.2c-.2.6-.4,1.1-.6,1.6s-.5,1-.8,1.4c-4.1,5-8.3,10.1-12.6,15s-.8.7-1.3,1-1,.6-1.6.8c-1.5,1.2-3,1.7-2.5-.8,2.2-2.5,4.1-5.2,5.5-8.1.6-1.3,1.4-2.5,2.5-3.5,6-8.5,14-14.7,22.4-20.9,4.1-.8,1.9,4.1-.7,5.5-3.2,2.2-6.2,4.5-8.6,7.6l-1.6.3h0Z"/>
  <path class="st141" d="M319.5,60.5c1,1.4.4,3.9.5,5.7s.5,1.3.5,1.5v24.1c1.2,0,.9,0,1-.7s.9-5.5,1-5.7.9,0,1,0c.3-1.7,3-1.4,2.5.5h-3l-1,38c-.4,1.8-.3,3.9-1.7,5.3s-1.2.4-1.3.5c0-1.3.4-2.4.5-3.7,1.3-20.7,0-44.4,0-65.4h0Z"/>
  <path class="st124" d="M409.5,269.4l3.3,2.5c6.2,6.5,16.1,14.2,25.6,13,.8-.7,8.8-1.9,9.3-1.7s.6.7.7,1.2c.7,1.7-1.2,2.4-2.5,2.5-.8.5-4,2.2-4.8,2.4-10.7,2.2-31.8-12.2-35.5-22.3s0-1.3-.2-2c-.7-2-2.1-4.5-2-6.5,2.3,3.6,3.8,7.5,6.2,10.9h-.1Z"/>
  <path class="st6" d="M351.8,289.8c1.5-.5,2.1-.8,3.1-2.1,15-.7,30.2-.5,45.1.2l.5,2.5h-5c-13.3.1-29,.9-42.1,0-1,0-1-.3-1.7-.5h.1Z"/>
  <path class="st193" d="M25.6,223.6c1.5-6.7,5.8-10.8,12.9-10.4.3,1.3-.3.9-1,1.2-2.3,1.4-4,1.9-5.5,4.5-4.3,7.4,0,16.2,6,21.1l.5,3.5c-3.5.3-3.3-2-4.7-3.5s-6.3-5.9-7.3-8.6.2-5.3-1-7.7h.1Z"/>
  <path class="st125" d="M215.1,182.9c2.9.1,10.3-8.3,12.1-8,1.7,2.7,3.9,5.1,5.3,8-1.8,2.7-5.4.8-7.6,1.1s-6.2,1.7-7,2c-2.5.9-3.7,3.3-5.4,4.6s-3,.9-4.4,1.8c-.7-1.4-1-2.4-1.5-3.5,4.3,1.8,2.3-1.5,2.5-2s.6.4,1,0c1.7-1.3,3.3-2.5,5-3.5-.4-.1-.4-.3,0-.5h0Z"/>
  <path class="st146" d="M184.2,190.3c.4.7.4.6.5,1.5l-.4,1.4h-12.5c-4.7,0-15.9,2.3-20.4,4l-4-.5c-1.5-2.2,8.8-5.4,10.3-5.8,8.4-2.2,17.9-.9,26.5-.6h0Z"/>
  <path class="st223" d="M13.1,223.6c-.1.8-.6,5.4-.5,5.6s1.5,1,2.1,2c2.2,3.5,3.5,12.3,7.2,14.2s5,1.6,6.8,2.1l-.2-2c2.5,0,5.8,2.5,4.8,5.5,3.6,3.3,8,5.8,12.9,7.2,1.1.8,1.1,1.9-.3,1.6-10-2.6-19.7-6.4-26.1-15s-2.5-4.7-2.8-4.9c-1.7-1.5,0,4.2-.5,5-3.7-6.2-6-14.3-3.5-21.4h.1Z"/>
  <path class="st219" d="M357.3,213.7l.8.4c.3,2,.7,2.5,1.2,1.6,0,7.7-.6,15.5-1,23.1,0,.8,2,1.8,2,2.7s-1,2.9-1,4.2c-.3,7.5.3,15,0,22.4s-1,6.8-.5,10.2c1.8,1.1.5,4.7-1,6-.8.4-1.7.7-2.5,1.3s-3.3,4.4-4,2.2c1.1-2,3.7-3.3,4.8-5.4s.7-3.8,1.2-5.8c-.7-20.8,1-42.2,0-62.9h0Z"/>
  <path class="st134" d="M481.7,86.9c3.2-.7,0,3.7-1.1,5.1l-.4,1.8c-.5.3-.6.8-1.5.5.8-4.9-2.7-5.7-6.7-6s-8,0-11.7,0c-4,.5-8,.3-11.9,0-1.7-.9-2.9-.5-2.5-3,7.8,0,23.3-2.2,30.3.3s3.8,3.2,5.5,1.2h0Z"/>
  <path class="st42" d="M244.9,36.1c1.1-1.4,4.9-3.2,3.5-.5-2.3,3.3-6.9,6-9.7,8.9-9,9.3-11.2,17.9-14.7,29.9l-1.1,5.9c-.5.9-1.2.9-1.9,0,.3-2,.2-4.4.5-6.5,2-13.5,8.7-24,18.4-33.3s3.1-3.3,5-4.5Z"/>
  <path class="st147" d="M5.7,227.1c.3-2,.5-6.4,3-7-3.8,17.9,8.2,33.1,23.4,40.8-5.1,1.2-11.2-3.5-14.4-7.2s-5.2-8.4-8.2-10.2-1.6,0-2-.4c-2.1-2.8-.4-12.5-1.7-15.9h0Z"/>
  <path class="st165" d="M163.8,230.1c1.2,3.3-3.7,6.3-5,9.2l2-.3v1.7c-3.4,4.5-8.6,9.6-13.4,12.3-4.1,3.7-7.9,7.8-12.4,10.9-.2-2.3,2.5-3.2,3.7-4.5s4.3-4.7,5.5-6.4.3-2.4,2.3-3.9c4.9-3.9,12.9-13.7,16.9-18.9.2-.2.3-.2.5,0h-.1Z"/>
  <path class="st51" d="M340.4,165.4c.5.1.8.4.9.8,1.5,5.1-6.9,19.2-9.9,23.8s-10.8,15.9-11.8,16.1-1.6-.3-1.7-.7c-.8-3.3,1.5-10.3.5-14.1,1.8-.1.7.5.7.3-.3-.6-.3-2.9.8-2.8,1.2,3.7,1.2,7.2.2,10.9s-2.4,3.3-.3,3c4.3-7.3,9.9-13.7,14-21.1,1.7-3.1,5.9-10.8,6.6-13.9s.2-1.5-.2-2.4h.2Z"/>
  <path class="st38" d="M336.9,90.3c.6,1.4.9,2.9,1,4.4v21.4c-.1,0,.3,0,.3,0,.1-1.4.7-2.1,1.6-2.1,0,10-1,22.9,1.1,32.4s2.7,6.7,2.3,7.8c-.4.3-.8.1-1.2-.1-1.9-1.3-3.3-5.3-3.8-7.3-1.5-2.8-.8-5.3-1-8.2s-.5-1.3-.5-1.5v-16.4c0-3.8-.5-8.2-.5-12.2v-24.9c2.2-.6,2.2,5.8.5,6.5h.2Z"/>
  <path class="st224" d="M176.8,212.2c-10.3,9-17.2,20.9-26.4,30.8l-2.5,1.5c-.4-1.9,1-2.6,2-4-.8-1.4.9-3.9,2.5-3.5-.1-2.4,2.7-5.9,5-6.5,6.6-9.1,9.3-14.2,18.9-20.9,2.2-1,1.9,1.2.5,2.5h0Z"/>
  <path class="st143" d="M434.9,196.3c-.2.4-.2,1.1-.5,1.5-.8.9-3.2,2.2-4.5,3.5l-.6,2c-7.8,7.6-12.1,17.7-12.7,28.6l-1.1,1.8-.5,7.5c-1.9.6-1.9-1.6-2-3.2-.9-12.9,4-26.8,13-36.1,1.7-1.8,2.8-2.7,5-4-.4-1.3,4.3-3.1,4-1.5h0Z"/>
  <path class="st82" d="M130.5,138.1c0,11.7-2.4,26.5,7.5,34.8-6.9.6-9-6.4-9.9-11.9-1.8-11.5-2-23-.5-34.3,1.1,3.4.2,7.4,1.4,10.7s.6,1.5,1.5.7Z"/>
  <path class="st101" d="M320,188.8c.2,2,.2,5.3-1.5,2.5s-1.2-3.1-2.1-4.6c-5.7-9.6-23.2-10-29.8-.8,0-.1-.6-1.8,0-2.5,4.7-3.8,7.7-6.9,14.2-7.4s18.2,4.9,19.1,12.9h0Z"/>
  <path class="st181" d="M544.3,146.1l.7-.9c1.9.5,3.9,1.1,5.8,1.9.2.5,0,1.4,0,2-10.8.3-21.8-.3-32.6,0s-8.2,1.9-8.2-1c1.3-.9,4.7-3.2,5.5-1.5l2.9-1.3c7.8-.6,15.8-.8,23.6-.3l2.3,1.1Z"/>
  <path class="st18" d="M106.1,31.7c1.7,5.3,1.7,9.5,2,15.2s-.5,2,1,1.7c0,1.2.3,2.6.5,4v7.5c-.8.5-.5,1.9-.5,2.7,0,6.5.3,13,0,19.4s-1.2,9.8-1,14.6l-1-5.5c0-14,0-28-.5-42s0-11.8-.5-17.7h0Z"/>
  <path class="st100" d="M584.1,68c-3.7,11.2-8.5,13.8-17.4,20.2s-2.5,1.4-2.5,2.7c0,0-.3.3-.5.2-1.3-.8-2.5-1.9-4-2.4,9.5-5.7,19.1-12.1,22.9-23.1,1.6-4.2,2.1,0,1.5,2.5h0Z"/>
  <path class="st150" d="M536.4,119.2c0-6.4,0-12.8,0-19.2.2-1.1,1.4-1.7,2.5-1.7v25.4c.9,0,.5-1.1.5-1.7.3-6.8,0-13.6,0-20.4s-.3-2.2.5-2.7c1,10.7-1.4,24,0,34.3.4,1.9-.2,2.3-1.5.9l-1,.6c-1.4-1.3-2-3.3-1.8-6-.3-2.8-.7-7.2.8-9.5h0Z"/>
  <path class="st63" d="M520,50.1l.7,1.5c.4,5.9.5,11.7.3,17.6l.9.7c0,2,.4,5.5,0,7.2s-1.4,0-1.6.5c.7,3.3-.8,25.5,0,26.6s1.4-.7,1.5-1c.4,8.6.2,17.4-1.2,26l-1.2,1.4V48.6c1.5-1,1.8,1,.5,1.5h0Z"/>
  <path class="st70" d="M371.2,31.7c-2.3,3.5-5.9,8.5-8.5,11.7s-4.8,5.1-5.2,5.2c-1.6.7,0-2.7-.5-3.5-1.7-2.8-12.3-1.5-15.2-2s-3.3-1.2-3-2.5h16.2c1.3,0,3.3,2.5,4.7,1.8l11.5-13.7v3Z"/>
  <path class="st13" d="M283.7,160.5c-12.4,5-24.8,10.2-37.1,15.3l-12.1,6.1c-.9-1.5-1-2.1-1.5-3.5.7-1.4.1.9,1.2.5s.7-.7,1.2-.8c11.1-3.5,23-9.5,33.9-14.1,4.6-1.4,9.1-2.9,13.6-4.4l.9.9h0Z"/>
  <path class="st12" d="M338.4,147c.4.4.9.6,1.4,1.3,1.4,1.9,1.3,5.5,3.6,6.1-.6,1.6-4.3-1.7-5-2.2-5.2-4.3-10.7-11.1-15.9-15.9s-5-3.1-5-4.5.5-.6.5-.7c1.5-.3,2.3.5,3.4,1.3,4.7,3.2,13,10.5,17,14.6h0Z"/>
  <path class="st152" d="M289.7,47.6s-1.5-.2-1.5-.7,2.2-1.7,2.7-2.2.8-1.5,1.5-2c1.7-1.4,8.5-2.3,10.9-2.5s14-.4,16.2.3,1.5,1.2.8,2.3-12.7.3-15,.4-1.1.5-1.2.5c-5.7.4-9.6,0-14.4,4h0Z"/>
  <path class="st24" d="M579.7,216.7c-.2,1.3-.5,1.2-1,0,0-5.1-.3-9.7-5.3-12.3-7.7-4.1-18.2-1.3-19.1,8.4-1.1-5.4.7-9,5.8-11.4,10.9-5.2,23.7,3.2,19.6,15.4h0Z"/>
  <path class="st62" d="M279.7,224.6c-1.9-.4-1.4.6-2,2-8.9-8.5-15.1-15.6-14.4-28.8,1.2,0,1.6,0,2,1.3.5,2.1.5,4.5,1.2,6.8,1.9,6.5,8.3,14.2,13.3,18.8h-.1Z"/>
  <path class="st211" d="M278.7,273.4c3.9-4.1,1.4-10.7-4.3-11.4s-12.3,3.2-14.1,8.9c-.6.4-1.5,1.2-1.5-.3,0-2.7,1.7-4.9,3.5-6.7,7.4-7.2,22.2-7.3,20.4,6.2s-1.6,2.8-3.2,3.3-.8-.2-.8-.1h0Z"/>
  <path class="st133" d="M388.2,132.6c-.3-1.2.6-1.1,1.5-1.3,4.8-.8,2.8-.2,4.1,2.9,2.6,6.2,10.4,9.5,14.3,14.3,1.7-1.3,4.4,6.5,1.5,5-4.9-2.7-14.9-13.2-18.9-17.7-1.4-1.6-1.6-.3-2.5-3.2Z"/>
  <path class="st77" d="M676.6,153.5c-1.6,2.3-3.5,4.5-5.8,6.3l-1.2-.3c-1.4.7-2.3,1.2-2.8-.6,1.4-.9,2.1-1.7,2.3-2.3,5-4.7,7.2-10.1,5.9-17.1s-4.9-8.4-.4-5c6,4.5,4.4,13.3,2,19.2v-.2Z"/>
  <path class="st31" d="M650.8,164c.9,0,1.2.5.8,1.3-.9,1.7-14.6.3-17.2-.3-.4.2-.8.3-1.2.3-2.9.4-13.4-4.4-15.2-7.3.3-1.4-.4-1.4-1.1-2.1-1.6-1.6-4-3-5.7-4.5s-1.6-1.7-.7-1.8c11,8.8,26,15.8,40.3,14.4h0Z"/>
  <path class="st59" d="M536.4,274.4c1.7-3.7,6.8-10.3,9.5-13.7s7.8-9.5,10.5-10.4,1.2-.4,2-.3c.6,1.7-.6,2.5-1,3.5l-2.5,1.7c-3.4,3.7-7.1,7.3-10.2,11.2s-4.1,6.9-5.2,8-2.6,1.5-3,0h0Z"/>
  <path class="st128" d="M130.5,64c0,3.9-.7,5.2-2,4v-14.7c0-4.9.3-2.2-.5-2.7,0-7.6.3-15.2.5-22.9.7.1,1.6-.9,2-1v37.3Z"/>
  <path class="st149" d="M339.9,114.2l-1,3.5-2-.8c0-8.8.2-17.7,0-26.5.4-.5.8-.7,1.3-.4l.2-8.8,1-1.2c-1.2-2.2-1.2-4.3,0-6.5h.5v40.8h0Z"/>
  <path class="st92" d="M522.5,130.1l.8,1.1c-.2,5-2.3,14-7.8,15.3-1.9.2-3.5,1.7-5.5,1.5,0-1.7,2.8-2.1,4-3.2,4.5-4,4.5-9.1,5.4-14.2,1.9-10.6,2.5-16.3,2.5-27.4v-8.5c0-.4.3-.4.5,0,0,11.8,0,23.6,0,35.3h0Z"/>
  <path class="st225" d="M497.6,220.7c1.3-.9.9-.5,1,.7,0,2.2-.4,6.7,0,8.4s1.4,2.2,2,3.8c1.4-.3,1.6,1.5,1,2.5-.6,1.2-.7,2.6-.7,4.2,0,7.6,0,15.2-.8,22.7-.1,1.3-.5,8.1-1,8.4-1.5.9-1.4-.9-1.5-1,1-13,1-26.1,0-39.3v-10.4Z"/>
  <path class="st34" d="M542.3,191.8c-1.4,3.6-6.5,8.1-8.3,11.9-1.4.5-1.2-.8-2-1.4-3.1-2.3-4.9-2.1-8.6-2.6-2.5-.2-5-.4-7.5-.5-.5.4-.8,0-1-1,0-.7,0-1.2.8-1.4,1.8-.6,10.5.1,12.6.6s4.5,2.3,5.1,2.2c1.7-.3,6.9-9.1,9-10.4.4.3,0,2.1-.3,2.5h.2Z"/>
  <path class="st187" d="M517,285.8c-1.4,1.1-1.6.2-2.2-1.1-2.3-5.5-1.4-18.3-1.8-24.8-.7-3.9-.7-7.7,0-11.4,1.1-.2,1.6.6,1.6,2.2l.4-7.1,1-.5c0,12.1-1.6,31.7,1,42.8h0Z"/>
  <path class="st94" d="M191.7,212.7l2.7-2c.7.5.8.9.8,1.7s-3.2,7.2-3.8,8.2c-2.3,4.1-5.4,7.6-7.9,11.5s-1.9,5.8-3.3,2.9c3.8-7.4,6.8-15.7,11.4-22.4h.1Z"/>
  <path class="st47" d="M401.6,121.2l-56.9,15.4-.3,2.5c-.5-1.9-.7-3.4-.5-5.5.7.5,1.3,1,2.2,1s8.8-1.7,10.4-2.1c6-1.5,11.8-4,17.7-5.7,9-2.5,18.2-4,27.4-5.7h0Z"/>
  <path class="st33" d="M326.5,144.6c-5.3,1.2-10.4,3-15.4,5l-5.8,1.3-1.1-.8,12.4-6.7-.5-1.2c1.6-.5,3.9-2.3,5.7-2s3.7,3.4,4.8,4.5h-.1Z"/>
  <path class="st211" d="M294.6,267.4c-.1.8,0,1.5-.2,2.5-2.3,7.1-12.9,10.5-19.2,7,.6-2.4,5-2.1,7-2.7,3.2-1,5.4-1.7,8.2-3.7s2.2-3.2,4.2-3h0Z"/>
  <path class="st16" d="M390.1,130.1l17.4-4c0,4.9-.1,10.2.6,15.1s3.4,10.2,3.4,12-1.3.6-2,.2c2.4.5-.7-4-1.5-5-1.7-5-2.6-10.9-2.8-16.2s.9-2.8-.2-3.9c-.7-.5-9.9,2.2-11.7,2.3s-2.3-.5-3.2-.5h0Z"/>
  <path class="st185" d="M516.5,292.8c-4.1-2.2-9.5-8.9-13.2-12.4s-5.5-4.1-7.2-6.5c.6,0,1-1.4,1.1-1.4.9-.4,6.8,4.7,7.9,5.6,2.6,2.3,10.7,10.2,11.9,13s.9,1.1-.4,1.7h0Z"/>
  <path class="st206" d="M516,199.3c.4.1.4.3,0,.5v43.3l-1,18.4c-3.4-2.6,0-9.2-2-12.9l-.7-1c-.2-3.9-.3-7.2-.3-9.9-.6-.7-.3-1,.5-.5l1,3.5c.6,0,.9,0,1.2-.5s.7-5.3.7-6.2c.6-9.9.3-21.9,0-31.8,0-1.3-.7-2.5-.5-3.7.2.3.9.8,1,1v-.2Z"/>
  <path class="st168" d="M463.8,118.2c4.4,2.9,7.9,7.5,12.4,10.4,2.8,2.7,6.2,4.5,10.3,5.4,1.5.8,1.3,2.1-.4,2-9.1-1.8-18.2-10.3-24.9-16.4-2.9-.8-.4-1.5,1.5-1.5.1-1,.6-1,1,0h.1Z"/>
  <path class="st214" d="M471.7,203.3c-.8-1-.4-1.2.2-2,3.5-4.7,18.4-4.8,23.9-4.5s4.4.3,3.2,2.5-8.4,0-9.9,0c-2.5.1-6.2.3-8.6.6s-6.8,3.3-8.8,3.4h0Z"/>
  <path class="st71" d="M199.6,205.7c1.5.9,2.5,1.6,2.5,3.5,0,0,.5-.2.4.6-.2,1.3-2,3.2-3.4,2.6-2.5-1.1-7.1-9.1-8.5-11.7-.4-1.6.8-1.4,1.8-.5.6-1.5,1.3-2.4,2.2-2.5,1.5,2.7,3.3,5.3,5,8h0Z"/>
  <path class="st140" d="M450.3,102.3c1.2-.6,2.9-.3,3.5,1,.1.5.7,1,.5,1.7-.4,1.3-4.6.7-6.1.9-4.5.5-9.1,1.4-13.6,2.4-2,.3-1.7-1.8-2.2-3l17.9-3h0Z"/>
  <path class="st127" d="M188.7,213.7c-2.3,3.3-4.6,8.1-6.4,11.8-5,9.9-8.4,21-16.5,29,.7-3.2,3.1-5.2,4.9-8.3,5.6-9.5,9-19.2,13.5-29-1.7-2.5,3-6.2,4.5-3.5Z"/>
  <path class="st37" d="M669.7,159.5v1.3l-4.9,3.3c-2,1.5-3.9,1.9-5.6,1.4h-.5c-4.7,1.3-9.8,2.1-14.8,1.9-2.9,0-8-.2-9.6-2.4,4.8.4,10.1,1,15,.3s1.7,0,1.5-1.3c7.1-.7,13.2-2.6,18.4-7.5l.5.2-2,2c.5.7,1.2.8,2,.7h0Z"/>
  <path class="st15" d="M194.7,197.8c-.4,1.1-.8,3.5-2.2,3.5s-1.5-1.5-1.8-.5c-1.3-2.5-6.2-11.5-2.5-13.2s3.7,4.8,4.7,7.2,1.2,2,1.7,3h.1Z"/>
  <path class="st170" d="M216.1,124.2c.2.3.2,1.1.6,1.7.9,1.4,2.5,2.6,2.9,4.3-2.6-2.2-1.2-.5-2.5.5-4.8-6.2-6.5-9-9.5-16.4l1-2.5c.2-.2.8.5,1,.7,1.7,2,4.7,8.7,6.5,11.7Z"/>
  <path class="st99" d="M505.5,113.2c3.1,6-3.3,10.4-8.7,11-.6,0-.2-.8-.3-1,2.2.4,4.1-.7,6-1.7-1-1.4-2.1,0-3.5-.5s-3.3-3.1-4.5-3.9c-1.9-1.3-4-2-5.9-3.3,3.4.8,4.9,2,7.8,2.9,4.7,1.4,5.3-1.6,9.1-3.4h0Z"/>
  <path class="st96" d="M676.6,153.5c-4.1,9.6-12.6,14-22.4,16.4-.5-.9-1.1-1,.2-1.5s3.2-1,4.7-1.7,2-1.4,0-1.2c3.4-.9,7.7-3.6,10.4-6l7-6h0Z"/>
  <path class="st216" d="M188.7,213.7c-3.4,0-3.3.9-4.5,3.5-.8.2-1,1-1.5,1.5l-2.6,3.8c-1.2.4-2.1-2.3-2.4-3.3,1.6-1.8,3.2-3.6,5-5.2s10.7-6.6,6-8.2c.3-.2.7-1.2,1.2-1.5,5.6,5.1,1.3,5.6-1.2,9.4Z"/>
  <path class="st21" d="M426.5,43.1c2.9-.4,2.1,4.3-.5,3.5-.6-.6-1.1-1.5-1.7-2-3.6-2.6-12.2-1-16.7-1.5-3.7-3.8,6-3.1,8.2-3,3.2,0,8.4.7,10.7,3Z"/>
  <path class="st123" d="M368.3,41.6l19.9-1c0,.7.2,1.8-.5,2.3s-3.1.7-3.5.7c-6,.6-12.5-.6-18.4,1.5-.5-.5,2.1-3,2.5-3.5Z"/>
  <path class="st86" d="M206.6,192.8c1.4,2.7,8,11.4,3.5,13.7s-2-.9-2.7-2.7c-1.2-2.9-2.8-5.7-4.2-8.5-.2-.4-.2-.7,0-1,1.2-.4,2.4-.9,3.5-1.5h-.1Z"/>
  <path class="st218" d="M470.2,115.7c-2.5,0-6.6-1-6.5,2.5h-1c-1,0-1.7.2-2.1.7-4.9.2-9.7.5-14.5,1.2l-.8-.9c.5-.7,1.1-1.2,1-2h-5.5l8.2-1.5h13.4c.2,0,1.1-.5,2-.5,1.7,0,4.4-.3,5.8.5Z"/>
  <path class="st196" d="M203.6,209.2c-1.8-1.5-2.7-2.5-3.5-5-1.9-2.5-2.6-3.7-4-6.5-.8-3.9,2.8-.9,3.9,1.1-.4-1.6-.4-3.8,1.6-3.1,1,1.9,5.3,8.6,5.5,9.7.3,2.1-1.4,4.8-3.5,3.7h0Z"/>
  <path class="st159" d="M448.3,88.4h11.9c-1.4,1.3-10.4,0-10.9.5.2,5,3.2,9.7,4.5,14.4-1.2,0-2.5,0-3.5-1-2.2-4.3-4.2-9-4-13.9h2Z"/>
  <path class="st102" d="M359.3,215.7l-1.5,11.9c-.3-4.5.6-9.5-.5-13.9-.2-4.7-.8-9.3-4.5-12.7s-3.2-1.5-4-2.7c.7-2.3,5.6,1.4,6.5,2.2,4.2,4.1,3.9,9.9,4,15.2Z"/>
  <path class="st60" d="M537.4,134.6c0-1.2-.3-2.7,1.2-2s1.1,3,1.2.5c.5,4.1,4.1,8.8,7.2,11.4s3.6,2,3.7,2.5c-2.2.4-4.4-.8-6.5-1-2.7-.5-3.7-2-5.1-4.1s-3.3-5.5-1.9-7.3h.2Z"/>
  <path class="st46" d="M494.6,134.1c3.1-.7,6-2.2,8.7-4.4l.7.9c.4.1.4.3,0,.5-1.1,1.2-1.7,2.7-2.5,4-.7-.5,0-1.6-1.2-1.5s-4.9,2.6-7,3-4.9,0-7.2-.5l.7-1c-3.5-1-7-2.7-9.9-5s-1.8-1.3-.8-1.5c6.1,3.9,11.2,5.3,18.4,5.5h0Z"/>
  <path class="st36" d="M206.6,192.8c-.9,1.8-1.4,2.7-3.5,1.5-1.8-2.7-3.7-5.8-5-9,0-.1-.6-.4-.4-1.1.4-1.4,2.8-1.8,3.9-1.1s4.2,8.3,5,9.7h0Z"/>
  <path class="st103" d="M242.4,202.3c-2.9,1.7-5.5-1.1-7.8-1.9s-6.9-.6-9.1-1.6-1.9-1.5-1.5-2c.8.4,1.9-.5,2-.5,1.7-.2,9,.6,10.4,1.2s1.6,2.4,2.7,3.3,3,.5,3.3,1.5h0Z"/>
  <path class="st75" d="M387.7,116.2c-.6-2.8,1.3-1.9,2.9-2.8,3.7-1.9,7.9-2.4,12.2-2.7s2.8,0,4.2,0c1,.9-3.6,2.4-4,2.5-3.5,1-11,2.7-14.5,3.2s-.4.3-.9-.2h0Z"/>
  <path class="st64" d="M427.9,78.9c1.1,4.5.4,9.2,2.5,13.4l1-1.5c.5,3.4,2.6,9.6,2.5,12.7s-1,.3-1.5,0-.4-2.1-1-.7c-2.9-7.9-4.1-15.3-3.5-23.9Z"/>
  <path class="st95" d="M308.6,100.8c-4,1.6-2.3-8.5-2.5-11.2s.1-1.9-1-2.2c.9-.7,2.9-3,3.5-4,.7,5.8.7,11.6,0,17.4Z"/>
  <path class="st175" d="M344.4,258c1-.2,1.4.2,1.8,1,.5-.7.9-.9,1.7-.5,1.1,3.2,1.8,6.5,2,9.9-1.9,3-1.1,7.9-3.5,10.4,1.1-7.3.3-13.9-2-20.9h0Z"/>
  <path class="st122" d="M489.6,45.6c1,.7,1.6.5,2.7,2,3,4,2.4,7.4,1.3,11.9.5,0,1.3-1.1,1.5-1.5,1.2-1.3,2.2-2.8,3.2-4.5h.8c-.7,2.1-2,4.6-3.3,6.4s-1.6,2.9-3.2,2.5c-.5-3.7-.2-10.6-3-13.4v-3.5h0Z"/>
  <path class="st20" d="M438.9,31.7c-.8,2.2-8.3,12.6-10.2,14.4s-1.6,1.7-2.8.5c1.8-.6,1.7-2.3.5-3.5,5.6-3.2,8.5-9.7,12.7-14.4.4.6,0,2.4-.3,3h0Z"/>
  <path class="st90" d="M490.1,77.4c-1.1,2.7-8.1,15.3-9.9,16.4-2.2-2,1.4-3.9,1.9-5.9s-.4-1-.4-1.1c.3-1.6,6.5-9.5,8-11.2l.5,1.7h-.1Z"/>
  <path class="st72" d="M192.2,186.8c.6-.4,1.1-.5,1.3.2l1.8,5.9c2.6.5,3.3-.4,2.1-2.7l.8-.9c1.5,1.9,2.4,4.3,3.5,6.5-3.1,2,3.8,9.4,3,10.4s-1.1-.7-1.3-.9c-1.4-1.9-4.5-6.9-5.9-8s-1.4-.9-1.3.5c-1.2-2.3-4.5-8.4-4-10.9h0Z"/>
  <path class="st215" d="M505,38.6c-1.2,4.8-3.5,10.6-6,14.9s-2.2,3.5-3.1,4.6-1,1.5-.9-.2c3.1-6.7,5.5-14,9.2-20.4l.7,1h0Z"/>
  <path class="st40" d="M340.9,246.5c3.2,4,5.3,6.9,7,11.9-1.9,2.6-2.2,1.7-3.5-.5s-1.6-3.4-2.5-5c-1.4-1.5-2.4-3-3-4.5-.2-1.9.5-1.7,2-2h0Z"/>
  <path class="st117" d="M160.9,197.8c-.1,1.1,0,1.1,1,1-8.1,2.3-15.1,5.8-21.9,10.4.1.9-.5,1.6-1.9,2.1-1.9,2.8-6.8,4-3.1-.1,8.8-7.1,15.1-10,25.9-13.4Z"/>
  <path class="st174" d="M192.2,186.8c.2-1,3.6-2.5,4.4-1.9s1.3,3.6,1.6,4.4,1.3,4.2,1,4.5c-1.1-.2-3.7.4-4.4,0s-1.5-5.9-2.6-6.9h0Z"/>
  <path class="st55" d="M593.1,200.8c-1.7,5.3-6.1,11-9.5,15.4-1.9,2.5-2.8,2.8-2.5,1,1.7-3.5,4.6-6.3,6.6-9.6s6-12.3,6.4-11.8c-.4,1.4-.6,3.7-1,5h0Z"/>
  <path class="st83" d="M521.5,46.1c.7,2.6.4,8.9-1.5,4,0-.5,0-1.3-.5-1.5.5-3.8-1.2-7.6-4-10.2s-3.1-2-4.5-3.7c.5-1,1.5-.2,2.2,0,5.1,2.2,7.9,5.8,8.3,11.4Z"/>
  <path class="st10" d="M286.2,76.9l1.1-.2c.6,1.6,1.4,2.5,2.4,2.6.6,1.5,2.4,6,3.5,7-2.4,1.6-1,4.2-1,6.2,0,4.7,0,9.1-.5,13.7-.5-4.4,1.2-16.7-1.8-19.9s-.5-.7-1.2-.5v2c-1.1-3.6-1.4-7.4-2.5-10.9Z"/>
  <path class="st171" d="M130.5,79.9v6c-.7-.3-1.9-2.1-2-2.7-.7-3.5,0-11.1,0-15.2,2.6-.3.7-2.6,2-4v15.9Z"/>
  <path class="st28" d="M215.1,182.9v.5c-.5.9-1.2,1.1-1.5,0,.4-.8,0-1.4.5-2.2.9-1.4,4.4-4.8,5.8-6.2s3.6-2.1,3.7-5.5c.4.6,1.3,1.3,1.4,1.8.8,3-8.3,9.2-9.9,11.6h0Z"/>
  <path class="st35" d="M176.8,212.2c-.2-1,.9-1.7-.5-2.5,3.2-2.2,7.5-5.4,11.2-6.5s1.5.7,1.2-1.5c.4.9,2.1.7,0,2.8l-12,7.7h.1Z"/>
  <path class="st68" d="M398.6,236.6c1.1,3.2.2,7.1.5,10.4.6.8.9,0,1-.7.1-1.2-.5-4.9,1-5.2.1,3.2-.2,6.5,0,9.7s1.8,5.1.5,7.7c-2.7-7.4-4-14-3-21.9Z"/>
  <path class="st184" d="M249.4,261.4c.6,1.1.4,1.8,2,1.5v.5c-1.4,3-2.4,5.5-2.9,8.8s.2,2.8-.1,3.9-2.2.8-1.4,2.8c-.7-6.8-.2-11,2.5-17.4h-.1Z"/>
  <path class="st176" d="M179.8,70.9c.4,0,.4.3,0,.5-.3,1.8-2,1.7-2.2,2s-1,2-1.3,2.5c.3-4.5,1.5-8.9,1-13.4l2,1.5v-5.5c0,0,.4.5.5,1.2.4,3.5-.3,7.7,0,11.2Z"/>
  <path class="st48" d="M543.3,226.6l-1-.5c.4,1.3.5,2-.5,3-2.7-4.6-3.7-8-3-13.4,2.6,3.2,2.6,7.2,4.5,10.9Z"/>
  <path class="st153" d="M497.6,270.4h-.5c.3-.9.5-1.8.5-2.7.6-11.7,0-24.7,0-36.6.8.5.5,1.9.5,2.7,0,6.6.4,13.3.5,19.9s.6,11.8-1,16.7h0Z"/>
  <path class="st112" d="M223.5,82.9c-1.4,1.3.7,7-1.7,7s-.9-5.5-1.2-7c.1-.9.4-1.8.5-2.5,2.3-.4,2.4-4,3-6-.2,2.8-.4,5.6-.5,8.5h-.1Z"/>
  <path class="st198" d="M282.7,68c1.7,1.1,1.9,3.2,3,4.7s2.4,2.9,2,.7c.8,2.1,1.3,4,2,6l-.7,2-2.7-4.5c-.8-2.8-2.2-6.4-3.5-9h0Z"/>
  <path class="st23" d="M508.5,126.2c-.9,1.7-2,3.3-3.3,4.8l-1.2-.3c-.2.1-1.2,0-1.8.4-1.7,1.2-4.3,3.6-6.4,3.6s-1.1-.5-1.2-.5c1.2-.8,2.5-1.2,3.7-2,2.4-1.5,6.4-5.3,8.7-6.2s1.3-.7,1.5.2h0Z"/>
  <path class="st166" d="M136,275.9c0-1.3-.8-1.6-2-1.5,3.8-2.5,6.8-5.3,10.4-8-1.6,4.1-5.4,6.6-8.5,9.5h.1Z"/>
  <path class="st164" d="M446.8,67.5l.5.3c-.2-1.5,1.3-4.7,2-1.8-.4,1.7-1.2,6.4-1,8,.3,1.4-.8,1.3-1.5.8-1-.7-.3-4.8-.5-6.2,0-.5.5-.8.5-1h0Z"/>
  <path class="st161" d="M234.5,188.3l-16.4,2c.2-1,1.1-.8,1.7-1,4.4-1.4,9.6-.9,13.7-3,.3.7.7,1.3,1,2Z"/>
  <path class="st204" d="M450.8,279.8c1.3-1.7,2.7,1.6,2.1,1.9s-1.2-1.3.4,0c1.2.7.9,1.6-.5,1.5-1.2,1.2-5.1,2.6-5,5-.7-.6-.1-2-2-1.5,1.1-.7,1.7-1.6,2.5-2.5-.4-.8.9-2.8,1.5-3.7s.6-.6.9-.8h.1Z"/>
  <path class="st84" d="M407.6,111.7c.1-.3,0-1,0-1.5-.4-.7-.8-1.5-.9-2.3-.3-6.2-.3-13.6-.1-19.8.6-.6,1-1.4,1-2.3v-6,31.8h0Z"/>
  <path class="st104" d="M583.6,216.2c-1.2,1.6-2.4,4.8-4.7,5.5s-.3-4.4-.2-5h1c0,0,0,.7,0,.9.3.3,1.1-.4,1.4-.4s.4.5.7.4c.7-.2,1.1-1.1,1.8-1.4Z"/>
  <path class="st41" d="M201.1,64c2.1-.6,1.6,1.7,1.5,3.5-.2,2.9-1.3,6.8-2.5,9.5.5-1.8,1.1-5,1.4-6.8s.6-1.9-.9-1.6c-1.6-.7-1.3-4.3.5-4.5h0Z"/>
  <path class="st74" d="M184.7,191.8v2c-2.7-.2-5.3.2-8,.5-1.4-.8-3.4-1-5-1,2.4-.6,5.8-.7,8.3-.8s3.7,1.3,4.6-.7h0Z"/>
  <path class="st205" d="M504,135.1c-.5-1.8,3.1-5,0-4v-.5c.8-.5,3.2-3.7,4.5-4.5.3,2-3.4,7.1-4.5,9Z"/>
  <path class="st49" d="M582.6,65.5c.4-1.2.6-7.2,3-4,0,2.6-.7,4.2-1.5,6.5l-.5-3.5h-.5l-.5,1Z"/>
  <path class="st148" d="M268.3,148.5c-1,1.4-.6,1.7,1,1.5-1.3.4-5.3,2.4-6.2,1s.5-1.9,1.8-2,1.5.3,3.5-.5h0Z"/>
  <path class="st80" d="M441.9,109.7c.6,0,2.1-.4,2,.5-4.1-.7-8.5,1.7-12.4.5,3.6-.5,6.8-1.1,10.4-1Z"/>
  <path class="st56" d="M203.1,194.3v1c-1.7-3.4-4.2-6.1-5-9.9,1.1,2.3,4.4,6.7,5,9h0Z"/>
  <path class="st121" d="M244.9,36.1c.9-1.7,2.5-2.7,4.5-2.5.2,1-.6,1.4-1,2,.6-2-2.5-.2-3.5.5Z"/>
  <path class="st163" d="M430.9,197.8l-.5-1.5c1.6,0,2.6-1,4.2-1s.3.9.3,1l-.3-.5c-1.3.2-2.5,1.2-3.7,2Z"/>
  <path class="st45" d="M523.4,199.8h-7.5v-.5c2,.2,4.3-.2,6.3,0s1.1.5,1.2.5Z"/>
  <path class="st208" d="M339.4,73.4v6.5c-.6,1-1.2,1.9-1.5,3.1-.3,1.1-1.1,1.3-2.4.8-3.5.6-5,1.8-9.5,2-.4-.8-1.7-.5-2.5-.5.1,0-.9-2.4-.9-3.3-.8-7.9.3-14.2,9.4-14.9s4.6.8,5.4.2,1-5,1.2-6,.2-1.5.9-1.4v13.4h-.1Z"/>
  <path class="st29" d="M128,65v30.3l-.4,1.3c-1.6,1.6-16.2,1.4-16.9.8-1.6-1.2-1.5-11.2-1-13.6v-17.9l1-1.2c1.8,3.4,3.7,2.9,7.2,2.7s5.6-.4,6.4-.6c1.3-.4,2-3.3,3.8-1.9h0Z"/>
  <path class="st11" d="M109.6,52.5c-.9-.8-.5-2.7-.5-4v-6.5c-.4-1-.4-1.8,0-2.5.8.5.5,1.9.5,2.7v10.2h0Z"/>
  <path class="st18" d="M109.1,39.6v2.5c-1.1-1.5-.3-4.1-.5-6,0,1,.4,2.1.5,3.5Z"/>
  <path class="st127" d="M182.7,218.7c-5.3,11.4-10.1,23.3-17.4,33.6-.8.7-.5-1.2-.5-1.5.4-1.7,2.2-2.9,1.2-4.8-1.4,1-3.1,3.8-4.7,4.3s-2.2-1-4.2-.8c-3.1.3-6.7,2.9-9.8,3.5,5.5-5.1,8.6-8.3,13.4-13.9s11-13.6,16.9-19.9c1.6-.3,1.6,2.5,2.2,2.5s2.2-2.4,2.7-3h.2Z"/>
  <path class="st22" d="M134,251c-22.2,15.6-52.3,25.9-79.6,21.4,0-1.3,0-.9,1-1,3.3-.3,6.4.5,9.7.5,18.6-.1,41.7-8.1,57.4-17.9l.8.3,6.8-3.1c1.7-1.1,3-1.1,3.9-.1h0Z"/>
  <path class="st116" d="M136.5,237.6c-1.8-2.7,6-7.2,7.8-7.1,3,.2,3.5,1.1,4.4,3.7,2.1.7,3.4,1.7,3.7,2.9-.8,1.1-1.7,2.4-2.5,3.5l-15.9,10.4c-3.6.4-6.4,3-9.9,3.8s-1.7.7-1.5-.8c1.8-1.1,3.7-2.7,5.5-4l-.3-.6c4.5-3.2,8.5-6.9,12.2-11-1.6.2-2.8,0-3.5-.8h0Z"/>
  <path class="st44" d="M546.3,91.8c.5-.2,1.8-1.4,2.4-.9,1.2,2.2,6.2,7,8.5,7.7s9-.6,10.8.7c7.5,11.3,13.2,23.9,22.6,33.9.2,1,5.1,6.8,6.2,8,2.8,3,6,5.5,8.7,8.4l-1.5.2c-3.8-2.4-7.3-5.3-10.2-8.7-3.1-4.2-17.1-20.6-22.3-19.3-1.5,2.2-3,.2-4.2-1.3l-3-4.2c-5.3-7.9-10.2-16.1-15.7-23.8l-2.2-.6h0Z"/>
  <path class="st105" d="M522.9,87.9l-.5-33.3c1,.2.8,1.1,1,1.7.3,1.1,1.3,6.2,2,6.7s2.7-.8,4.1-.4,3.1,3.7,4.3,2.9,1.3-5.9,1.5-6.9l1.5,4,.2,7.2c.7,1.6.7,3.2-.2,4.8,0,3.8.5,9.1,0,12.7s-.5.9-1,1.2c-.8.5-4.9,1.9-5.7,1.9-2.2,0-5.2-2.1-7.2-2.4h0Z"/>
  <path class="st2" d="M567.7,60l.3,3c0,5-2,.8-2.2-2-2.7-12.2-13.7-19.1-25.9-18.9v24.9l-.3,6.4c-1.7.7-2.3-1-2.5-2.5,0-7.8,0-15.5-.2-23.2,0-1.6-.6-7.4.8-7.9,3.3-1.1,11.2.4,14.6,1.7,8.5,3.3,13.9,9.6,15.4,18.6h0Z"/>
  <path class="st151" d="M536.9,47.6c.8.5.5,1.9.5,2.7,0,5.4-.9,15.8,0,20.4s1.4,1.8,2,2.2l.5-6v20.9c-1.6-1.3-.6-2.8-1.1-4.2s-1.3-.6-1.4-1.2c-.6-2.2.8-6-.5-8.1v-26.8h0Z"/>
  <path class="st1" d="M522,70c-.7.4-1.4,0-1.5,1.2s.5,2.3-.5,2.3c-.2-7.8.3-15.6,0-23.4l1.5,1.5c0-1.8,0-3.7,0-5.5.7.8.5,1.8.5,2.7.2,7,0,14.1,0,21.2Z"/>
  <path class="st199" d="M567.7,60c.3,1.5.6,2.3.5,4.3,0,2-1.4,6.7-2.1,7.1s-1.4-.6-1.9,0c1.4-3.2,1.7-7,1.5-10.4l2,4v-5Z"/>
  <path class="st63" d="M522.5,94.8h-.5c0-2.2-.4-5.1.5-7v7Z"/>
  <path class="st207" d="M338.9,248.5c1.4,1.7,1.9,2.6,3,4.5-2.8-2.2-3-5.3-7.2-4.9-4.8.5-8.8,1.4-14,1-7.6-.6-11.5-4-17.6-8s-2.2-2-3-2.5c2-.7,3.5-2,5.7-2,5.8,0,13.8,0,19.4,1.6s10.3,6.3,13.7,10.4h0Z"/>
  <path class="st84" d="M391.1,83.4c-.4-.4-.9-1.2-1-1.8.5-4.2-1.8-11.4.2-15.1s7.8-2.7,9.3-2.4c1.5.3,2.9,1.7,4.4.7s.5-8.2,3-9.2v25.9c0,.2-2,0-2.5,2.5-3.8,0-10.2,2.6-13.4-.5h0Z"/>
  <path class="st142" d="M404.6,84.4l2.2,3.5.7-2c0,7.9.5,16.6,0,24.4-.8,0-2.3.2-2.8-.5-.7-1-.5-22.7-.2-25.4h0Z"/>
  <path class="st136" d="M500.6,233.6c.9-5.7-1.9-13.7,6.3-13.9s6,3,6.6,5.2,0,10.8-1,12.1-.4.5-.5.5v.7c-.4,1.7-10.3.6-10.5-1.4s0-.5,0-.8c-.9-1-.7-1.6-1-2.5h.1Z"/>
  <path class="st43" d="M466.2,227.1l-.7,2.5c-.9-.7-.8-1.9-1.3-2.7s-.9-.7-.9-.8c-4.2-7.6-5-11.3-12.4-16.9-1.4.5-1.8-.1-1.5-1.5-5-3.2-9.3-4-15.2-4s-3.5,1.5-3.2-1.5c17.4-4.7,30,10.1,35.3,24.9h0Z"/>
  <path class="st25" d="M173.3,202.8l.2.8c-1.9.9-3.1,2-3.6,3.2l-1.9,2.2c-13.2,8.1-26,16.9-38.3,26.3-14.4,11.3-29.5,16.5-46.8,21.2-17.3,4.7.6-.2.9,0s.4.3.6.6c3.7.7,7.3.8,10.8.2l1.1.8c-2,1.1-5,1.6-7.3,1.9-13.9,2.1-29.4,3.6-43,0,1.1-.5-.8-1-1.1-1.1-3.6-1.3-8.2-3.4-11.1-5.8s-.6-2.4-1.5-4.5-2.8-2.1-3.7-3c-3-2.9-4.9-5.8-6.5-9.6s-1.2-2.1-.7-2.8c2.7,4.4,4.8,8.7,9,11.9,6.6,5.1,20.3,7.1,28.6,8,8.3.9,16.1.6,24.5-1.1s3.9-1,2.9-1.9-7.1,2.5-8,0l21.9-3.7c2.2-.2,4.1-1.5,6-2.2,8.7-3.5,14.4-8.3,21.6-13.9s2.8-2,3.8-3.5l.3-1.2c4.5-2.9,8.9-6,13.1-9.4l3.6-1.4c9.2-6.1,14.4-8.4,24.9-11.9h-.3Z"/>
  <path class="st22" d="M128,250c-.9-1.8-3.7.6-5.4.8s-2.2-.4-3.6-.2c-5.4.8-12,5.4-17.8,5.9,1.3-1.6,3.2-2.7,5.6-3.4,3-1.9,6.1-3.1,9.3-3.5l.7-1.1c6.4-3.7,12.6-7.6,18.7-11.5l1.1.7c1.1-.3,4.5-.8,4.5.7,0,2.5-10.6,10-12.9,11.7h-.2Z"/>
  <path class="st188" d="M115.1,246c2.2-.5.6,1.4-.6,2.4.9,0,1.4.3,1.5,1.1-4.7,2.4-9.9,5.2-14.9,7-5,1.8-3.4,1.1-5,1.5-4.4,1-7.8,1.2-11.9-1,.3-.6.8-1,1.4-1.2,9.4-2.7,18.8-5.4,27.5-10l1.9.2h0Z"/>
  <path class="st79" d="M127.5,114.7c0,4,0,8,0,11.9,0,11.5,0,22.9.5,34.3-.4-2-.3-3.8-.6-5.6s-1.8-4.7-2.5-5c-1.3-.5-6.3,0-7.9.4s-5.1,1.5-6.4,3.3c0-11.8,0-23.6,0-35.3,3.4,0,7.2-.2,10.5-1.2s4-2.4,6.5-2.7h0Z"/>
  <path class="st155" d="M140,209.2c2,4.7,2.5,7.4,8.5,5.5-3.6,2.4-14.1,11-16.9,11.9s-2.9.6-3.7.6-.7-.8-1.1-1c-2.6-1.1-4,.2-6.6.5-.2-1.1.5-1.7,1-2.5,2.1-3.2,9.5-7,10.8-9.1s.1-1.4.6-2.1,1.9-1.2,2.5-1.7c-2.1,4.4.8.6,2.5-.7s1.9-.9,2.4-1.3h0Z"/>
  <path class="st212" d="M157.4,230.6c-1.7,2.4-3.3,4.2-5,6.5-1.1-.6-3.7-1.5-4.5-2.2s-.6-2.3-1.3-2.8c-3.4-2.2-8.7,2.4-10.1,5.5-2.6.7-8,5.2-10.8,6.9s-6.4,3.4-9.6,5.1c-3.4.2-3.2-1.8-.5-3.2l-.5-.2c5.5-2.7,19.2-13.3,22.9-14.4s1.4.2,2.1-.1c6.3-2.5,11.2-7.9,17.3-.9v-.2Z"/>
  <path class="st217" d="M173.3,202.8c2.7-.9,7.2-3.2,9.7-3.5s.6,1,.2,1.5c-2.6.5-10.7,4.5-13.4,6-2.4.2.4-2.3.7-2.5.9-.6,2-.6,2.7-1.5h.1Z"/>
  <path class="st145" d="M462.8,118.2l-2,.5.5,1c-5.8.2-11.6,1.7-17.4,1.5-.4-1.6,1-.7,1.4-1.1s0-.8,0-.9c4-.7,13.4-1.4,17.4-1h.1Z"/>
  <path class="st106" d="M423.5,272.9c1.1.6,1.9,2,3,3l1.1-.4c5.9,4.7,14.1,9.8,21.3,4.8.6-.1,1.2-.7,2-.5.4,2.2-1.3,3.2-2.5,4.5-1.7-.7-5.4-.3-7.1,0s-1.6,1.2-2.6,1.4c-9.8,1.9-23.8-8.8-29.1-16.4,4,3,9.8,1.3,13.9,3.5h0Z"/>
  <path class="st192" d="M420.5,260.9c3.3,7.3,8.5,15.2,16.1,18.5s6.8,2.1,12.3.9c-5.5,7.2-17.2,0-22.4-4.5,1.5-.8.9-.6.2-1.5-2-2.8-4.2-5.5-5.8-8.6l-.4-4.8h0Z"/>
  <path class="st76" d="M179.8,70.9c0,0,.5-.5.5-1.2.2-1.8-.2-3.9,0-5.8,2.3-.6,1.2,1.5,2.3,3s5.2.7,6.9.5,9.3-2,10.6-3.6.5-2.8,1.9-3.3c2.3-.9-.6,3.2-.8,3.5-.9,1.9-.2,2.8-.5,4.5-1.6,9-5.6,16-11.4,22.9-1.6,0-1.3-1.7-2.7-2s-3.8.4-5.5.4-1.3-.4-2-.4c-1.5,0-3,1.4-4.2-.3-2.8-3.8,1.7-6.8,3.2-10.2s1.4-4.9,1.7-7.5,0-.3,0-.5h0Z"/>
  <path class="st39" d="M536.4,119.2c0,5.3-.2,10.2,1,15.4,1.1,4.4,3.2,8.7,7,11.4-7.8-.6-21.1-.4-28.8.5,6-4.9,5.7-9.6,7-16.4s.6-5.5,2-8.1c2.6-4.8,7.7-7.3,11.9-2.8h-.1Z"/>
  <path class="st65" d="M128,95.3v13.3l-2.3,1c-4.6.7-9.4.7-14.1.9-2.3-1.8-1.3-4.9-1.5-7.5-.5-5.6-1.1-10.8-1-16.4s-.3-2.2.5-2.7c0,2.6-.8,11.6,1.5,12.7s2.5-.2,3.6,0c4.4.3,9,1.1,13.3-1.2h0Z"/>
  <path class="st209" d="M501.6,236.1c1.8,1.9,8.1,2.7,10.4,1.5,1.5-.3,1,.8,1,1.7,0,3.1,0,6.2,0,9.2v11.4s-.5-.6-.5-1.2c0-1.3.5-4.9-.4-5.5s-1.9,0-2.7-.3-1.5-1.7-3.3-2.2c-7-1.6-5,7-5.5,11s-.5,1.1-.5,1.2c.7-8-.9-17.3,0-25.1s.2-1.7,1.5-1.7h0Z"/>
  <path class="st93" d="M358.8,278.4c.9-10.8.2-21.6,1-32.1.4-5.5,1.7-2.8,4.8-2.7s6.5-1.3,6.7-1c.1,3.9-.1,7.8,0,11.7.2,7.5.4,16.4,1,23.8.1,1.2.2,4.4,2,4.2-.1,0-1,1.2-1.7,0-1.3-2,.1-11.3-2.9-11.4s-3.4,2.3-4.8,3.7-2.5,2.3-3.4,3.6c-1.5,2.3-1.3,4.9-3.6,6.1,1.6-1.6.8-3.9,1-6h-.1Z"/>
  <path class="st200" d="M299.6,120.7c-2.3,4.3-10.2,15.6-14.2,17.9s-5.5.3-5.7.5c-1.2.8,1.5,3.5-1.7,5l-1.2-2.5c5.8-6.4,10.6-16,12.9-24.4,2.5-1.4,9.2-6.5,9.8-1.1s-1,3.3,0,4.6h.1Z"/>
  <path class="st54" d="M465.3,270.9c-1.5,3.2-7.2,10.7-10.3,12.4s-1.7,1.1-2.2,0c.3-.4.3-1.3.5-1.5,11.8-13.8,13.5-21.4,13.4-39.6s-.5-2-.5-2.7,1-1.6.5-2.5c.7-1,1.9,6.1,1.9,6.8.8,8.7.2,19-3.4,27h.1Z"/>
  <path class="st85" d="M339.4,79.9c0,4,.3,8-.5,11.9l-2-1.5c0-1.3.4-6.1-.5-6.5s-.8,0-1,0c2.6-.5,1.2-4.5,4-4h0Z"/>
  <path class="st7" d="M564.2,116.2c1.9.9,4.1,5.8,6.2,5.5s-.3-1.6,2.3-.8c11.5,3.5,18.1,16.7,26.6,24.2s4.2,2.9,6.2,4.5c4.1,3,8,5.9,12.4,8.5s10.6,5.4,16.4,7c6.8,1.8,17.5,2.2,24.4.5-9.8,3.4-20.7,3.8-30.9,1.8-11.8-2.4-28.5-11.7-37.5-19.7s-8.9-10.2-13.2-13.4l-9.9-12.8c-1.3-1.4-2.1-3.6-3.1-5.1v-.2Z"/>
  <path class="st162" d="M584.1,243c-5.5,0-10,4.3-15.4,4l-4.5-3,9.8-7.9c3.7,1.8,6.9,4.4,10.1,6.9h0Z"/>
  <path class="st109" d="M149.9,107.8c8.2-3.5,16.3-7.6,21.7-14.9,2.8,1.2,9.1-.5,11.1,1.2s.5,2.5,2,2.2c-4.1,4.1-7.4,6.9-11.9,10.4-4.1,1.2-1.4-2.8-2.8-3s-8.1,3.5-11,3.9-6.1,0-9.1,0h0Z"/>
  <path class="st193" d="M311.1,149.5c-9.1,3.7-18.2,7.3-27.4,10.9-3.3,0-6.6,2.2-9.8,2.9s-3.1.4-4.7.6c10-4.2,24.7-11.5,34.8-13.9s4.7-.5,7-.5h.1Z"/>
  <path class="st154" d="M215.1,183.4c-.1.2,0,.7-.5,1.2-.8.9-3.2,1.9-4.5,2.3.9-.8,2.4-3.1,3.5-3.5s1,0,1.5,0Z"/>
  <path class="st154" d="M209.6,180.9c-.4-1.1,2.7-4.2,3-4,1.3,1.4-2.5,4.5-3,4Z"/>
  <path class="st177" d="M455.8,236.6c1.5,0,1.4.9.7,2.5-1,2.4-7.6,9.9-9.6,12.8-5,7.3-9.7,14.8-14.8,22-1.8.3-1.9.2-1.6-1.5,1.7-7.8,7-17.1,8.7-25.1s.2-1.1.1-1.6h-14.4c-.6-1.6.7-2,1-2.5.5-.7,1.3-.6,2.5.5l.6-1c1.6-.2,12.2-.2,13.1.3,1.9,1.1,1.6,2.5,1.1,4.4l-3.9,10,6.9-9.8c1.7-3.1,3.9-5.4,6.6-7,.3-2.1,1.3-3.5,3-4h0Z"/>
  <path class="st66" d="M450.8,209.2c-1.2-.3-1.1.6-1.4,1.3-3.4,8.5-5.7,17.5-9.1,26,5.1.2,10.3-.2,15.4,0-.6,1.6-1.9,2.7-3,4-.5,0-.9-.4-1.2-1l-10.3-.5c-3-.3-3.7-2.4-2-6.4,1.5-4.2,3.2-8.2,5.1-12.2-.3.6-.8.5-1.5.3-.7.8-1.4,1.2-2,1l8.5-13.9c.9.6,1.1,1.2,1.5,1.5h0Z"/>
  <path class="st135" d="M442.9,220.7c0,.6-.2,1.2-.4,1.8s-.4,1.1-.6,1.6c-4.2,6.5-8.4,13-13.3,18.6v1c-1,0-1.8,0-2.6-.5,2.3-4.2,11.8-18.9,14.9-21.4s1.2-.9,2-1h0Z"/>
  <path class="st186" d="M442.9,220.7c.3-.5,3.4-4.5,3-1.7s-3.8,8.4-4.7,11.2-2.4,6.3-1.6,7.5,11.7,1,13.5,1l-.2,2c-5.5,6.6-10.1,13.9-15.2,20.9-1-3.7,6.3-14.7,4.7-17.3s-11.8-.5-13.9-.6c-.6-.5-1.5-.4-.8-1.5,1-1.6,3.6-4.1,4.9-6,3.6-5,6.8-10.3,10.2-15.4h.1Z"/>
</svg>