<svg xmlns="http://www.w3.org/2000/svg" width="108" height="40" fill="none"><g clip-path="url(#a)"><path fill="#000E25" d="m64.046 12.81-.197-.109c-.598.871-1.507 1.306-2.73 1.306a4.003 4.003 0 0 1-1.933-.49c-.52-.28-.95-.721-1.292-1.317 1.884-.06 3.342-.36 4.361-.901 1.151-.594 1.726-1.508 1.726-2.74V7.7c0-1.088-.404-1.94-1.212-2.555-.808-.617-1.838-.925-3.09-.925-1.632 0-2.925.512-3.878 1.534-.955 1.021-1.43 2.33-1.43 3.927v.86c0 1.639.499 2.993 1.497 4.067.998 1.073 2.29 1.608 3.877 1.608.918 0 1.754-.206 2.512-.62.756-.412 1.355-1.055 1.79-1.924v-.86h-.001Zm-6.217-6.414c.445-.719 1.009-1.078 1.694-1.078.494 0 .885.149 1.168.445.283.297.488.667.611 1.11.083.295.137.585.163.871a3.928 3.928 0 0 1-.437 1.456c-.306.58-.77 1.043-1.397 1.391-.584.319-1.318.493-2.208.523-.149-.52-.231-1.133-.253-1.826.046-1.292.264-2.258.657-2.894l.002.002ZM75.8 5.08l-4.742 11.006h-.261l-3.91-8.94a2.086 2.086 0 0 0-.633-.87c-.276-.218-.728-.328-1.354-.328V4.871c1.836 0 3.08-.217 3.734-.652h.219l3.32 7.852 1.071-2.437c.261-.608.43-1.135.503-1.576.037-.221.065-.417.082-.585-.056-.421-.196-.765-.42-1.034-.299-.355-.712-.534-1.234-.534V4.828c1.777 0 2.905-.202 3.387-.609h.24v.86h-.003Zm-14.66 21.608.217.086c.203-.58.597-1.056 1.18-1.426.583-.37 1.253-.554 2.009-.554.436 0 .898.08 1.386.238.489.16.908.435 1.258.826.196.222.337.495.423.82l-3.11.8c-.728.189-1.374.412-1.934.675-.561.26-.998.606-1.31 1.032-.314.428-.472.99-.472 1.686v.86c0 .987.303 1.723.907 2.209.605.486 1.35.729 2.24.729.728 0 1.348-.138 1.858-.413.51-.275.925-.62 1.246-1.032.32-.413.553-.845.7-1.295 0 .755.166 1.4.503 1.936.335.537.86.804 1.573.804.596 0 1.06-.21 1.387-.63.328-.42.615-1.046.861-1.871v-.86l-.196-.087c-.117.349-.244.62-.382.816-.139.195-.303.294-.493.294-.32-.043-.48-.37-.48-.978v-3.48c0-1.755-.423-3.056-1.267-3.903-.845-.847-1.975-1.273-3.387-1.273-.961 0-1.767.168-2.415.5-.648.334-1.158.74-1.53 1.218-.37.477-.63.95-.775 1.413v.86h.002Zm6.216 4.469c-.24.492-.564.92-.972 1.284-.408.363-.86.544-1.355.544-.423 0-.743-.138-.96-.413a2.223 2.223 0 0 1-.437-1 6.68 6.68 0 0 1-.093-.723c.041-.56.158-1.004.354-1.322.249-.398.637-.71 1.169-.936.531-.223 1.205-.445 2.022-.662.203-.058.414-.116.633-.174v2.099c0 .376-.121.813-.361 1.305v-.002ZM97.098 4.873c1.836 0 3.08-.217 3.737-.651h.218l3.32 7.873 1.268-2.893a5.855 5.855 0 0 0 .391-1.484 2.548 2.548 0 0 0-.424-1.189 1.422 1.422 0 0 0-1.233-.64V4.81c1.778 0 2.905-.196 3.387-.587h.24v.86l-4.631 10.766-.11.238-1.072 2.48a13.791 13.791 0 0 1-.754 1.555 2.88 2.88 0 0 1-.972 1.032c-.393.247-.924.37-1.594.37a5.15 5.15 0 0 1-1.397-.185 5.033 5.033 0 0 1-1.048-.402v-.86c.102-.276.192-.652.272-1.132.08-.477.121-1.204.121-2.174h.218c.044.19.156.409.34.662.18.254.45.482.807.686.357.203.804.306 1.344.306.641 0 1.212-.153 1.715-.456.503-.305.87-.718 1.104-1.241l.447-1.021-3.703-8.557a2.067 2.067 0 0 0-.632-.871c-.277-.218-.728-.327-1.355-.327V4.875l-.004-.002Zm-44.187-.97C52.989.733 49.742.125 47.12 0h-6.692l-.023.243v.86h.587c.112 0 .527.084.646.123.38.122.46.376.508.746v12.065c-.035.412-.087.68-.51.821a3.349 3.349 0 0 1-.646.123h-.588v1.103h6.288V14.98h-.628c-.171 0-.59-.104-.752-.181-.117-.056-.363-.284-.363-.404V8.492s2.933 5.906 5.337 8.018a5.678 5.678 0 0 0 3.71 1.44v1.037c.712 0 1.163.065 1.353.196.19.131.283.355.283.675v12.755c0 .318-.095.544-.283.673-.19.131-.641.196-1.354.196v1.077h5.832v-1.077c-.713 0-1.166-.065-1.354-.196-.19-.131-.285-.355-.285-.673V17.366h-.218c-.219.189-.703.326-1.454.413-.458.053-.953.088-1.478.107a7.257 7.257 0 0 0 2.197-.673v-1.101c-.123-.007-.233-.058-.352-.075-3.387-.512-5.31-3.686-5.95-4.536-.785-1.037-1.517-2.116-2.29-3.161 1.937-.263 4.052-1.054 4.246-3.267.01-.112.015-.221.017-.329v-.843l.007.002Zm-5.914-2.759c.58 0 1.562.454 1.968.867.503.51.775 1.324.842 2.178-.058.76-.27 1.482-.624 1.985-.935 1.331-2.795 1.161-4.236 1.174V1.144h2.05ZM82.57 23.557l-4.631 10.766-.11.238-1.072 2.48a13.903 13.903 0 0 1-.754 1.555 2.88 2.88 0 0 1-.972 1.032c-.393.247-.924.37-1.594.37-.494 0-.96-.063-1.397-.185a5.035 5.035 0 0 1-1.048-.402v-.86c.102-.276.192-.652.272-1.132.08-.477.121-1.204.121-2.174h.218c.044.19.156.409.34.663.181.253.451.481.808.686.356.202.803.305 1.343.305.642 0 1.212-.153 1.715-.456.503-.305.87-.718 1.104-1.24l.447-1.022-3.702-8.557a2.067 2.067 0 0 0-.633-.871c-.277-.218-.728-.327-1.355-.327v-1.078c1.837 0 3.08-.217 3.737-.651h.219l3.32 7.873 1.267-2.893c.21-.529.34-1.023.391-1.483a2.547 2.547 0 0 0-.423-1.19 1.423 1.423 0 0 0-1.233-.64v-1.078c1.777 0 2.905-.196 3.386-.587h.24v.86l-.004-.002Zm3.277-10.746-.197-.11c-.598.871-1.508 1.306-2.73 1.306a4.003 4.003 0 0 1-1.933-.49c-.521-.28-.95-.721-1.292-1.317 1.883-.06 3.341-.36 4.36-.901 1.152-.594 1.727-1.508 1.727-2.74V7.7c0-1.088-.404-1.94-1.212-2.555-.808-.617-1.838-.925-3.09-.925-1.632 0-2.926.512-3.878 1.534-.955 1.021-1.43 2.33-1.43 3.927v.86c0 1.639.499 2.993 1.497 4.067.998 1.073 2.29 1.608 3.877 1.608.918 0 1.754-.206 2.512-.62.756-.412 1.354-1.055 1.79-1.924v-.86h-.001Zm-6.215-6.415c.445-.719 1.009-1.078 1.694-1.078.494 0 .885.149 1.168.445.283.297.488.667.612 1.11.082.295.136.585.162.871A3.926 3.926 0 0 1 82.83 9.2c-.306.58-.77 1.043-1.397 1.391-.584.319-1.318.493-2.208.523-.149-.52-.23-1.133-.252-1.826.045-1.292.263-2.258.656-2.894l.002.002Zm7.176-1.501c.93 0 1.773-.043 2.523-.132.75-.086 1.233-.223 1.453-.412h.218v.86l-.123 3.023c.128-1.148.385-2.062.78-2.73.51-.872 1.348-1.306 2.512-1.306.393 0 .776.04 1.147.12.372.08.68.164.929.25v.86c-.261.71-.393 1.776-.393 3.198h-.24a2.766 2.766 0 0 0-.689-1.349c-.356-.391-.812-.587-1.365-.587-.685 0-1.28.34-1.79 1.022-.51.682-.765 1.654-.765 2.914v3.512c0 .318.095.544.285.673.19.13.641.196 1.354.196v1.077h-5.832v-1.077c.713 0 1.164-.065 1.354-.196.19-.131.283-.355.283-.673V6.84c0-.318-.095-.544-.283-.675-.19-.132-.641-.196-1.354-.196V4.892l-.004.003ZM40.407 19.576c.713 0 1.183.065 1.408.196.225.131.34.355.34.675v12.146c0 .319-.113.545-.34.674-.227.13-.695.195-1.408.195v1.1h6.292v-1.1c-.713 0-1.184-.064-1.409-.195-.226-.132-.339-.355-.339-.674V28.06h1.88c3.183-.021 5.218-.78 6.104-2.281 0-.005.004-.007.006-.011.035-.058.067-.114.097-.175.273-.529.409-1.143.41-1.843v-.9l-.001-.076c-.018-.697-.162-1.31-.435-1.836a24.866 24.866 0 0 0-.038-.071c-.022-.039-.041-.078-.065-.117-.901-1.516-2.927-2.273-6.078-2.273h-6.424v1.1Zm6.424.022c2.15.013 3.29 1.228 3.417 3.643-.121 2.462-1.258 3.697-3.417 3.697h-1.88v-7.34h1.88Z"/><path fill="url(#b)" d="M57.49 11.355c.074.204.154.385.24.544.363.755.85 1.295 1.454 1.621.605.327 1.249.49 1.933.49 1.223 0 2.134-.434 2.73-1.305l.197.11c-.436.871-1.034 1.512-1.79 1.925a5.162 5.162 0 0 1-2.513.62c-1.587 0-2.879-.536-3.877-1.61-.998-1.073-1.497-2.427-1.497-4.066 0-1.639.478-2.903 1.43-3.927.955-1.022 2.247-1.533 3.877-1.533 1.253 0 2.284.307 3.091.924.808.618 1.212 1.47 1.212 2.555 0 1.232-.574 2.146-1.726 2.74-1.093.58-2.68.884-4.762.914l.002-.002Zm-.064-.241c.888-.028 1.624-.202 2.207-.523.627-.348 1.093-.813 1.398-1.391.307-.58.458-1.21.458-1.892 0-.42-.063-.852-.186-1.295a2.58 2.58 0 0 0-.611-1.11c-.285-.297-.674-.445-1.169-.445-.684 0-1.248.36-1.693 1.077-.445.719-.666 1.852-.666 3.405 0 .84.087 1.565.262 2.174Zm14.746.957 1.072-2.437c.26-.608.43-1.135.503-1.576.073-.443.11-.778.11-1.01 0-.624-.15-1.113-.447-1.47-.298-.354-.71-.533-1.233-.533v-.217c1.777 0 2.905-.202 3.386-.609h.24l-4.741 11.007H70.8l-3.91-8.94a2.086 2.086 0 0 0-.633-.87c-.276-.218-.728-.328-1.354-.328v-.217c1.836 0 3.08-.217 3.734-.652h.219l3.32 7.852h-.005Zm7.122-.716c.073.204.153.385.24.544.362.755.848 1.295 1.453 1.621.605.327 1.249.49 1.933.49 1.223 0 2.134-.434 2.73-1.305l.197.11c-.436.871-1.034 1.512-1.79 1.925a5.162 5.162 0 0 1-2.513.62c-1.587 0-2.879-.536-3.877-1.61-.998-1.073-1.497-2.427-1.497-4.066 0-1.639.478-2.903 1.43-3.927.955-1.022 2.247-1.533 3.878-1.533 1.252 0 2.283.307 3.09.924.808.618 1.212 1.47 1.212 2.555 0 1.232-.574 2.146-1.726 2.74-1.093.58-2.68.884-4.763.914l.003-.002Zm-.065-.241c.888-.028 1.624-.202 2.207-.523.627-.348 1.093-.813 1.398-1.391.307-.58.458-1.21.458-1.892 0-.42-.063-.852-.186-1.295a2.577 2.577 0 0 0-.611-1.11c-.285-.297-.674-.445-1.169-.445-.684 0-1.248.36-1.693 1.077-.445.719-.665 1.852-.665 3.405 0 .84.086 1.565.26 2.174Zm11.578-1.957c.073-1.596.356-2.813.85-3.654.51-.87 1.348-1.305 2.513-1.305.393 0 .775.04 1.147.12.371.08.68.164.928.25-.261.71-.393 1.776-.393 3.198h-.24a2.766 2.766 0 0 0-.688-1.349c-.357-.391-.813-.587-1.366-.587-.684 0-1.28.34-1.79 1.022-.51.681-.765 1.653-.765 2.914v4.372c0 .318.095.544.285.673.19.13.642.196 1.355.196v.217H86.81v-.217c.712 0 1.164-.065 1.354-.196.19-.131.283-.355.283-.673V5.98c0-.319-.095-.544-.283-.676-.19-.13-.642-.195-1.355-.195v-.218c.931 0 1.774-.043 2.523-.13.75-.087 1.234-.224 1.454-.414h.218l-.196 4.807-.002.002Zm12.452 6.069-1.071 2.48a13.972 13.972 0 0 1-.754 1.554 2.881 2.881 0 0 1-.972 1.032c-.393.248-.925.37-1.594.37a5.15 5.15 0 0 1-1.398-.185 5.033 5.033 0 0 1-1.047-.402c.101-.275.192-.651.272-1.13.08-.478.12-1.205.12-2.175h.219c.043.19.155.409.339.662.181.254.451.482.808.686.356.202.803.306 1.343.306.642 0 1.212-.153 1.715-.456a2.715 2.715 0 0 0 1.104-1.241l.655-1.501h-.044l-3.866-8.94a2.068 2.068 0 0 0-.633-.87c-.276-.218-.728-.328-1.354-.328v-.217c1.836 0 3.08-.217 3.737-.652h.218l3.32 7.873 1.268-2.892c.276-.697.414-1.333.414-1.914 0-.652-.149-1.194-.447-1.62a1.422 1.422 0 0 0-1.233-.64v-.217c1.777 0 2.905-.196 3.387-.587h.239l-4.631 10.765-.11.239h-.004ZM40.407.243 40.431 0h6.692c2.704.127 6.076.772 5.773 4.215-.216 2.46-2.803 3.166-4.881 3.336-.73.06-1.46.01-2.19.04-.05 0-.152-.03-.14.041.42.048.824.174 1.243.237.501.073 1.003.073 1.497.165.86 1.14 1.655 2.334 2.517 3.471.641.85 2.563 4.024 5.95 4.536.12.017.23.069.35.075v.241c-1.598.794-4.546 1.406-6.95-.705-2.405-2.112-5.338-8.018-5.338-8.018v6.764c0 .12.246.348.363.404.162.078.58.18.752.18h.628v.244H40.41v-.243h.588c.13 0 .51-.078.646-.123.423-.144.475-.41.512-.823V1.112c-.052-.37-.132-.624-.512-.746a4.002 4.002 0 0 0-.646-.123h-.59Zm4.543 7.108c1.438-.016 3.298.157 4.235-1.175.886-1.262.899-3.89-.218-5.025C48.56.735 47.581.284 47 .284h-2.047V7.35h-.002Zm.002 19.847v5.393c0 .319.112.544.339.673.225.132.696.196 1.408.196v.239h-6.292v-.239c.713 0 1.184-.064 1.409-.196.224-.13.339-.354.339-.673V19.585c0-.318-.113-.544-.34-.675-.226-.131-.695-.196-1.408-.196v-.239h6.424c4.37 0 6.575 1.458 6.62 4.372 0 2.871-2.207 4.32-6.62 4.35h-1.88Zm0-.26h1.88c2.271 0 3.414-1.364 3.43-4.088 0-2.727-1.144-4.097-3.43-4.112h-1.88v8.2ZM59.828 33.7h-5.832v-.217c.713 0 1.164-.065 1.354-.196.19-.131.283-.355.283-.673V19c0-.318-.095-.544-.283-.675-.19-.131-.641-.196-1.354-.196v-.217c.93 0 1.773-.043 2.523-.131.75-.086 1.233-.224 1.453-.413h.218v15.247c0 .318.096.544.286.673.19.131.641.196 1.354.196v.217h-.002Zm9.986.11c-.713 0-1.238-.27-1.573-.804-.335-.536-.503-1.181-.503-1.936-.147.45-.378.882-.7 1.295-.32.413-.737.757-1.246 1.032-.51.275-1.13.413-1.858.413-.888 0-1.635-.243-2.24-.73-.605-.485-.907-1.22-.907-2.208 0-.697.155-1.258.47-1.686.314-.428.75-.772 1.312-1.032a11.4 11.4 0 0 1 1.933-.675l3.212-.826c0-.71-.175-1.263-.525-1.654a2.843 2.843 0 0 0-1.257-.826 4.48 4.48 0 0 0-1.387-.238c-.758 0-1.428.184-2.01.554-.584.37-.977.846-1.18 1.426l-.218-.086c.145-.464.404-.935.775-1.413.372-.48.882-.884 1.53-1.217.648-.333 1.453-.501 2.414-.501 1.413 0 2.543.424 3.387 1.273.845.847 1.268 2.15 1.268 3.903v3.48c0 .608.16.935.48.978.19 0 .352-.099.492-.294.138-.196.266-.467.382-.815l.197.086c-.248.826-.536 1.45-.862 1.87-.328.422-.79.63-1.386.63Zm-4.785-.826c.495 0 .946-.18 1.354-.544.409-.361.733-.79.972-1.284.24-.492.361-.927.361-1.305v-2.96c-.218.059-.43.117-.633.175-.816.217-1.488.438-2.022.662-.53.226-.922.538-1.168.936-.248.4-.372.989-.372 1.772 0 .363.037.74.11 1.13.074.392.219.725.437 1 .218.276.538.414.961.414v.004Zm12.802.716-1.071 2.48a13.879 13.879 0 0 1-.754 1.555 2.878 2.878 0 0 1-.972 1.032c-.393.247-.924.37-1.594.37a5.15 5.15 0 0 1-1.397-.185 5.03 5.03 0 0 1-1.048-.403c.102-.275.192-.651.272-1.13.08-.478.121-1.205.121-2.175h.218c.044.19.156.409.34.663.18.253.45.481.807.686.357.202.804.305 1.344.305.641 0 1.212-.153 1.715-.456a2.72 2.72 0 0 0 1.103-1.24l.655-1.502h-.043l-3.867-8.94a2.068 2.068 0 0 0-.632-.87c-.277-.218-.728-.328-1.355-.328v-.217c1.836 0 3.08-.217 3.737-.651h.218l3.32 7.873 1.268-2.893c.277-.697.415-1.333.415-1.914 0-.651-.15-1.193-.447-1.62a1.423 1.423 0 0 0-1.234-.64v-.217c1.778 0 2.906-.196 3.387-.587h.24l-4.631 10.765-.11.24h-.005Z"/><path fill="#000E25" d="M4.12 28.239a9.329 9.329 0 0 0-.386-1.379c1.126 1.34 1.417 3.237 2.167 4.992 2.4 5.608 6.266.591 7.812-1.815 1.547-2.404 2.456-5.075 2.456-5.075l.03-.117c.011.04.018.078.03.117 0 0 .91 2.67 2.457 5.075 1.546 2.404 5.413 7.423 7.812 1.815.219-.51.398-1.03.569-1.546l-.005-.798c.897-.323 1.851-.585 2.77-.974 1.857-.787 2.552-1.734 2.568-2.704v-.843c.043-1.976-2.767-4.056-4.39-5.09-1.47-.938-3.039-1.639-4.041-2.045 1.002-.407 2.57-1.108 4.041-2.045 1.625-1.035 4.435-3.114 4.39-5.09v-.844c-.013-.97-.711-1.916-2.569-2.703a19.518 19.518 0 0 0-1.553-.565v.86c.089.44.212.9.387 1.378-1.125-1.34-1.417-3.236-2.167-4.991-2.4-5.609-6.266-.592-7.812 1.815-1.547 2.404-2.456 5.075-2.456 5.075l-.03.116c-.011-.038-.018-.077-.03-.116 0 0-.91-2.67-2.457-5.075C12.167 3.263 8.3-1.757 5.901 3.852c-.219.51-.398 1.03-.568 1.546l.004.798c-.897.323-1.851.585-2.77.974C.71 7.953.016 8.9 0 9.87v.843c-.044 1.976 2.766 4.056 4.389 5.09 1.47.938 3.039 1.64 4.041 2.046-1.002.406-2.57 1.107-4.041 2.045-1.623 1.038-4.433 3.116-4.39 5.094v.843c.013.97.711 1.917 2.569 2.704.512.217 1.034.395 1.553.565v-.86Zm17.127-10.81V18.296c0 2.21.584 4.286 1.603 6.084a12.429 12.429 0 0 0-6.648-1.918c-2.445 0-4.726.705-6.649 1.918a12.295 12.295 0 0 0 1.603-6.084V17.42c0-2.211-.583-4.286-1.603-6.084a12.429 12.429 0 0 0 6.649 1.918c2.445 0 4.726-.705 6.648-1.918a12.293 12.293 0 0 0-1.603 6.084v.008Z"/><path fill="url(#c)" d="M28.009 19.895c-2.415-1.54-5.098-2.445-5.098-2.445l-.117-.03c.04-.011.078-.018.117-.03 0 0 2.683-.906 5.098-2.446s7.456-5.389 1.823-7.778a19.514 19.514 0 0 0-1.553-.566c.181.91.514 1.905 1.147 2.955-1.793-1.31-2.029-3.61-2.927-5.708-2.4-5.608-6.266-.591-7.813 1.815-1.546 2.405-2.456 5.076-2.456 5.076l-.03.116c-.01-.039-.017-.077-.03-.116 0 0-.91-2.671-2.456-5.076C12.167 3.258 8.3-1.76 5.9 3.847c-.218.51-.397 1.03-.568 1.547a9.16 9.16 0 0 0 2.968-1.142c-1.316 1.785-3.627 2.02-5.733 2.914-5.633 2.389-.594 6.238 1.823 7.778 2.415 1.54 5.098 2.445 5.098 2.445l.116.03c-.038.011-.077.018-.116.03 0 0-2.683.906-5.098 2.446s-7.456 5.389-1.823 7.778c.512.217 1.035.396 1.553.566a9.072 9.072 0 0 0-1.147-2.955c1.793 1.31 2.028 3.61 2.927 5.707 2.4 5.61 6.266.592 7.813-1.814C15.26 26.771 16.17 24.1 16.17 24.1l.03-.116c.01.039.017.078.03.116 0 0 .91 2.671 2.456 5.076C20.233 31.58 24.1 36.6 26.5 30.99c.218-.51.397-1.03.568-1.546a9.159 9.159 0 0 0-2.968 1.142c1.316-1.785 3.627-2.02 5.733-2.914 5.633-2.389.594-6.238-1.823-7.778Zm-11.81 2.55a12.43 12.43 0 0 0-7.775 2.716 12.307 12.307 0 0 0 2.728-7.742c0-2.928-1.022-5.621-2.728-7.741a12.43 12.43 0 0 0 7.776 2.716c2.942 0 5.646-1.018 7.776-2.716a12.307 12.307 0 0 0-2.728 7.741c0 2.93 1.021 5.622 2.728 7.742a12.43 12.43 0 0 0-7.776-2.716Z"/></g><defs><linearGradient id="b" x1="57.514" x2="82.861" y1="-9.819" y2="34.273" gradientUnits="userSpaceOnUse"><stop stop-color="#F8E6B4"/><stop offset="1" stop-color="#F6B853"/></linearGradient><linearGradient id="c" x1="7.16" x2="25.121" y1="1.832" y2="33.075" gradientUnits="userSpaceOnUse"><stop stop-color="#F8E6B4"/><stop offset="1" stop-color="#F6B853"/></linearGradient><clipPath id="a"><path fill="#fff" d="M0 0h108v40H0z"/></clipPath></defs></svg>