<svg width="120" height="55" viewBox="0 0 120 55" fill="none" xmlns="http://www.w3.org/2000/svg">
  <g clip-path="url(#clip0_9071_12545)">
    <path d="M115.278 26.1982L103.734 9.71024L110.286 0.344238H91.53L88.53 4.63424H28.122L27.738 5.17424H27.696L25.314 8.57624L19.89 0.818238H2.33398L19.194 24.8962H11.124L28.11 48.9562L48.018 49.0102H50.274C52.782 51.0142 55.956 52.1842 59.346 52.1842C60.87 52.1842 62.382 51.9442 63.84 51.4642C65.568 50.9002 67.116 50.0362 68.448 48.9562H78.204V47.2822C79.656 48.5422 81.324 49.1782 83.178 49.1782H104.298L118.572 30.9562L115.284 26.1862L115.278 26.1982Z" fill="url(#paint0_linear_9071_12545)"/>
    <path d="M112.974 27.8121L100.302 9.71006L104.886 3.16406H93L79.626 22.2681V13.3341L84.15 7.45406H29.574L29.19 7.99406H29.166L27.66 10.1421L25.32 13.4841L18.426 3.63206H7.73999L24.6 27.7101H16.554L29.568 46.1481L49.074 46.2021H51.306C51.306 46.2021 51.324 46.2021 51.33 46.2021C53.442 48.1941 56.28 49.3761 59.34 49.3761C60.564 49.3761 61.782 49.1841 62.958 48.8001C64.668 48.2421 66.162 47.3181 67.386 46.1541H76.59V41.0241L80.994 45.0201C82.302 46.2381 83.502 46.3821 84.288 46.3821H102.918L115.074 30.8721L112.974 27.8241V27.8121Z" fill="url(#paint1_linear_9071_12545)"/>
    <path d="M32.22 44.2703C30.78 44.2703 29.778 43.3703 29.778 42.0743C29.778 41.3063 30.18 40.5503 30.882 39.9983L35.898 36.0503C37.026 35.1443 37.842 34.5203 38.442 34.0763C37.686 34.0883 36.666 34.0943 35.244 34.0943H23.406L20.196 29.5823H45.126C46.566 29.5823 47.568 30.4823 47.568 31.7783C47.568 32.5463 47.154 33.3143 46.458 33.8363L41.394 37.8563C40.236 38.7683 39.432 39.3923 38.856 39.8303C39.99 39.8063 41.514 39.7943 42.828 39.7943H48.744L45.492 44.2643H32.226L32.22 44.2703Z" fill="white"/>
    <path d="M45.2461 43.8023H32.2201C31.1521 43.8023 30.2461 43.1843 30.2461 42.0743C30.2461 41.4383 30.5941 40.8203 31.1701 40.3703L36.1861 36.4223C38.4661 34.5923 39.4561 33.9143 39.9661 33.5423C39.2281 33.6023 37.9741 33.6263 35.2381 33.6263H23.6461L21.1021 30.0503H45.12C46.188 30.0503 47.094 30.6683 47.094 31.7783C47.094 32.3963 46.746 33.0323 46.17 33.4643L41.094 37.4903C38.8321 39.2783 37.89 39.9743 37.3561 40.3463C38.034 40.3043 40.6621 40.2623 42.8221 40.2623H47.8141L45.2461 43.7963V43.8023Z" fill="url(#paint2_linear_9071_12545)"/>
    <path d="M84.5461 44.4982C84.0001 44.4982 83.3341 44.3962 82.5181 43.6342L74.8801 36.7822V44.2762H70.0801V32.4022C70.0801 30.1582 71.5861 29.3662 72.8701 29.3662C73.3981 29.3662 74.0581 29.4682 74.8921 30.2302L82.5301 37.0882V29.5942H87.3541V41.4502C87.3541 43.7062 85.8421 44.5102 84.5401 44.5102L84.5461 44.4982Z" fill="white"/>
    <path d="M82.842 43.2861L74.418 35.7261V43.8021H70.554V32.3961C70.554 30.5661 71.664 29.8281 72.876 29.8281C73.392 29.8281 73.902 29.9541 74.58 30.5661L83.004 38.1261V30.0501H86.886V41.4321C86.886 43.2621 85.776 44.0241 84.546 44.0241C84.012 44.0241 83.496 43.8981 82.842 43.2861Z" fill="url(#paint3_linear_9071_12545)"/>
    <path d="M88.3259 44.2701V29.5881H105.672L102.198 34.1001H93.5399V34.8021H104.922L101.742 38.8641H93.5399V39.8001H105.72L102.258 44.2701H88.3259Z" fill="white"/>
    <path d="M104.76 40.2682L102.024 43.8022H88.7881V30.0562H104.712L101.958 33.6322H93.0601V35.2762H103.95L101.502 38.4022H93.0541V40.2742H104.748L104.76 40.2682Z" fill="url(#paint4_linear_9071_12545)"/>
    <path d="M37.2419 25.9342V9.32617H56.8199L52.9559 14.3422H43.0499V15.2782H55.9619L52.4399 19.7722H43.0499V20.9662H56.8679L53.0279 25.9342H37.2419Z" fill="white"/>
    <path d="M55.9141 21.4402L52.8001 25.4662H37.7161V9.79419H55.8721L52.7341 13.8682H42.5941V15.7402H55.0081L52.2241 19.2982H42.5941V21.4282H55.9261L55.9141 21.4402Z" fill="url(#paint5_linear_9071_12545)"/>
    <path d="M66.5221 25.9341C60.8701 25.9341 56.6101 22.2981 56.6101 17.4741C56.6101 12.6501 60.6841 9.32007 66.5221 9.32007H78.6961L74.8381 14.3361H66.5221C64.1161 14.3361 62.3761 15.7461 62.3761 17.6841C62.3761 19.6221 64.0441 20.9661 66.5221 20.9661H71.9821V19.6341H63.3481L67.0321 15.2061H77.7481V25.9341H66.5281H66.5221Z" fill="white"/>
    <path d="M67.2479 15.6742H77.2739V25.4662H66.5219C61.0859 25.4662 57.0779 22.0222 57.0779 17.4802C57.0779 12.9382 61.0859 9.79419 66.5219 9.79419H77.7419L74.6039 13.8682H66.5219C63.8999 13.8682 61.9079 15.4582 61.9079 17.6842C61.9079 19.9102 63.8279 21.4342 66.5219 21.4342H72.4499V19.1602H64.3439L67.2479 15.6682V15.6742Z" fill="url(#paint6_linear_9071_12545)"/>
    <path d="M88.6679 25.9341L92.1899 20.9061H98.5439L94.3559 14.9241L86.6459 25.9341H79.3379L93.9719 5.03613H101.28L98.0099 9.71013L109.368 25.9341H102.306H88.6679Z" fill="white"/>
    <path d="M108.468 25.4662L97.4339 9.71015L100.38 5.50415H94.2179L80.2439 25.4662H86.4059L94.3559 14.1082L99.4439 21.3742H92.4299L89.5679 25.4662H102.306H108.468Z" fill="url(#paint7_linear_9071_12545)"/>
    <path d="M10.446 5.03613H17.688L25.32 15.9321L29.898 9.39213H37.2L28.752 21.3801L25.32 26.2821L10.446 5.03613Z" fill="white"/>
    <path d="M36.2939 9.86615L28.3739 21.1101L25.3259 25.4662L11.3459 5.50415H17.4479L25.3199 16.7482L30.1379 9.86015H36.2879L36.2939 9.86615Z" fill="url(#paint8_linear_9071_12545)"/>
    <path d="M104.292 49.1902H83.172C81.324 49.1902 79.65 48.5542 78.198 47.2942V48.9682H68.442C67.11 50.0482 65.562 50.9122 63.834 51.4762C62.376 51.9502 60.864 52.1962 59.34 52.1962C55.95 52.1962 52.782 51.0262 50.268 49.0162H48.012L28.104 48.9682L41.394 54.2962H93.036L104.286 49.2022L104.292 49.1902Z" fill="#3B0000"/>
    <path d="M59.088 47.6962C64.8141 47.6962 69.456 43.0543 69.456 37.3282C69.456 31.6021 64.8141 26.9602 59.088 26.9602C53.3619 26.9602 48.72 31.6021 48.72 37.3282C48.72 43.0543 53.3619 47.6962 59.088 47.6962Z" fill="white"/>
    <path d="M68.9818 36.7521C68.9818 37.4301 68.9278 38.1501 68.8618 38.8281C68.8258 39.2001 68.7538 39.5721 68.6578 39.9381L67.9558 41.7501C67.8718 41.9121 67.8058 42.0681 67.6918 42.2181C67.6678 42.2481 67.5718 42.3921 67.5598 42.3981C67.5298 42.4221 67.4758 42.4161 67.4638 42.4341C67.4518 42.4521 67.4638 42.5001 67.4578 42.5121C67.4398 42.5301 67.3258 42.5121 67.2778 42.5241C67.2418 42.5361 67.2178 42.5841 67.1758 42.5961C67.0738 42.6261 66.9298 42.6381 66.8398 42.6681C66.7618 42.6921 66.7678 42.8421 66.5878 42.7821C66.8338 42.4401 67.0078 42.1221 67.1998 41.7561C67.4398 41.3061 67.6078 40.9521 67.7878 40.4661C68.1478 39.5061 68.3338 38.6301 68.3458 37.5981C68.3458 37.4421 68.3578 37.2501 68.3458 37.1001C68.3818 36.5121 68.2678 35.9421 68.1418 35.3721C67.9498 34.4961 67.6798 33.6381 67.2358 32.8521C67.1758 32.8461 67.2238 32.9541 67.2058 32.9721C67.1938 32.9841 67.0678 32.9661 67.0318 32.9721C66.9658 33.0381 67.3558 33.4941 67.3558 33.6141C67.1338 33.5601 66.9418 33.4101 66.7198 33.3561C65.6518 33.1161 64.9138 33.9441 63.9178 34.0221C63.2698 34.0701 62.5978 33.9441 61.9918 33.7221C61.8538 33.6741 61.3498 33.4761 61.2598 33.4101C61.2418 33.3981 61.2058 33.3261 61.2118 33.3201C62.0098 33.3081 62.7778 33.5061 63.5758 33.3321C64.1218 33.2121 64.5658 32.9361 65.0338 32.6541C65.0878 32.6181 65.4058 32.5221 65.3338 32.4141C65.3218 32.3961 65.1598 32.3901 65.1238 32.3781C64.9258 32.3181 64.7278 32.2641 64.5298 32.2101C64.4038 32.1801 64.3138 32.2581 64.2418 32.0901C64.2118 32.0241 64.2418 31.9221 64.1518 31.9161C63.9478 31.9221 63.7378 31.9281 63.5398 31.9461C62.5078 32.0361 61.8358 32.3001 60.8038 31.8741C59.9938 31.5381 59.7358 30.7641 58.9498 30.4521C58.4218 30.2421 57.7918 30.2181 57.2338 30.2841L57.4978 30.1821C58.3078 29.9601 58.9018 29.9661 59.6998 30.2361C60.0298 30.3501 60.0958 30.5361 60.3358 30.7401C60.7678 31.1061 61.4098 31.3881 61.9678 31.4781C62.0158 31.4841 62.3098 31.5321 62.3278 31.5141C62.4058 31.4361 62.2318 31.4121 62.2018 31.3941C61.9438 31.2501 61.6258 31.0641 61.4218 30.8541C61.3678 30.8001 61.1998 30.5361 61.1818 30.5241C61.1518 30.5061 61.0918 30.5181 61.0498 30.4941C60.9598 30.4461 60.9178 30.3681 60.8578 30.3321C60.7258 30.2481 60.5278 30.1821 60.3958 30.0921C60.2998 30.0261 60.2398 29.9001 60.1438 29.8161C60.0838 29.7681 59.5678 29.4381 59.5258 29.4321C59.4658 29.4261 59.4058 29.4621 59.3518 29.4621C58.8778 29.4381 58.3918 29.3961 57.9178 29.4321C57.4858 29.4621 57.0598 29.5701 56.6278 29.6061C55.8118 29.6781 55.0858 29.5281 54.4798 30.2061C53.9938 30.7521 53.8438 31.1181 53.0518 31.3221C52.9138 31.3581 52.6138 31.4481 52.5478 31.3041C52.8718 31.1481 53.1418 30.8961 53.3818 30.6321C53.8318 30.1341 53.9518 29.8401 54.5878 29.4981C55.2238 29.1561 55.7698 29.0241 56.5138 28.9941C57.1738 28.9701 57.8398 28.9941 58.4878 29.0541C58.4998 28.9581 58.3978 29.0061 58.3378 28.9221C58.2898 28.8501 58.2778 28.6941 58.2178 28.6101C58.1998 28.5801 57.9838 28.3101 57.9718 28.2921C57.9178 28.2441 57.7858 28.2321 57.7558 28.1601C57.7318 28.1001 57.7978 28.1241 57.8278 28.1181C57.9478 28.1001 58.0558 28.0941 58.1758 28.0881C58.2358 28.0881 58.2598 28.1121 58.2478 28.0281C56.3818 28.1481 54.7018 28.7841 53.2558 29.9601C52.5898 30.5001 52.0678 31.1361 51.5698 31.8321C50.9578 32.6961 50.4838 33.7281 50.1958 34.7601C49.8658 35.9421 49.7758 37.0341 49.9018 38.2461C49.9918 39.1161 50.1958 40.0221 50.5438 40.8201L50.2738 40.8441C50.1778 40.8201 50.1058 40.7601 50.0098 40.7241C49.9558 40.7061 49.8658 40.7121 49.8418 40.7001C49.7938 40.6641 49.5238 39.6801 49.4938 39.5421C49.1998 38.2521 49.2058 37.2801 49.3378 35.9781C49.3378 35.9301 49.3618 35.8521 49.3138 35.8221C50.5918 27.5901 60.7978 24.4581 66.4258 30.6141C67.8238 32.1441 68.9998 34.6641 68.9878 36.7641L68.9818 36.7521ZM58.3258 28.0281V28.0581H58.7038V28.0281H58.3258ZM67.1818 32.8041V32.8341C67.1818 32.8341 67.1998 32.8161 67.1818 32.8041Z" fill="#FE6B15"/>
    <path d="M49.3139 35.816C49.3619 35.846 49.3439 35.924 49.3379 35.972C49.2059 37.274 49.1999 38.252 49.4939 39.536C49.5239 39.674 49.7879 40.664 49.8419 40.694C49.8659 40.706 49.9559 40.694 50.0099 40.718C50.1059 40.754 50.1779 40.814 50.2739 40.838L50.5439 40.814C51.6299 43.316 53.4659 45.188 56.0639 46.112C59.9879 47.51 64.1999 46.13 66.5879 42.776C66.7679 42.836 66.7679 42.692 66.8399 42.662C66.9299 42.632 67.0799 42.62 67.1759 42.59C67.2179 42.578 67.2419 42.524 67.2779 42.518C67.3319 42.5 67.4459 42.524 67.4579 42.506C67.4639 42.5 67.4519 42.446 67.4639 42.428C67.4759 42.41 67.5359 42.416 67.5599 42.392C67.5659 42.386 67.6679 42.248 67.6919 42.212C66.2459 44.852 63.4079 46.79 60.4139 47.186C53.8859 48.038 48.2999 42.308 49.3079 35.804L49.3139 35.816Z" fill="#F1481D"/>
    <path d="M68.6578 39.9441C68.4898 40.5681 68.2498 41.1861 67.9558 41.7561L68.6578 39.9441Z" fill="#F1481D"/>
    <path d="M51.5639 31.8381C51.7319 32.3901 52.4879 32.7621 53.0099 32.8941C54.0659 33.1581 54.8519 32.6841 55.8839 32.6241C57.5699 32.5281 58.7159 33.3861 60.0599 34.2201C61.0559 34.8381 61.9199 35.2401 63.1439 35.1741L64.2419 35.0601C64.2419 35.0601 64.1519 35.2221 64.1339 35.2341C64.0979 35.2581 63.8699 35.3481 63.8099 35.3721C62.5379 35.8401 61.1999 35.5521 59.9759 35.0901C59.5319 34.9221 59.2259 34.7841 58.7219 34.7601L57.6239 34.8201L58.4639 35.0481C60.1319 35.5161 61.5119 37.5801 63.4259 37.0701C63.5039 37.0521 63.7619 36.9321 63.7859 36.9321C63.8579 36.9321 63.8459 37.0161 63.8759 37.0221C63.9299 37.0281 64.0979 36.9621 64.1699 36.9621C64.3739 36.9621 64.4159 37.1601 64.2419 37.2741C64.1399 37.3401 63.7799 37.5081 63.6659 37.5441C63.4199 37.6221 63.2339 37.5861 62.9939 37.6041C62.9099 37.6101 62.7779 37.6281 62.8439 37.7241C62.8559 37.7421 63.1979 37.8081 63.2579 37.8081C63.5699 37.8321 63.9299 37.7781 64.2179 37.6581C64.3319 37.6101 64.5359 37.4541 64.6139 37.4361C64.6499 37.4301 64.9859 37.3881 65.0039 37.4001C65.0219 37.4121 64.9679 37.5081 65.0459 37.4901C65.6759 36.4221 66.8099 35.9181 67.9739 35.6481C68.0219 35.6361 68.0819 35.6481 68.1359 35.6481V35.3841C68.2619 35.9541 68.3759 36.5241 68.3399 37.1121C68.3399 37.0761 68.2859 36.9861 68.3039 36.9141C68.1899 36.8781 68.0759 36.7761 67.9559 36.7461C67.4519 36.6381 66.5279 36.8961 66.2159 37.3221C66.2039 37.3401 66.0839 37.5561 66.0839 37.5681C66.0779 37.7121 66.2039 37.7361 66.2219 37.7661C66.2399 37.8021 66.2159 37.8681 66.2399 37.9101C66.2579 37.9341 66.4619 37.9701 66.5039 37.9701C66.5219 37.9701 66.8819 37.8741 66.8999 37.8681C66.9599 37.8441 67.1579 37.6221 67.2839 37.5501C67.7459 37.2861 67.8839 37.5441 68.3339 37.6221C68.3219 38.6541 68.1359 39.5301 67.7759 40.4901C67.7159 40.4961 67.7279 40.5921 67.7099 40.6041C67.6919 40.6161 67.6139 40.6041 67.5659 40.6221C67.5539 40.6281 67.3259 40.7781 67.3019 40.7961C67.1759 40.8981 67.0859 41.1201 66.9659 41.2221C66.8459 41.3241 66.6119 41.4081 66.4559 41.3361C66.3779 41.2221 66.9539 40.8621 67.0559 40.7781C67.2299 40.6281 67.9319 39.8541 67.9139 39.6561C67.9139 39.6381 67.7879 39.3801 67.7759 39.3681C67.7099 39.2841 67.4699 39.3201 67.3679 39.3201C67.3079 39.4641 67.2119 39.6321 67.1099 39.7521C66.7859 40.1601 65.9699 40.7001 65.5139 40.9941C65.3759 41.0841 65.0819 41.2941 64.9439 41.3301C64.8059 41.3661 64.9979 41.2221 65.0039 41.2161C65.0879 41.0901 64.9319 41.1501 64.9079 41.1261C64.8959 41.1201 64.8119 40.8981 64.7999 40.8981C63.7319 41.4381 62.6699 41.6241 61.4999 41.2701C60.7919 41.0541 60.1559 40.5861 59.4539 40.4181C58.8059 40.2681 58.1279 40.3221 57.4679 40.3101C57.4619 40.2621 57.4679 40.2441 57.4979 40.2081C57.5339 40.1661 58.4339 39.8301 58.5659 39.7821C59.8439 39.3381 60.5279 39.3681 61.7699 39.9141C62.0639 40.0461 62.1179 40.1421 62.4539 40.1961C62.9939 40.2801 63.6059 40.4061 64.1339 40.2321C64.3379 40.1661 64.6079 40.0281 64.6679 39.8121C64.5779 39.8541 64.4759 39.8241 64.3919 39.8421C64.1099 39.8961 63.9779 39.9441 63.6599 39.9261C63.4859 39.9201 62.4479 39.7341 62.4179 39.5901C62.3939 39.4761 62.5679 39.5481 62.6099 39.5481C62.9879 39.5601 63.3599 39.4821 63.7379 39.4581C63.7499 39.3681 63.7139 39.4101 63.6659 39.3981C63.5219 39.3621 63.0839 39.3201 62.9939 39.2541C62.9639 39.2361 62.9699 39.2061 62.9759 39.1761C63.0419 38.9121 63.8939 38.8281 63.7979 38.4021C62.9159 38.6421 61.9739 38.3301 61.1939 37.9221C59.9219 37.2561 58.9439 36.6441 57.4079 36.8301C56.3639 36.9561 55.7099 37.4721 54.5699 37.3221C52.9319 37.1001 52.8539 36.0501 51.6779 35.3241C51.2279 35.0481 50.7179 34.8441 50.1899 34.7781C50.4779 33.7461 50.9519 32.7141 51.5639 31.8501V31.8381ZM58.4159 33.6201C58.4159 33.6201 57.8339 33.4161 57.7499 33.3921C57.5699 33.3441 57.3179 33.2721 57.1379 33.2421C56.1959 33.0921 55.1699 33.6081 54.2159 33.5301L53.5019 33.4701C53.7539 33.8481 54.2699 33.9501 54.6959 34.0161C55.8179 34.1961 56.5439 33.9921 57.6119 33.8181C57.7799 33.7881 58.2719 33.7461 58.3799 33.6801C58.4039 33.6681 58.4579 33.6561 58.4159 33.6141V33.6201ZM59.6459 36.4881C59.6459 36.4881 59.5379 36.4641 59.5019 36.4401C58.5539 35.8161 57.7559 35.5521 56.5859 35.6061C55.7579 35.6421 54.6119 35.7081 53.8499 35.3301C53.3639 35.0901 53.1719 34.6341 52.7819 34.2861C52.2779 33.8361 51.5879 33.5241 50.9219 33.4401C50.9099 33.5181 50.9579 33.5541 51.0119 33.6021C51.2279 33.8121 51.5519 33.9501 51.7859 34.2021C52.4039 34.8621 52.6619 35.5521 53.4839 36.0741C54.7739 36.9021 55.9079 36.2781 57.2579 36.2181C58.0499 36.1821 58.8659 36.2301 59.6039 36.5361C59.6519 36.5601 59.6519 36.4941 59.6399 36.4821L59.6459 36.4881ZM60.2879 40.0041C60.2879 40.0461 60.3059 40.0881 60.3359 40.1181C60.4199 40.2141 61.1159 40.5141 61.2719 40.5621C61.5059 40.6341 62.3579 40.8141 61.7819 40.4301C61.4519 40.2141 60.9599 40.0341 60.5639 40.0041C60.4739 39.9981 60.3899 40.0581 60.2879 40.0041Z" fill="#CD2F23"/>
    <path d="M51.564 31.8382C52.056 31.1422 52.584 30.5062 53.25 29.9662C54.696 28.7902 56.37 28.1542 58.242 28.0342C58.254 28.1182 58.23 28.0882 58.17 28.0942C58.05 28.1002 57.942 28.1062 57.822 28.1242C57.792 28.1242 57.72 28.1062 57.75 28.1662C57.78 28.2442 57.912 28.2502 57.966 28.2982C57.984 28.3102 58.194 28.5862 58.212 28.6162C58.272 28.7002 58.278 28.8562 58.332 28.9282C58.386 29.0122 58.488 28.9642 58.482 29.0602C57.828 28.9942 57.162 28.9762 56.508 29.0002C55.764 29.0302 55.242 29.1502 54.582 29.5042C53.922 29.8582 53.826 30.1462 53.376 30.6382C53.136 30.9022 52.866 31.1602 52.542 31.3102C52.608 31.4602 52.908 31.3642 53.046 31.3282C53.838 31.1242 53.994 30.7522 54.474 30.2122C55.08 29.5342 55.806 29.6842 56.622 29.6122C57.054 29.5762 57.48 29.4682 57.912 29.4382C58.386 29.4022 58.872 29.4382 59.346 29.4682C59.4 29.4682 59.454 29.4322 59.52 29.4382C59.562 29.4382 60.078 29.7682 60.138 29.8222C60.234 29.9062 60.294 30.0322 60.39 30.0982C60.516 30.1882 60.714 30.2542 60.852 30.3382C60.912 30.3742 60.954 30.4522 61.044 30.5002C61.086 30.5242 61.146 30.5122 61.176 30.5302C61.194 30.5422 61.362 30.8062 61.416 30.8602C61.62 31.0702 61.938 31.2502 62.196 31.4002C62.226 31.4182 62.4 31.4422 62.322 31.5202C62.31 31.5322 62.016 31.4902 61.962 31.4842C61.404 31.3942 60.756 31.1122 60.33 30.7462C60.09 30.5422 60.024 30.3562 59.694 30.2422C58.896 29.9722 58.302 29.9662 57.492 30.1882L57.228 30.2902C57.792 30.2302 58.416 30.2482 58.944 30.4582C59.73 30.7702 59.988 31.5502 60.798 31.8802C61.83 32.3062 62.508 32.0482 63.534 31.9522C63.732 31.9342 63.948 31.9282 64.146 31.9222C64.242 31.9222 64.206 32.0302 64.236 32.0962C64.308 32.2642 64.398 32.1862 64.524 32.2162C64.722 32.2642 64.92 32.3242 65.118 32.3842C65.16 32.3962 65.316 32.4022 65.328 32.4202C65.4 32.5282 65.082 32.6242 65.028 32.6602C64.56 32.9422 64.116 33.2182 63.57 33.3382C62.772 33.5122 62.004 33.3202 61.206 33.3262C61.206 33.3262 61.242 33.4042 61.254 33.4162C61.344 33.4822 61.848 33.6802 61.986 33.7282C62.592 33.9502 63.264 34.0762 63.912 34.0282C64.908 33.9502 65.646 33.1222 66.714 33.3622C66.936 33.4102 67.128 33.5602 67.35 33.6202C67.35 33.5002 66.966 33.0442 67.026 32.9782C67.062 32.9722 67.194 32.9902 67.2 32.9782C67.218 32.9602 67.17 32.8522 67.23 32.8582C67.674 33.6442 67.944 34.5022 68.136 35.3782V35.6422C68.088 35.6422 68.028 35.6302 67.974 35.6422C66.81 35.9122 65.676 36.4162 65.046 37.4842C64.968 37.5022 65.016 37.4122 65.004 37.3942C64.992 37.3822 64.65 37.4182 64.614 37.4302C64.536 37.4482 64.338 37.6042 64.218 37.6522C63.93 37.7722 63.576 37.8322 63.258 37.8022C63.198 37.8022 62.856 37.7362 62.844 37.7182C62.772 37.6222 62.91 37.6042 62.994 37.5982C63.234 37.5802 63.42 37.6162 63.666 37.5382C63.786 37.5022 64.14 37.3342 64.242 37.2682C64.416 37.1542 64.374 36.9562 64.17 36.9562C64.098 36.9562 63.93 37.0222 63.876 37.0162C63.846 37.0162 63.858 36.9262 63.786 36.9262C63.762 36.9262 63.504 37.0462 63.426 37.0642C61.518 37.5802 60.132 35.5162 58.464 35.0422L57.624 34.8142L58.722 34.7542C59.226 34.7722 59.532 34.9162 59.976 35.0842C61.194 35.5462 62.532 35.8342 63.81 35.3662C63.87 35.3422 64.098 35.2522 64.134 35.2282C64.158 35.2102 64.26 35.0722 64.242 35.0542L63.144 35.1682C61.92 35.2342 61.056 34.8322 60.06 34.2142C58.716 33.3862 57.576 32.5282 55.884 32.6182C54.852 32.6722 54.066 33.1522 53.01 32.8882C52.488 32.7562 51.732 32.3842 51.564 31.8322V31.8382ZM60.552 32.7982L59.712 32.3962C58.428 31.6582 56.982 30.6502 55.416 30.8122C55.212 30.8362 55.014 30.9322 54.81 30.9562C54.774 31.0342 54.87 31.0522 54.87 31.0582C54.882 31.1362 54.81 31.1542 54.786 31.2142C54.774 31.2502 54.738 31.4482 54.75 31.4542C54.75 31.4542 54.846 31.4482 54.894 31.4722C54.9 31.4722 55.038 31.5802 55.044 31.5922C55.062 31.7062 54.918 31.6822 54.924 31.7842C55.458 31.6942 56.028 31.5502 56.568 31.6462C57.108 31.7422 57.474 32.0242 57.948 32.2282C58.782 32.5942 59.634 32.7502 60.546 32.8102L60.552 32.7982ZM67.956 35.1742C67.866 34.9702 67.71 34.4422 67.53 34.3282C67.47 34.2922 67.248 34.2322 67.17 34.2202C66.468 34.1062 65.832 34.3762 65.304 34.8262C65.19 34.9282 65.052 35.0602 64.968 35.1922C65.046 35.2222 65.082 35.1262 65.184 35.1502C65.238 35.1682 65.274 35.2522 65.322 35.2762C65.448 35.3362 65.544 35.2522 65.568 35.4682C66.312 35.0062 67.116 34.8382 67.95 35.1742H67.956Z" fill="#F1481D"/>
    <path d="M50.19 34.76C50.718 34.82 51.228 35.024 51.678 35.306C52.854 36.032 52.926 37.082 54.57 37.304C55.71 37.46 56.364 36.938 57.408 36.812C58.938 36.632 59.922 37.244 61.194 37.904C61.974 38.312 62.916 38.624 63.798 38.384C63.894 38.81 63.042 38.894 62.976 39.158C62.97 39.188 62.964 39.212 62.994 39.236C63.084 39.302 63.522 39.344 63.666 39.38C63.714 39.392 63.75 39.35 63.738 39.44C63.36 39.464 62.988 39.542 62.61 39.53C62.574 39.53 62.394 39.464 62.418 39.572C62.454 39.716 63.492 39.902 63.66 39.908C63.978 39.926 64.11 39.872 64.392 39.824C64.476 39.806 64.578 39.836 64.668 39.794C64.608 40.004 64.338 40.142 64.134 40.214C63.606 40.394 62.988 40.262 62.454 40.178C62.118 40.124 62.064 40.028 61.77 39.896C60.528 39.35 59.844 39.32 58.566 39.764C58.434 39.812 57.54 40.148 57.498 40.19C57.462 40.226 57.462 40.244 57.468 40.292C58.128 40.304 58.806 40.25 59.454 40.4C60.156 40.562 60.792 41.036 61.5 41.252C62.67 41.606 63.732 41.42 64.8 40.88C64.812 40.88 64.896 41.102 64.908 41.108C64.938 41.132 65.088 41.072 65.004 41.198C65.004 41.204 64.8 41.36 64.944 41.312C65.088 41.264 65.376 41.06 65.514 40.976C65.97 40.682 66.786 40.136 67.11 39.734C67.206 39.614 67.302 39.446 67.368 39.302C67.47 39.302 67.71 39.266 67.776 39.35C67.788 39.368 67.914 39.626 67.914 39.638C67.932 39.836 67.23 40.61 67.056 40.76C66.96 40.844 66.378 41.204 66.456 41.318C66.618 41.39 66.846 41.306 66.966 41.204C67.086 41.102 67.176 40.88 67.302 40.778C67.326 40.76 67.554 40.61 67.566 40.604C67.614 40.58 67.692 40.604 67.71 40.586C67.728 40.574 67.71 40.484 67.776 40.472C67.596 40.952 67.434 41.306 67.188 41.762C67.08 41.876 66.888 41.96 66.738 42.032C65.418 42.632 63.906 42.524 62.49 42.41C61.248 42.308 60.69 41.924 59.592 41.534C58.338 41.084 57 41.336 55.698 41.246C53.16 41.066 52.344 38.798 50.04 38.24C50.004 38.234 49.86 38.168 49.89 38.258C49.764 37.046 49.854 35.954 50.184 34.772L50.19 34.76ZM56.25 37.658C56.25 37.658 55.86 37.772 55.782 37.79C53.82 38.234 52.386 37.976 50.982 36.53C50.916 36.464 50.892 36.35 50.778 36.368C50.874 37.064 51.198 37.7 51.81 38.072C53.1 38.852 55.008 38.606 56.196 37.73C56.208 37.718 56.304 37.7 56.25 37.652V37.658ZM60.846 38.42C60.84 38.378 60.792 38.366 60.756 38.348C59.694 37.718 58.212 37.604 57.114 38.222C56.088 38.804 55.884 39.644 54.534 39.74L53.526 39.71C53.784 39.806 54.024 39.956 54.288 40.046C54.816 40.232 55.446 40.274 55.992 40.142C56.574 39.998 56.85 39.362 57.306 39.026C57.714 38.72 58.44 38.504 58.944 38.408C59.586 38.288 60.204 38.324 60.846 38.42Z" fill="#9C201F"/>
    <path d="M68.3398 37.6041C67.8898 37.5261 67.7518 37.2681 67.2898 37.5321C67.1638 37.6041 66.9658 37.8261 66.9058 37.8501C66.8878 37.8561 66.5338 37.9521 66.5098 37.9521C66.4678 37.9521 66.2578 37.9161 66.2458 37.8921C66.2218 37.8561 66.2458 37.7841 66.2278 37.7481C66.2098 37.7181 66.0838 37.6941 66.0898 37.5501C66.0898 37.5381 66.2098 37.3221 66.2218 37.3041C66.5338 36.8841 67.4578 36.6201 67.9618 36.7281C68.0818 36.7521 68.1958 36.8541 68.3098 36.8961C68.2918 36.9681 68.3398 37.0581 68.3458 37.0941C68.3578 37.2441 68.3458 37.4361 68.3458 37.5921L68.3398 37.6041Z" fill="#F1481D"/>
    <path d="M58.3242 28.0269L58.3242 28.0569L58.7022 28.057L58.7022 28.027L58.3242 28.0269Z" fill="#F1481D"/>
    <path d="M67.1819 32.804C67.1819 32.804 67.1999 32.822 67.1819 32.834V32.804Z" fill="#F1481D"/>
    <path d="M59.646 36.488C59.646 36.488 59.658 36.566 59.61 36.542C58.872 36.236 58.056 36.188 57.264 36.224C55.914 36.284 54.774 36.908 53.49 36.08C52.668 35.552 52.41 34.868 51.792 34.208C51.558 33.956 51.234 33.818 51.018 33.608C50.97 33.56 50.916 33.524 50.928 33.446C51.594 33.536 52.284 33.842 52.788 34.292C53.178 34.64 53.37 35.09 53.856 35.336C54.618 35.714 55.764 35.654 56.592 35.612C57.762 35.558 58.554 35.822 59.508 36.446C59.544 36.47 59.646 36.488 59.652 36.494L59.646 36.488Z" fill="#F1481D"/>
    <path d="M58.416 33.62C58.458 33.662 58.404 33.668 58.38 33.686C58.272 33.752 57.78 33.8 57.612 33.824C56.538 33.998 55.818 34.202 54.696 34.022C54.27 33.956 53.754 33.854 53.502 33.476L54.216 33.536C55.17 33.614 56.196 33.098 57.138 33.248C57.318 33.278 57.57 33.344 57.75 33.398C57.834 33.422 58.392 33.602 58.416 33.626V33.62Z" fill="#F1481D"/>
    <path d="M60.5518 32.798C59.6458 32.738 58.7938 32.582 57.9538 32.216C57.4858 32.012 57.1018 31.724 56.5738 31.634C56.0458 31.544 55.4578 31.676 54.9298 31.772C54.9178 31.676 55.0678 31.694 55.0498 31.58C55.0498 31.568 54.9118 31.466 54.8998 31.46C54.8518 31.436 54.7618 31.448 54.7558 31.442C54.7438 31.436 54.7798 31.232 54.7918 31.202C54.8098 31.142 54.8818 31.13 54.8758 31.046C54.8758 31.04 54.7798 31.022 54.8158 30.944C55.0198 30.92 55.2178 30.824 55.4218 30.8C56.9878 30.632 58.4338 31.646 59.7178 32.384L60.5578 32.786L60.5518 32.798Z" fill="#FE6B15"/>
    <path d="M67.9559 35.1741C67.1159 34.8381 66.3179 35.0061 65.5739 35.4681C65.5439 35.2521 65.4539 35.3361 65.3279 35.2761C65.2799 35.2521 65.2439 35.1681 65.1899 35.1501C65.0939 35.1201 65.0519 35.2221 64.9739 35.1921C65.0579 35.0661 65.1959 34.9281 65.3099 34.8261C65.8379 34.3701 66.4679 34.1061 67.1759 34.2201C67.2539 34.2321 67.4759 34.2921 67.5359 34.3281C67.7159 34.4421 67.8659 34.9701 67.9619 35.1741H67.9559Z" fill="#FE6B15"/>
    <path d="M60.8459 38.42C60.2039 38.318 59.5859 38.288 58.9439 38.408C58.4399 38.498 57.7199 38.72 57.3059 39.026C56.8499 39.362 56.5799 39.998 55.9919 40.142C55.4459 40.274 54.8159 40.232 54.2879 40.046C54.0239 39.956 53.7839 39.812 53.5259 39.71L54.5339 39.74C55.8839 39.644 56.0879 38.804 57.1139 38.222C58.2059 37.604 59.6879 37.718 60.7559 38.348C60.7859 38.366 60.8339 38.378 60.8459 38.42Z" fill="#CD2F23"/>
    <path d="M56.2498 37.658C56.3038 37.7 56.2078 37.724 56.1958 37.736C55.0078 38.612 53.0998 38.852 51.8098 38.078C51.1978 37.706 50.8678 37.07 50.7778 36.374C50.8918 36.356 50.9158 36.47 50.9818 36.536C52.3918 37.976 53.8258 38.234 55.7818 37.796C55.8598 37.778 56.2318 37.646 56.2498 37.664V37.658Z" fill="#CD2F23"/>
    <path d="M49.896 38.246C49.866 38.156 50.016 38.216 50.046 38.228C52.35 38.786 53.166 41.054 55.704 41.234C57.006 41.324 58.344 41.078 59.598 41.522C60.69 41.912 61.254 42.296 62.496 42.398C63.912 42.512 65.424 42.626 66.744 42.02C66.894 41.954 67.08 41.864 67.194 41.75C66.996 42.116 66.822 42.434 66.582 42.776C64.194 46.13 59.982 47.51 56.058 46.112C53.466 45.188 51.63 43.316 50.538 40.814C50.19 40.016 49.986 39.104 49.896 38.24V38.246ZM54.114 42.458C53.532 42.44 52.962 42.194 52.632 41.702C52.164 41.012 52.182 40.604 51.408 40.058C51.312 39.986 50.568 39.506 50.514 39.56C50.514 39.59 50.514 39.62 50.526 39.65C50.61 39.812 51.024 40.154 51.168 40.322C51.96 41.234 52.14 42.62 53.484 42.836C53.976 42.914 54.486 42.872 54.972 42.896C54.99 42.896 54.984 42.944 55.008 42.956C55.182 43.004 55.434 43.004 55.626 43.064C56.244 43.25 56.748 43.796 57.312 44.102C58.002 44.48 58.974 44.696 59.742 44.474C59.796 44.456 60.012 44.354 60.024 44.312C60.054 44.18 59.718 44.27 59.658 44.27C58.236 44.318 58.194 43.826 57.192 43.13C56.286 42.506 55.308 42.494 54.42 41.978C54.042 41.762 53.706 41.474 53.328 41.258H53.262C53.22 41.294 53.508 41.672 53.55 41.738C53.724 42.002 53.838 42.146 54.066 42.362C54.096 42.392 54.12 42.404 54.108 42.452L54.114 42.458ZM57.624 41.726C57.624 41.726 58.092 41.882 58.182 41.918C59.37 42.428 59.832 43.748 61.41 43.418C61.722 43.352 61.668 43.256 61.428 43.118C61.128 42.944 60.756 42.842 60.456 42.656C60.192 42.494 59.958 42.266 59.682 42.11C59.082 41.762 58.362 41.582 57.666 41.666C57.624 41.666 57.582 41.678 57.624 41.726ZM59.91 45.446C59.904 45.5 59.934 45.524 59.982 45.536C60.078 45.554 60.336 45.542 60.45 45.536C61.974 45.428 62.682 44.264 64.02 43.778C64.338 43.664 64.74 43.604 65.028 43.472C65.334 43.334 65.268 43.262 64.98 43.202C64.158 43.028 63.024 43.352 62.34 43.826C61.788 44.21 61.35 44.786 60.768 45.122C60.504 45.272 60.204 45.392 59.91 45.452V45.446ZM58.008 45.272C58.008 45.272 57.378 45.14 57.276 45.11C56.634 44.936 56.178 44.57 55.572 44.354C55.146 44.204 54.696 44.126 54.264 44.012C54.252 44.066 54.288 44.084 54.324 44.114C54.588 44.33 54.864 44.54 55.134 44.756C55.83 45.32 56.652 45.344 57.528 45.332C57.666 45.332 57.84 45.35 57.966 45.332C58.008 45.332 58.056 45.314 58.008 45.272Z" fill="#7F1C1C"/>
    <path d="M60.2881 40.0039C60.3901 40.0579 60.4681 40.0039 60.5641 40.0039C60.9541 40.0279 61.4521 40.2079 61.7821 40.4299C62.3581 40.8139 61.5001 40.6339 61.2721 40.5619C61.1161 40.5139 60.4261 40.2139 60.3361 40.1179C60.3061 40.0879 60.2881 40.0459 60.2881 40.0039Z" fill="#9C201F"/>
    <path d="M54.1139 42.458C54.1259 42.41 54.0959 42.398 54.0719 42.368C53.8439 42.152 53.7299 42.008 53.5559 41.744C53.5139 41.678 53.2259 41.3 53.2679 41.258H53.3339C53.7119 41.48 54.0539 41.768 54.4259 41.984C55.3139 42.5 56.2919 42.512 57.1979 43.136C58.1999 43.826 58.2419 44.318 59.6639 44.276C59.7239 44.276 60.0599 44.186 60.0299 44.318C60.0179 44.36 59.8019 44.462 59.7479 44.48C58.9739 44.702 58.0019 44.48 57.3179 44.108C56.7599 43.802 56.2499 43.256 55.6319 43.07C55.4399 43.01 55.1939 43.01 55.0139 42.962C54.9899 42.956 54.9959 42.902 54.9779 42.902C54.4919 42.878 53.9819 42.92 53.4899 42.842C52.1459 42.626 51.9659 41.24 51.1739 40.328C51.0299 40.16 50.6159 39.818 50.5319 39.656C50.5139 39.626 50.5139 39.602 50.5199 39.566C50.5739 39.512 51.3179 39.992 51.4139 40.064C52.1879 40.61 52.1699 41.018 52.6379 41.708C52.9679 42.2 53.5379 42.446 54.1199 42.464L54.1139 42.458Z" fill="#9C201F"/>
    <path d="M59.91 45.4461C60.21 45.3861 60.504 45.2661 60.768 45.1161C61.35 44.7861 61.788 44.2041 62.34 43.8201C63.024 43.3461 64.158 43.0221 64.98 43.1961C65.268 43.2561 65.34 43.3281 65.028 43.4661C64.716 43.6041 64.332 43.6581 64.02 43.7721C62.682 44.2581 61.974 45.4221 60.45 45.5301C60.336 45.5361 60.084 45.5481 59.982 45.5301C59.934 45.5181 59.898 45.5001 59.91 45.4401V45.4461Z" fill="#9C201F"/>
    <path d="M57.6241 41.726C57.5821 41.684 57.6241 41.672 57.6661 41.666C58.3561 41.582 59.0761 41.762 59.6821 42.11C59.9521 42.266 60.1861 42.494 60.4561 42.656C60.7561 42.842 61.1281 42.944 61.4281 43.118C61.6681 43.256 61.7221 43.352 61.4101 43.418C59.8321 43.748 59.3701 42.428 58.1821 41.918C58.0981 41.882 57.6481 41.75 57.6241 41.726Z" fill="#9C201F"/>
    <path d="M58.0081 45.272C58.0501 45.314 58.0081 45.326 57.9661 45.332C57.8341 45.35 57.6601 45.332 57.5281 45.332C56.6521 45.344 55.8241 45.32 55.1341 44.756C54.8641 44.54 54.5941 44.33 54.3241 44.114C54.2881 44.084 54.2521 44.066 54.2641 44.012C54.6961 44.126 55.1521 44.204 55.5721 44.354C56.1781 44.57 56.6341 44.93 57.2761 45.11C57.3781 45.14 57.9781 45.248 58.0081 45.272Z" fill="#9C201F"/>
  </g>
  <defs>
    <linearGradient id="paint0_linear_9071_12545" x1="60.912" y1="51.3082" x2="60.24" y2="-0.285762" gradientUnits="userSpaceOnUse">
      <stop stop-color="#A11E22"/>
      <stop offset="0.49" stop-color="#6C1912"/>
      <stop offset="1" stop-color="#A11E22"/>
    </linearGradient>
    <linearGradient id="paint1_linear_9071_12545" x1="7.73999" y1="26.2701" x2="115.074" y2="26.2701" gradientUnits="userSpaceOnUse">
      <stop stop-color="#F04E27"/>
      <stop offset="0.49" stop-color="#C5262C"/>
      <stop offset="1" stop-color="#EA4828"/>
    </linearGradient>
    <linearGradient id="paint2_linear_9071_12545" x1="34.5301" y1="44.8163" x2="34.2661" y2="8.90029" gradientUnits="userSpaceOnUse">
      <stop stop-color="#FDC70C"/>
      <stop offset="0.04" stop-color="#FAB811"/>
      <stop offset="0.2" stop-color="#F28125"/>
      <stop offset="0.33" stop-color="#EC5933"/>
      <stop offset="0.44" stop-color="#E9413C"/>
      <stop offset="0.51" stop-color="#E83840"/>
      <stop offset="0.57" stop-color="#E83E3D"/>
      <stop offset="0.67" stop-color="#EB5037"/>
      <stop offset="0.78" stop-color="#F06E2D"/>
      <stop offset="0.9" stop-color="#F69720"/>
      <stop offset="1" stop-color="#FCBF13"/>
    </linearGradient>
    <linearGradient id="paint3_linear_9071_12545" x1="78.774" y1="44.4981" x2="78.51" y2="8.58213" gradientUnits="userSpaceOnUse">
      <stop stop-color="#FDC70C"/>
      <stop offset="0.04" stop-color="#FAB811"/>
      <stop offset="0.2" stop-color="#F28125"/>
      <stop offset="0.33" stop-color="#EC5933"/>
      <stop offset="0.44" stop-color="#E9413C"/>
      <stop offset="0.51" stop-color="#E83840"/>
      <stop offset="0.57" stop-color="#E83E3D"/>
      <stop offset="0.67" stop-color="#EB5037"/>
      <stop offset="0.78" stop-color="#F06E2D"/>
      <stop offset="0.9" stop-color="#F69720"/>
      <stop offset="1" stop-color="#FCBF13"/>
    </linearGradient>
    <linearGradient id="paint4_linear_9071_12545" x1="96.8161" y1="44.3662" x2="96.5461" y2="8.45015" gradientUnits="userSpaceOnUse">
      <stop stop-color="#FDC70C"/>
      <stop offset="0.04" stop-color="#FAB811"/>
      <stop offset="0.2" stop-color="#F28125"/>
      <stop offset="0.33" stop-color="#EC5933"/>
      <stop offset="0.44" stop-color="#E9413C"/>
      <stop offset="0.51" stop-color="#E83840"/>
      <stop offset="0.57" stop-color="#E83E3D"/>
      <stop offset="0.67" stop-color="#EB5037"/>
      <stop offset="0.78" stop-color="#F06E2D"/>
      <stop offset="0.9" stop-color="#F69720"/>
      <stop offset="1" stop-color="#FCBF13"/>
    </linearGradient>
    <linearGradient id="paint5_linear_9071_12545" x1="46.9861" y1="44.7262" x2="46.7221" y2="8.81019" gradientUnits="userSpaceOnUse">
      <stop stop-color="#FDC70C"/>
      <stop offset="0.04" stop-color="#FAB811"/>
      <stop offset="0.2" stop-color="#F28125"/>
      <stop offset="0.33" stop-color="#EC5933"/>
      <stop offset="0.44" stop-color="#E9413C"/>
      <stop offset="0.51" stop-color="#E83840"/>
      <stop offset="0.57" stop-color="#E83E3D"/>
      <stop offset="0.67" stop-color="#EB5037"/>
      <stop offset="0.78" stop-color="#F06E2D"/>
      <stop offset="0.9" stop-color="#F69720"/>
      <stop offset="1" stop-color="#FCBF13"/>
    </linearGradient>
    <linearGradient id="paint6_linear_9071_12545" x1="67.6439" y1="44.5702" x2="67.3739" y2="8.65419" gradientUnits="userSpaceOnUse">
      <stop stop-color="#FDC70C"/>
      <stop offset="0.04" stop-color="#FAB811"/>
      <stop offset="0.2" stop-color="#F28125"/>
      <stop offset="0.33" stop-color="#EC5933"/>
      <stop offset="0.44" stop-color="#E9413C"/>
      <stop offset="0.51" stop-color="#E83840"/>
      <stop offset="0.57" stop-color="#E83E3D"/>
      <stop offset="0.67" stop-color="#EB5037"/>
      <stop offset="0.78" stop-color="#F06E2D"/>
      <stop offset="0.9" stop-color="#F69720"/>
      <stop offset="1" stop-color="#FCBF13"/>
    </linearGradient>
    <linearGradient id="paint7_linear_9071_12545" x1="94.4939" y1="44.3722" x2="94.2299" y2="8.45615" gradientUnits="userSpaceOnUse">
      <stop stop-color="#FDC70C"/>
      <stop offset="0.04" stop-color="#FAB811"/>
      <stop offset="0.2" stop-color="#F28125"/>
      <stop offset="0.33" stop-color="#EC5933"/>
      <stop offset="0.44" stop-color="#E9413C"/>
      <stop offset="0.51" stop-color="#E83840"/>
      <stop offset="0.57" stop-color="#E83E3D"/>
      <stop offset="0.67" stop-color="#EB5037"/>
      <stop offset="0.78" stop-color="#F06E2D"/>
      <stop offset="0.9" stop-color="#F69720"/>
      <stop offset="1" stop-color="#FCBF13"/>
    </linearGradient>
    <linearGradient id="paint8_linear_9071_12545" x1="24.0959" y1="44.8941" x2="23.8259" y2="8.97815" gradientUnits="userSpaceOnUse">
      <stop stop-color="#FDC70C"/>
      <stop offset="0.04" stop-color="#FAB811"/>
      <stop offset="0.2" stop-color="#F28125"/>
      <stop offset="0.33" stop-color="#EC5933"/>
      <stop offset="0.44" stop-color="#E9413C"/>
      <stop offset="0.51" stop-color="#E83840"/>
      <stop offset="0.57" stop-color="#E83E3D"/>
      <stop offset="0.67" stop-color="#EB5037"/>
      <stop offset="0.78" stop-color="#F06E2D"/>
      <stop offset="0.9" stop-color="#F69720"/>
      <stop offset="1" stop-color="#FCBF13"/>
    </linearGradient>
    <clipPath id="clip0_9071_12545">
      <rect width="120" height="54" fill="white" transform="translate(0 0.28418)"/>
    </clipPath>
  </defs>
</svg>
